<?xml version="1.0" encoding="UTF-8" standalone="no"?>
<svg
   xmlns:dc="http://purl.org/dc/elements/1.1/"
   xmlns:cc="http://creativecommons.org/ns#"
   xmlns:rdf="http://www.w3.org/1999/02/22-rdf-syntax-ns#"
   xmlns:svg="http://www.w3.org/2000/svg"
   xmlns="http://www.w3.org/2000/svg"
   xmlns:sodipodi="http://sodipodi.sourceforge.net/DTD/sodipodi-0.dtd"
   xmlns:inkscape="http://www.inkscape.org/namespaces/inkscape"
   width="699.15863"
   height="506.7731"
   viewBox="0 0 2913.161 2111.5901"
   version="1.1"
   id="svg79"
   sodipodi:docname="bigtop-tent.svg"
   inkscape:version="1.0.1 (3bc2e813f5, 2020-09-07)">
  <metadata
     id="metadata85">
    <rdf:RDF>
      <cc:Work
         rdf:about="">
        <dc:format>image/svg+xml</dc:format>
        <dc:type
           rdf:resource="http://purl.org/dc/dcmitype/StillImage" />
        <dc:title />
      </cc:Work>
    </rdf:RDF>
  </metadata>
  <defs
     id="defs83" />
  <sodipodi:namedview
     pagecolor="#ffffff"
     bordercolor="#666666"
     borderopacity="1"
     objecttolerance="10"
     gridtolerance="10"
     guidetolerance="10"
     inkscape:pageopacity="0"
     inkscape:pageshadow="2"
     inkscape:window-width="2560"
     inkscape:window-height="1377"
     id="namedview81"
     showgrid="false"
     inkscape:zoom="1.7502976"
     inkscape:cx="375.23133"
     inkscape:cy="168.24936"
     inkscape:window-x="1912"
     inkscape:window-y="-8"
     inkscape:window-maximized="1"
     inkscape:current-layer="svg79"
     inkscape:document-rotation="0" />
  <g
     stroke-linecap="round"
     id="bigtop_tent_vectors"
     transform="translate(-239.32943,-230.27)">
    <path
       d="M 1635.39,844.54"
       fill="none"
       stroke="#000000"
       stroke-width="23.62"
       stroke-opacity="1"
       stroke-linejoin="round"
       id="path2" />
    <path
       d="M 1635.39,844.54 251.11,2330.05"
       fill="none"
       stroke="#000000"
       stroke-width="23.62"
       stroke-opacity="1"
       stroke-linejoin="round"
       id="path4" />
    <path
       d="M 251.11,2330.05"
       fill="none"
       stroke="#000000"
       stroke-width="23.62"
       stroke-opacity="1"
       stroke-linejoin="round"
       id="path6" />
    <path
       d="M 251.11,2330.05 3140.7,2283.83"
       fill="none"
       stroke="#000000"
       stroke-width="23.62"
       stroke-opacity="1"
       stroke-linejoin="round"
       id="path8" />
    <path
       d="M 3140.7,2283.83"
       fill="none"
       stroke="#000000"
       stroke-width="23.62"
       stroke-opacity="1"
       stroke-linejoin="round"
       id="path10" />
    <path
       d="M 3140.7,2283.83 1635.39,837.94"
       fill="none"
       stroke="#000000"
       stroke-width="23.62"
       stroke-opacity="1"
       stroke-linejoin="round"
       id="path12" />
    <path
       d="M 1635.39,837.94"
       fill="none"
       stroke="#000000"
       stroke-width="23.62"
       stroke-opacity="1"
       stroke-linejoin="round"
       id="path14" />
    <path
       d="M 1637.36,840.69"
       fill="none"
       stroke="#000000"
       stroke-width="23.62"
       stroke-opacity="1"
       stroke-linejoin="round"
       id="path16" />
    <path
       d="m 1637.36,840.69 -19.81,-585.4"
       fill="none"
       stroke="#000000"
       stroke-width="23.62"
       stroke-opacity="1"
       stroke-linejoin="round"
       id="path18" />
    <path
       d="M 1617.55,255.29"
       fill="none"
       stroke="#000000"
       stroke-width="23.62"
       stroke-opacity="1"
       stroke-linejoin="round"
       id="path20" />
    <path
       d="M 1617.55,255.29"
       fill="none"
       stroke="#000000"
       stroke-width="23.62"
       stroke-opacity="1"
       stroke-linejoin="round"
       id="path22" />
    <path
       d="m 1617.55,255.29 525.98,-13.21"
       fill="none"
       stroke="#000000"
       stroke-width="23.62"
       stroke-opacity="1"
       stroke-linejoin="round"
       id="path24" />
    <path
       d="M 2143.53,242.08"
       fill="none"
       stroke="#000000"
       stroke-width="23.62"
       stroke-opacity="1"
       stroke-linejoin="round"
       id="path26" />
    <path
       d="m 2143.53,242.08 15.41,308.11"
       fill="none"
       stroke="#000000"
       stroke-width="23.62"
       stroke-opacity="1"
       stroke-linejoin="round"
       id="path28" />
    <path
       d="M 2158.94,550.19"
       fill="none"
       stroke="#000000"
       stroke-width="23.62"
       stroke-opacity="1"
       stroke-linejoin="round"
       id="path30" />
    <path
       d="m 2158.94,550.19 -528.18,17.6"
       fill="none"
       stroke="#000000"
       stroke-width="23.62"
       stroke-opacity="1"
       stroke-linejoin="round"
       id="path32" />
    <path
       d="M 1630.76,567.79"
       fill="none"
       stroke="#000000"
       stroke-width="23.62"
       stroke-opacity="1"
       stroke-linejoin="round"
       id="path34" />
    <path
       d="M 1399.08,2274.39"
       fill="none"
       stroke="#f8ed9e"
       stroke-width="23.62"
       stroke-opacity="1"
       stroke-linejoin="round"
       id="path36" />
    <path
       d="m 1399.08,2274.39 -13.21,-453.36"
       fill="none"
       stroke="#f8ed9e"
       stroke-width="23.62"
       stroke-opacity="1"
       stroke-linejoin="round"
       id="path38" />
    <path
       d="M 1385.87,1821.03"
       fill="none"
       stroke="#f8ed9e"
       stroke-width="23.62"
       stroke-opacity="1"
       stroke-linejoin="round"
       id="path40" />
    <path
       d="m 1385.87,1821.03 490.77,-11"
       fill="none"
       stroke="#f8ed9e"
       stroke-width="23.62"
       stroke-opacity="1"
       stroke-linejoin="round"
       id="path42" />
    <path
       d="M 1876.64,1810.03"
       fill="none"
       stroke="#f8ed9e"
       stroke-width="23.62"
       stroke-opacity="1"
       stroke-linejoin="round"
       id="path44" />
    <path
       d="m 1876.64,1810.03 30.81,462.16"
       fill="none"
       stroke="#f8ed9e"
       stroke-width="23.62"
       stroke-opacity="1"
       stroke-linejoin="round"
       id="path46" />
    <path
       d="M 1907.45,2272.19"
       fill="none"
       stroke="#f8ed9e"
       stroke-width="23.62"
       stroke-opacity="1"
       stroke-linejoin="round"
       id="path48" />
    <path
       d="M 1903.45,2279.19 H 1399.48"
       fill="none"
       stroke="#f8ed9e"
       stroke-width="23.62"
       stroke-opacity="1"
       stroke-linejoin="round"
       id="path50" />
    <path
       d="M 1399.48,2279.19"
       fill="none"
       stroke="#f8ed9e"
       stroke-width="23.62"
       stroke-opacity="1"
       stroke-linejoin="round"
       id="path52" />
    <path
       d="m 1985.98,334.93 c 3.71,5.42 11.21,19.72 14.04,26.76 3.14,7.88 6.58,21.71 7.65,29.04 1.09,7.6 1.69,22.61 1.01,30.07 -0.72,7.49 -3.66,22.29 -5.9,29.67 -1.93,6.25 -8.68,20.83 -12.58,27.41 -4.35,7.31 -12.34,17.71 -18.27,23.8 -5.35,5.47 -17.7,15.76 -23.23,19.23 -6.55,4.07 -20.09,10.74 -27.14,13.36 -7.03,2.59 -21.69,5.88 -29.31,6.79 -7.36,0.87 -21.61,1.11 -30.03,0.11 -7.53,-0.91 -23.29,-4.47 -29.48,-6.65 -6.18,-2.2 -20.65,-9.36 -27.08,-13.4 -7.17,-4.52 -18.08,-13.68 -23.26,-18.99 -5.34,-5.51 -14.66,-17.29 -18.49,-23.74 -3.83,-6.48 -10.15,-20.18 -12.67,-27.47 -2.11,-6.18 -5.22,-21.95 -5.93,-29.56 -0.78,-8.47 -0.43,-21.58 0.79,-30 1.12,-7.57 5.06,-23.15 7.49,-29.21 2.91,-7.14 9.94,-20.49 14.1,-26.76 4.17,-6.23 14.1,-17.51 19.73,-22.73 5.44,-5.02 16.82,-13.59 24.22,-17.73 6.64,-3.69 21.47,-10.08 27.76,-11.95 6.29,-1.85 22.22,-4.56 29.79,-5.08 8.46,-0.55 22.67,0.44 29.98,1.69 7.56,1.32 22.02,5.38 28.91,8.34 6.9,2.99 20.07,10.36 26.39,14.78 5.35,3.76 17.13,14.69 22.19,20.43 2.5,2.85 7.69,9.43 9.32,11.79 z"
       fill="none"
       stroke="#fa85d3"
       stroke-width="9.88"
       stroke-opacity="1"
       stroke-linejoin="round"
       id="path54" />
    <path
       d="m 1852.75,394.79 c 0,0 1.7,33 1.7,33"
       fill="none"
       stroke="#3595e9"
       stroke-width="15.72"
       stroke-opacity="1"
       stroke-linejoin="round"
       id="path56" />
    <path
       d="m 1855.46,389.58 c 0.85,0.79 12.95,1.72 24.95,1.92 8.37,-0.02 18.03,-0.04 19.32,-0.04 0.6,0 1.2,0 1.8,0"
       fill="none"
       stroke="#3595e9"
       stroke-width="15.72"
       stroke-opacity="1"
       stroke-linejoin="round"
       id="path58" />
    <path
       d="m 1901.53,393.01 c 0,0 1,34.67 1,34.67"
       fill="none"
       stroke="#3595e9"
       stroke-width="15.72"
       stroke-opacity="1"
       stroke-linejoin="round"
       id="path60" />
    <path
       d="m 1860.09,427.42 c 1.22,1.12 2.11,1.49 4.18,1.53 11.99,0.38 39.98,-0.42 39.94,-0.42"
       fill="none"
       stroke="#3595e9"
       stroke-width="15.72"
       stroke-opacity="1"
       stroke-linejoin="round"
       id="path62" />
    <path
       d="m 1903.26,388.57 c 5.21,0.14 9.27,-0.14 12.25,-1.54 7.31,-4.08 35.67,-14.78 41.96,-17.1 0,0 -3.49,2.22 -3.49,2.22"
       fill="none"
       stroke="#3595e9"
       stroke-width="15.72"
       stroke-opacity="1"
       stroke-linejoin="round"
       id="path64" />
    <path
       d="m 1960.23,373.92 c 0.05,3.5 -1.73,17.34 -2.61,29.37 -1.21,20.97 -1.28,44.09 -1.12,44.29 0,0 1.14,-10.95 1.14,-10.95"
       fill="none"
       stroke="#3595e9"
       stroke-width="15.72"
       stroke-opacity="1"
       stroke-linejoin="round"
       id="path66" />
    <path
       d="m 1907.57,426.31 c 5.7,3.69 17.14,8.08 27.36,11.6 3.67,1.22 13.51,4.39 13.84,4.5 6.44,2.21 10.26,6.54 10.94,7.29"
       fill="none"
       stroke="#3595e9"
       stroke-width="15.72"
       stroke-opacity="1"
       stroke-linejoin="round"
       id="path68" />
    <path
       d="m 1843.56,387.4 c -8.02,-4.7 -18.75,-11.84 -25.2,-16.32 -8.22,-5.68 -14.13,-8.44 -17.14,-9.18 -0.3,-0.07 -0.97,-0.2 -1.99,-0.41"
       fill="none"
       stroke="#3595e9"
       stroke-width="15.72"
       stroke-opacity="1"
       stroke-linejoin="round"
       id="path70" />
    <path
       d="m 1803.12,364.38 c 0,0 0,0 0,0 1.36,8.14 4.51,44.74 4.73,60.19 -0.05,10.59 -0.34,17.13 -1.09,22.75 0,0 1.97,0.97 1.97,0.97"
       fill="none"
       stroke="#3595e9"
       stroke-width="15.72"
       stroke-opacity="1"
       stroke-linejoin="round"
       id="path72" />
    <path
       d="m 1848.87,429.86 c -2.97,1.41 -24.66,7.68 -28.19,8.78 -5.3,1.73 -12.78,4.54 -15.71,6.31 -0.78,0.47 -4.54,2.78 -6.09,3.29"
       fill="none"
       stroke="#3595e9"
       stroke-width="15.72"
       stroke-opacity="1"
       stroke-linejoin="round"
       id="path74" />
    <path
       d="m 1845.85,386.13 c 0,0 12.02,5.69 12.02,5.69"
       fill="none"
       stroke="#3595e9"
       stroke-width="15.72"
       stroke-opacity="1"
       stroke-linejoin="round"
       id="path76" />
  </g>
  <path
     style="fill:#bb2830;fill-opacity:1;stroke:#bb2830;stroke-width:2.38059;stroke-opacity:1"
     d="m 1395.4351,623.90898 c -247.976,262.56467 -493.40673,527.55962 -739.86699,791.56442 -207.08765,221.9642 -413.541,444.5274 -621.164233,665.9875 -8.273372,17.7213 17.263161,14.2585 27.609089,13.6488 490.918244,-9.3476 981.901534,-15.1543 1472.816634,-24.5939 10.8019,3.4604 21.5419,-11.1995 8.8389,-16.8082 -125.4703,-2.666 -251.1496,0.7145 -376.6443,-2.7898 -13.1352,2.7788 -9.731,-12.8463 -10.2477,-20.5418 -3.2222,-146.6556 -9.6009,-293.2597 -11.6798,-439.9252 122.846,-6.5647 246.0344,-6.6164 369.0535,-10.1495 41.1621,-0.245 82.4036,-3.1433 123.5236,-1.8557 11.4778,114.7131 16.4875,231.4793 25.0183,347.0425 1.9968,39.1939 6.4704,78.6957 7.4172,117.7021 -6.3521,6.0774 -17.8852,18.8652 -5.0494,24.9961 73.787,1.0067 147.9252,-2.0088 221.8432,-2.5673 327.0588,-5.3484 654.1219,-10.4967 981.1717,-16.3611 15.8043,-4.3985 2.6756,-19.6966 -5.2761,-25.0349 -476.7295,-460.2267 -954.4953,-919.3836 -1432.9314,-1377.83989 -10.5268,-7.41304 -18.1832,-23.58035 -31.6508,-23.52781 l -2.2262,0.84335 z"
     id="path959" />
  <path
     style="fill:#bb2830;fill-opacity:1;stroke:#bb2830;stroke-width:0.210416;stroke-opacity:1"
     d="m 1568.5972,2052.2648 c -6.3473,0.092 -12.713,-0.1459 -19.0479,0.2792 -4.1062,0.5412 -7.2062,4.3475 -7.2952,8.4248 -0.6963,3.8541 1.138,8.1438 4.7945,9.784 3.2043,1.5345 6.8499,0.588 10.2585,0.7669 33.725,-0.5573 67.4539,-1.0506 101.1765,-1.6435 4.5985,-0.2875 8.3708,-4.6793 7.8918,-9.2739 -0.1396,-3.9699 -3.1865,-7.6678 -7.1963,-8.1581 -5.4965,-0.2767 -11.0327,-0.052 -16.5445,-0.1342 -24.6791,-0.017 -49.3582,-0.067 -74.0374,-0.045 z"
     id="path961" />
  <path
     style="fill:#bb2830;fill-opacity:1;stroke:#bb2830;stroke-width:0.420832;stroke-opacity:1"
     d="m 1400.306,324.45678 c -3e-4,-0.52617 -2.1781,-65.24097 -4.8395,-143.81058 -2.6615,-78.56963 -4.839,-143.077131 -4.839,-143.350002 0,-0.661862 -0.3608,-0.65072 108.3643,-3.347728 50.9208,-1.263125 111.3313,-2.769138 134.2456,-3.346689 22.9143,-0.577556 64.3873,-1.619886 92.1623,-2.316293 27.7749,-0.696404 76.7132,-1.927312 108.7516,-2.735346 32.0386,-0.808035 58.3526,-1.368406 58.4758,-1.245271 0.2383,0.238379 14.499,283.864259 14.2804,284.018429 -0.071,0.05 -33.1749,1.17569 -73.5643,2.50138 -40.3894,1.32573 -78.359,2.58371 -84.3769,2.79555 -6.0179,0.21167 -17.0016,0.58421 -24.4083,0.82747 -7.4066,0.24333 -18.9585,0.62884 -25.6708,0.85685 -6.7123,0.22792 -20.8207,0.69792 -31.352,1.04422 -19.4496,0.6396 -33.8876,1.12123 -56.602,1.8882 -39.0504,1.31852 -51.9338,1.74895 -69.4373,2.31979 -18.6351,0.60776 -30.002,0.9856 -56.9176,1.89203 -27.5261,0.92693 -51.0753,1.69661 -64.0717,2.09399 -7.5224,0.23001 -15.1447,0.52005 -16.9385,0.64447 -3.1779,0.22042 -3.2615,0.20167 -3.2621,-0.73047 z m 252.9209,-8.74719 c 9.5544,-1.20156 25.5002,-5.03487 32.5861,-7.83359 4.8025,-1.89678 19.5905,-9.13602 23.9115,-11.70548 7.4049,-4.4032 20.269,-15.01642 27.7205,-22.87014 6.9746,-7.35091 14.7659,-17.94609 19.4897,-26.50324 3.0878,-5.59347 8.6722,-17.91338 10.4996,-23.1633 1.5756,-4.52662 3.8576,-14.20878 5.5736,-23.64807 1.9884,-10.93772 1.8379,-31.06869 -0.3225,-43.13533 -2.0103,-11.22751 -5.8087,-23.91338 -9.6395,-32.19368 -7.9318,-17.14437 -14.9394,-27.767123 -25.6449,-38.874364 -4.8406,-5.022243 -13.8222,-13.128046 -18.1208,-16.353879 -5.7683,-4.328773 -20.0261,-12.503231 -27.547,-15.793657 -7.1911,-3.146124 -19.4028,-6.821577 -28.827,-8.676288 -8.2146,-1.61666 -14.8265,-2.149128 -26.5124,-2.13509 -11.6241,0.01417 -16.4318,0.572435 -31.1055,3.613244 -11.9668,2.479863 -30.7897,10.570715 -41.909,18.014149 -6.3208,4.231254 -13.6626,9.865995 -17.7049,13.588266 -6.9769,6.424495 -16.2029,16.854391 -20.7625,23.471839 -4.3457,6.30699 -12.0064,20.64298 -15.0031,28.07629 -3.1581,7.83352 -7.2644,24.5065 -8.4258,34.21149 -0.9632,8.04866 -0.9665,24.62844 0,31.34743 1.8594,13.01064 4.4543,23.82744 7.6725,31.98325 3.3733,8.54881 10.1127,22.02479 13.6228,27.23987 3.2509,4.83013 10.7354,14.35854 14.7996,18.84128 5.2489,5.78943 16.8424,15.54422 24.7662,20.83831 5.2202,3.48772 20.758,11.43061 27.3435,13.97794 9.1301,3.53164 26.2682,7.23795 38.2958,8.28197 3.3894,0.29417 21.5781,-0.1375 25.2499,-0.59922 z"
     id="path965" />
  <path
     style="fill:#f8ed9e;fill-opacity:1;stroke:#f8ed9e;stroke-width:1.68333;stroke-opacity:1"
     d="m 1170.3905,2011.842 c -2.7972,-67.2986 -11.7932,-407.8235 -10.8002,-408.8165 1.2726,-1.2726 465.2421,-11.8993 466.4219,-10.6828 0.6913,0.7127 29.7948,432.0653 29.7234,440.541 l -0.033,3.7874 h -242.1391 -242.1407 z"
     id="path969" />
  <path
     style="fill:#ffffff;fill-opacity:1;stroke:#f8ed9e;stroke-width:0.420832;stroke-opacity:1"
     d="m 1576.3082,194.00838 c -0.017,-8.18533 -0.8069,-21.82432 -2.1676,-37.37479 -0.4553,-5.20412 -0.8279,-9.5932 -0.8279,-9.7535 0,-0.16029 4.0252,2.39325 8.945,5.67456 13.346,8.90138 18.7481,12.06604 21.1925,12.41509 l 2.0562,0.29363 0.6758,13.25153 c 0.3716,7.28834 0.6021,13.38553 0.5122,13.54937 -0.1775,0.32333 -7.2781,2.60154 -20.6053,6.61157 -4.6616,1.40264 -8.766,2.66166 -9.1208,2.79779 -0.5647,0.21667 -0.6468,-0.71288 -0.6601,-7.46525 z"
     id="path971" />
  <path
     style="fill:#3595e9;fill-opacity:1;stroke:#3595e9;stroke-width:0.420832;stroke-opacity:1"
     d="m 1572.785,138.38563 c -5.267,0.45165 -8.767,6.02585 -7.4818,11.02903 1.6466,16.87583 2.4769,33.6406 2.9965,50.65253 -0.053,4.96496 3.9911,9.78946 9.1607,9.45799 6.8286,-1.29118 13.3628,-3.95277 20.0633,-5.81189 4.9866,-2.0374 11.1917,-2.24112 14.9812,-6.4654 3.8468,-4.89999 1.7996,-11.51097 1.9659,-17.20666 -0.5065,-5.73344 -0.1142,-11.64854 -1.5031,-17.2467 -1.2228,-3.80352 -5.0979,-5.34205 -8.6259,-6.2213 -8.6451,-4.66475 -16.7184,-10.3486 -24.8884,-15.79411 -1.757,-1.74561 -4.2477,-2.4383 -6.6684,-2.39349 z"
     id="path979" />
  <path
     style="fill:#3595e9;fill-opacity:1;stroke:#3595e9;stroke-width:0.420832;stroke-opacity:1"
     d="m 1619.1423,160.76291 c -4.2254,1.54643 -6.1539,6.21352 -5.5305,10.46725 0.2625,6.84908 0.049,13.80257 1.1693,20.55914 1.8724,5.76285 8.793,7.32725 14.2151,7.19117 6.8232,0.21292 13.7001,-0.13501 20.4921,0.2575 4.9786,3.43293 12.764,0.38251 13.5799,-5.73722 0.5118,-8.09062 -0.2383,-16.23945 -0.2967,-24.34902 -0.1666,-4.98411 -4.96,-8.66202 -9.8035,-8.14166 -10.5783,-0.14621 -21.1859,-0.77348 -31.7476,-0.58646 -0.6927,0.11313 -1.3855,0.2263 -2.0782,0.33943 z"
     id="path981" />
  <path
     style="fill:#3595e9;fill-opacity:1;stroke:#3595e9;stroke-width:0.420832;stroke-opacity:1"
     d="m 1710.4079,142.27751 c -12.3794,4.31573 -24.3672,9.71828 -36.4538,14.77434 -3.8341,0.88067 -8.7215,0.75551 -10.6953,4.87096 -2.33,4.17243 -0.7876,9.23668 -1.0847,13.80841 0.4096,5.60679 -0.2721,11.53159 1.6537,16.86526 2.5248,4.29145 7.824,5.45859 11.9344,7.75451 10.3532,4.45745 20.996,8.37522 31.8834,11.29148 5.2779,0.98322 10.224,-3.79856 9.8573,-9.05853 0.5211,-16.60296 1.2262,-33.17068 2.9943,-49.75438 0.903,-5.09129 -2.9632,-10.86552 -8.405,-10.58212 -0.5614,0.01 -1.1229,0.02 -1.6843,0.03 z"
     id="path983" />
  <path
     style="fill:#fa85d3;fill-opacity:1;stroke:#fa85d3;stroke-width:0.420832;stroke-opacity:1"
     d="m 1624.6543,306.17664 c -7.764,-0.94268 -25.0744,-4.9045 -30.5095,-6.98266 -4.4286,-1.69332 -14.9034,-6.70886 -20.4277,-9.78116 -9.3196,-5.18309 -22.5161,-15.7366 -29.3843,-23.49915 -11.1194,-12.56746 -16.7766,-21.33023 -23.3857,-36.22394 -3.7737,-8.50389 -4.9899,-12.10245 -6.7273,-19.90517 -2.6724,-12.00149 -3.2527,-16.3934 -3.4924,-26.43479 -0.3475,-14.55606 0.5898,-22.65315 4.2706,-36.89016 2.2867,-8.84473 3.831,-13.05651 7.6135,-20.76388 6.6455,-13.54125 10.6781,-19.73705 19.0912,-29.332485 8.4767,-9.66783 17.456,-17.432323 28.3302,-24.497283 6.218,-4.039843 20.2091,-10.58507 29.161,-13.641888 6.2686,-2.140565 20.0238,-4.649153 30.4624,-5.555543 8.7499,-0.759759 24.5428,0.399965 33.929,2.491484 5.7346,1.277833 16.388,4.411707 20.852,6.13394 7.6398,2.947487 24.304,12.306994 30.0647,16.885938 4.5889,3.647557 14.2706,12.621066 17.6039,16.316228 8.5088,9.432509 13.1821,16.484419 19.8394,29.937109 7.4608,15.07647 11.4185,30.32828 12.4563,48.00273 0.7886,13.43175 0.1533,20.59249 -3.2185,36.27717 -1.7869,8.31231 -3.1418,12.54992 -6.2941,19.68562 -5.202,11.7752 -8.6538,17.92005 -14.5271,25.86127 -7.3689,9.96342 -12.555,15.44743 -22.0724,23.34068 -9.5228,7.89759 -11.9479,9.48045 -22.9354,14.96938 -12.3778,6.18352 -17.0401,7.90884 -28.827,10.6676 -11.0506,2.58641 -13.8211,2.88863 -27.5645,3.00713 -7.0595,0.0608 -13.4982,0.0292 -14.3083,-0.0683 z m 98.7885,-79.49717 c 0.8521,-0.35625 1.9077,-0.97151 2.3458,-1.36773 2.7872,-2.52046 3.1923,-8.08909 0.783,-10.76155 -0.8064,-0.89452 -0.9631,-4.33758 -0.9414,-20.6796 0.017,-11.49401 0.4969,-20.13523 1.9468,-34.9291 1.4834,-15.13609 1.4994,-16.81188 0.1813,-19.00292 -2.9206,-4.85458 -4.1657,-6.36169 -5.9822,-7.24106 -3.094,-1.49774 -4.5933,-1.23544 -14.3671,2.51346 -14.4643,5.548 -25.4082,10.01154 -30.5715,12.46886 l -4.8396,2.30324 -5.352,0.28551 c -5.1373,0.27404 -5.4291,0.33979 -7.2717,1.63859 l -1.9196,1.35307 h -10.3143 c -19.9089,0 -30.0996,-1.06821 -35.3214,-3.70248 -2.089,-1.05389 -3.5746,-1.50743 -5.1078,-1.55944 -2.6847,-0.0911 -2.9311,-0.23187 -18.4588,-10.5516 -17.9491,-11.92893 -24.5563,-14.96044 -30.2704,-13.88846 -2.8125,0.52761 -6.0958,4.46883 -6.1224,7.34904 -0.021,2.11888 1.0546,4.48418 2.7926,6.14939 l 1.7672,1.69333 0.8728,8.62281 c 2.2169,21.89975 3.5575,45.42945 3.1333,54.99428 l -0.2833,6.39235 -2.5678,1.34619 c -4.4567,2.3365 -5.8215,4.13978 -5.8739,7.76063 -0.063,4.37962 3.517,7.96409 7.9354,7.94472 1.1573,-0.004 2.7034,-0.32542 3.4359,-0.71189 1.2673,-0.66859 1.4284,-0.65993 3.3262,0.17959 4.6155,2.04162 9.578,-0.70676 10.8502,-6.00919 0.3287,-1.37089 1.8049,-1.93065 17.5272,-6.64732 13.262,-3.97856 16.9015,-5.20425 18.8273,-6.34044 1.808,-1.06676 4.6566,-1.1646 7.6716,-0.26333 1.9132,0.5718 4.4888,0.68772 15.2793,0.68772 15.082,0 16.0755,-0.14876 18.6444,-2.79205 l 1.7568,-1.80761 0.7884,0.88622 c 0.8947,1.00585 5.4598,3.29176 6.5748,3.29226 0.405,1.7e-4 0.7364,-0.28 0.7364,-0.62288 0,-1.3929 1.8958,-1.09985 6.314,0.97601 6.4864,3.04751 12.8937,5.49285 25.5392,9.747 11.8212,3.97686 13.8893,4.832 14.2289,5.88364 0.2217,0.68601 4.7841,3.89428 6.5219,4.58604 1.5758,0.62722 4.0431,0.55251 5.7846,-0.17501 z"
     id="path997" />
</svg>
