<?xml version="1.0" encoding="UTF-8" standalone="no"?>
<svg
   xmlns:dc="http://purl.org/dc/elements/1.1/"
   xmlns:cc="http://creativecommons.org/ns#"
   xmlns:rdf="http://www.w3.org/1999/02/22-rdf-syntax-ns#"
   xmlns:svg="http://www.w3.org/2000/svg"
   xmlns="http://www.w3.org/2000/svg"
   xmlns:sodipodi="http://sodipodi.sourceforge.net/DTD/sodipodi-0.dtd"
   xmlns:inkscape="http://www.inkscape.org/namespaces/inkscape"
   width="500.28674"
   height="270.17816"
   viewBox="0 0 2084.5281 1125.7612"
   version="1.1"
   id="svg119"
   sodipodi:docname="congratulations-message.svg"
   inkscape:version="1.0.1 (3bc2e813f5, 2020-09-07)">
  <metadata
     id="metadata125">
    <rdf:RDF>
      <cc:Work
         rdf:about="">
        <dc:format>image/svg+xml</dc:format>
        <dc:type
           rdf:resource="http://purl.org/dc/dcmitype/StillImage" />
      </cc:Work>
    </rdf:RDF>
  </metadata>
  <defs
     id="defs123" />
  <sodipodi:namedview
     pagecolor="#ffffff"
     bordercolor="#666666"
     borderopacity="1"
     objecttolerance="10"
     gridtolerance="10"
     guidetolerance="10"
     inkscape:pageopacity="0"
     inkscape:pageshadow="2"
     inkscape:window-width="820"
     inkscape:window-height="480"
     id="namedview121"
     showgrid="false"
     inkscape:zoom="1.2376473"
     inkscape:cx="308.63678"
     inkscape:cy="245.62544"
     inkscape:window-x="0"
     inkscape:window-y="227"
     inkscape:window-maximized="0"
     inkscape:current-layer="svg119" />
  <g
     stroke-linecap="round"
     id="Layer_2"
     transform="translate(-468.02126,-216.54349)">
    <path
       d="m 609.63,224.88 c -3.03,-0.28 -12.37,-1.12 -13.64,-1.19 -3.82,-0.2 -8.59,0.1 -12.83,1.55 -4.47,1.57 -20.57,9.78 -26.2,13.37 -5.66,3.64 -17.31,12.64 -23.03,17.69 -7.09,6.52 -16.43,15.95 -21.86,22.57 -5.45,6.67 -12.91,18.05 -16.6,25.37 -3.63,7.24 -8.77,20.87 -10.6,26.83 -2.29,7.51 -4.95,19.81 -6.52,28.87 -1.51,10.42 -2.54,22.96 -2.96,30.83 -0.41,10.96 -0.34,26.67 -0.17,30.8 0.35,8.15 2.4,21.87 4.09,28.71 1.88,7.56 6.75,20.11 10.24,26.64 3.54,6.56 13.13,19.45 18.45,24.25 4.28,3.83 21.93,15.61 25.01,16.93 2.99,1.25 21.32,7.23 27.49,8.22 6.98,1.09 18.98,0.98 27.54,-0.13 2.28,-0.32 9.02,-1.64 11.49,-2.7 5.7,-2.47 31.68,-17.1 32.8,-17.73 0,0 -6.15,-0.61 -6.15,-0.61"
       fill="none"
       stroke="#000000"
       stroke-width="14.17"
       stroke-opacity="1"
       stroke-linejoin="round"
       id="path2" />
    <path
       d="m 746.5,423.36 c 0,0 -0.3,-6.28 -0.3,-6.28 -3.82,-0.2 -12.56,-0.58 -15.59,0.18 -1.93,0.5 -9.31,4.22 -11.27,5.62 -2.6,1.89 -7.82,7.22 -9.72,10 -2.04,3.05 -4.88,8.62 -5.92,11.74 -1.13,3.46 -2.59,9.91 -2.87,13.08 -0.25,3.16 0.1,11.17 0.73,14.83 0.66,3.72 3.21,10.88 4.96,14.27 1.93,3.7 5.83,9.02 8.65,11.79 2.48,2.41 8.22,6.69 11.23,8.17 3.02,1.46 9.96,3.69 12.49,4.09 3.72,0.55 12.16,0.17 15.41,-0.78 3.31,-1.02 10.43,-5.32 13.19,-8.04 1.94,-1.94 6.11,-8.04 7.76,-11.32 2.78,-5.63 5.81,-21 6.12,-28.02 0.13,-3.38 -0.1,-10.29 -0.71,-13.88 -0.68,-3.87 -2.9,-10.46 -4.64,-13.27 -1.55,-2.47 -6.17,-7.7 -8.93,-9.64 -3.01,-2.07 -8.49,-4.12 -12.03,-4.56 -2.84,-0.33 -8.95,0.11 -10.83,0.85 -1.64,0.65 -4.83,2.36 -6.82,3.54"
       fill="none"
       stroke="#000000"
       stroke-width="14.17"
       stroke-opacity="1"
       stroke-linejoin="round"
       id="path4" />
    <path
       d="m 848.98,410.35 c 3.75,6.87 12.05,22.43 13.08,27.43 1.08,5.41 1.75,21.49 1.84,29.53 -0.12,8.31 -0.51,21.29 -0.65,25.69 0.03,-6.55 0.13,-23.89 0.73,-30.86 0.39,-4.34 1.88,-12.76 3,-16.37 1.96,-6.18 8.71,-19.95 13.26,-25.58 2.28,-2.77 6.41,-5.98 10.13,-8.17 2.47,-1.41 6.1,-2.33 8.34,-1.82 1.41,0.38 2.89,1.31 3.92,2.6 1.77,2.26 8.67,17.94 10.75,26.18 2.91,11.66 7.89,46.08 9.55,57.98 0,-2.95 0,-10.28 0,-14.65 0,-1.71 0,-4.67 0,-5.91"
       fill="none"
       stroke="#000000"
       stroke-width="14.17"
       stroke-opacity="1"
       stroke-linejoin="round"
       id="path6" />
    <path
       d="m 1053.3,403.01 c -0.45,-0.05 -7.01,1.38 -11.16,3.61 -4.27,2.34 -19.07,14.5 -21.96,18.8 -1.7,2.59 -4.43,8.64 -5.71,12.71 -1.29,4.21 -2.15,10.39 -2.14,14.31 0.04,3.27 0.96,9.99 2.18,13.48 1.33,3.7 5.24,10.19 7.73,12.49 2.15,1.95 8.46,5.73 12.01,6.73 4.13,1.1 11.14,0.87 14.49,-0.51 3.07,-1.33 7.02,-5.86 8.86,-8.85 1.51,-2.5 4.31,-9.1 4.85,-12.22 0.87,-5.08 1.71,-24.34 1.87,-32.23 0.08,-11.02 -0.82,-17.78 -1.12,-19.81 -0.33,5.75 0.65,11.5 3.52,21.54 2.41,8.08 6.1,23.72 7.58,30.98 1.72,9.12 3.43,23.06 4.04,32.56 0.54,12.24 0.36,43.43 -0.37,48.54 -0.85,5.75 -6.81,21.98 -9.93,26.63 -1.86,2.72 -6.08,7.45 -9.05,9.38 -3.22,2.04 -9.36,3.99 -13.27,4.49 -3.69,0.43 -10.28,0.23 -14.65,-0.43 -4.32,-0.69 -11.38,-2.57 -15.75,-4.19 -4.45,-1.68 -10.97,-4.85 -14.19,-7.09 -1.64,-1.19 -3.82,-3.71 -4.6,-5.42 -0.68,-1.6 -0.85,-4.94 -0.5,-7.06 0.58,-3.12 2.16,-6.2 2.79,-7.33"
       fill="none"
       stroke="#000000"
       stroke-width="14.17"
       stroke-opacity="1"
       stroke-linejoin="round"
       id="path8" />
    <path
       d="m 1164.22,478.07 c -1.65,-3.4 -10.02,-21.35 -12.15,-27.82 -2.52,-7.77 -4.82,-21.7 -5.67,-31.65 -0.32,-4.81 -0.4,-11.93 0.28,-14.84 0.66,-2.73 3.02,-8.1 5.12,-11.71 2.15,-3.62 5.85,-7.79 8.94,-10.16 2.9,-2.17 8.17,-4.87 11.77,-6.04 3.44,-1.09 9.29,-2.24 13.03,-2.58 3.85,-0.33 10.22,-0.19 14.29,0.41 3.56,0.55 9.48,2.45 11.74,3.81 1.72,1.05 5.57,4.29 6.33,4.92 0,0 -8.46,3.35 -8.46,3.35"
       fill="none"
       stroke="#000000"
       stroke-width="14.17"
       stroke-opacity="1"
       stroke-linejoin="round"
       id="path10" />
    <path
       d="m 1299.79,390.34 c -4.69,-0.34 -9.53,0.15 -12.67,1.5 -2.54,1.14 -7.43,4.6 -9.65,6.71 -2.85,2.74 -7.52,8.69 -9.34,12.19 -1.87,3.66 -4.38,10.36 -5.15,13.73 -0.74,3.35 -1.66,10.34 -1.73,13.02 -0.07,3.92 0.93,12.17 1.89,14.7 0.77,1.95 2.75,5.11 4.18,6.67 1.4,1.49 3.89,3.22 5.59,3.91 1.53,0.58 4.99,1.24 6.45,1.2 3.19,-0.14 9.75,-3.04 12.23,-5.33 2.1,-1.97 6.42,-7.09 8.12,-9.61 3.2,-4.82 6.76,-16.2 9.5,-26.68 1.07,-4.15 2.18,-9.26 3.23,-14.5 1.44,1.08 2.02,1.8 2.56,3.42 3.14,8.72 13.09,40.39 13.98,42.86 1.49,4.12 3.76,7.79 6.07,9.07 0.34,0.18 0.91,0.44 1.71,0.79 2.64,-1.78 4.5,-4.56 5.59,-8.32"
       fill="none"
       stroke="#000000"
       stroke-width="14.17"
       stroke-opacity="1"
       stroke-linejoin="round"
       id="path12" />
    <path
       d="m 1385.41,314.1 c 1.06,15.45 4.8,43.23 7.1,57.96 2.89,17.49 9.3,57.52 9.84,62.08 1.29,11.34 0.14,22.28 -0.08,22.83 -0.65,1.66 -2.25,3.95 -3.39,5.09"
       fill="none"
       stroke="#000000"
       stroke-width="14.17"
       stroke-opacity="1"
       stroke-linejoin="round"
       id="path14" />
    <path
       d="m 1358.17,376.66 c 14.59,-3.52 56.66,-13.34 62.24,-13.44 0.53,-0.01 3.49,0.09 4.73,0.09 0.81,0 1.62,0 2.43,0"
       fill="none"
       stroke="#000000"
       stroke-width="14.17"
       stroke-opacity="1"
       stroke-linejoin="round"
       id="path16" />
    <path
       d="m 1499.57,366.32 c 0.69,-0.32 2.86,0.58 4.33,2 1.67,1.65 2.69,18.15 3.11,25.86 0.64,11.32 1.71,22.68 3.33,28.39 0.87,2.97 4.13,10.57 5.61,12.47 1.3,1.59 4.57,4.05 6.16,4.5 1.7,0.43 5.59,-0.24 7.46,-1.17 2.21,-1.17 7.98,-7.49 10.07,-10.92 3.68,-6.11 10.02,-20.12 12.11,-27.99 3.32,-12.89 6.99,-30.91 7.17,-31.81 1.69,2.65 6.03,16.62 8.28,23.93 5.32,17.49 12.34,40.34 12.44,40.71 0.6,2.13 0.98,2.66 1.83,2.77 0,0 0.48,-13.7 0.48,-13.7"
       fill="none"
       stroke="#000000"
       stroke-width="14.17"
       stroke-opacity="1"
       stroke-linejoin="round"
       id="path18" />
    <path
       d="m 1638.38,240.89 c 6.07,21.32 10.45,39.56 12.74,56.4 0.92,7.98 2.55,45.38 3.15,61.12 0.91,16.5 3.56,46.78 6.17,65.72 0.98,6.35 3.49,20.39 5.75,28.58 0.4,1.59 0.81,1.99 1.87,2.09 0,0 3.01,-28.24 3.01,-28.24"
       fill="none"
       stroke="#000000"
       stroke-width="14.17"
       stroke-opacity="1"
       stroke-linejoin="round"
       id="path20" />
    <path
       d="m 1782.38,356.64 c -4.38,-0.06 -9.41,0.37 -12.61,1.22 -2.81,0.78 -8.79,3.6 -11.52,5.27 -3.08,1.91 -8.25,6.11 -10.39,8.57 -2.21,2.59 -5.56,7.58 -6.94,10.6 -1.37,3.06 -3.41,9.63 -3.88,12.88 -0.42,3.11 -0.52,10.08 0.23,13.81 0.45,2.1 1.77,5.89 2.62,7.36 1.71,2.84 7.82,7.66 11.34,8.81 3.73,1.16 9.93,1.34 13.42,0.67 3.27,-0.67 8.47,-2.95 11.43,-5 2.85,-2.01 6.99,-5.97 9.16,-8.74 2.27,-2.94 5.1,-7.64 6.92,-11.7 1.28,-2.91 2.76,-7.49 3.03,-12.14 0.14,-2.61 0.16,-18.11 0.16,-20.93 0.35,6.74 2.97,19.71 4.84,27.98 1.66,6.64 7.31,25.58 9.67,31.63 1.8,4.44 4.22,7.85 7.79,11.3 1.77,-1.24 2.75,-2.53 3.27,-4.84 0.89,-3.94 1.45,-9.78 1.68,-12.36"
       fill="none"
       stroke="#000000"
       stroke-width="14.17"
       stroke-opacity="1"
       stroke-linejoin="round"
       id="path22" />
    <path
       d="m 1895.89,266.24 c 1.22,5.46 4.53,20.36 5.67,28.3 1.74,12.99 3.95,46.19 5.37,63.56 1.64,16.87 5.72,57.59 5.99,60.92 0.36,4.67 0.53,13.7 0.49,13.76 -0.05,0.06 -0.22,-0.24 -0.51,-0.9"
       fill="none"
       stroke="#000000"
       stroke-width="14.17"
       stroke-opacity="1"
       stroke-linejoin="round"
       id="path24" />
    <path
       d="m 1873.19,354.97 c 7.08,0.11 18.21,-2.56 25.51,-4.8 11.77,-3.86 35.72,-12.62 39.71,-14.1 0.19,-0.07 0.28,-0.1 0.29,-0.11"
       fill="none"
       stroke="#000000"
       stroke-width="14.17"
       stroke-opacity="1"
       stroke-linejoin="round"
       id="path26" />
    <path
       d="m 1964.65,283.59 c 0.06,9.83 -0.16,17.41 -0.66,20.97 -0.14,1.01 -0.89,4.61 -1.11,5.69"
       fill="none"
       stroke="#000000"
       stroke-width="14.17"
       stroke-opacity="1"
       stroke-linejoin="round"
       id="path28" />
    <path
       d="m 1975.03,384.33 c 2.74,26.51 2.8,32.05 2.59,32.65 -0.07,0.2 -0.29,0.59 -0.65,1.17"
       fill="none"
       stroke="#000000"
       stroke-width="14.17"
       stroke-opacity="1"
       stroke-linejoin="round"
       id="path30" />
    <path
       d="m 2021.73,355.31 c 0.36,1.53 0.13,2.32 -1.32,3.61 -0.74,0.67 -8.01,7.53 -10.29,10.13 -2.79,3.25 -5.85,9.19 -7.1,14.07 -0.95,3.92 -1.1,8.63 -0.38,11.33 0.67,2.36 3.38,8.03 5.42,10.29 2.36,2.54 7.63,6.01 11.24,7.36 3.33,1.21 10.16,1.83 12.8,1.54 3.02,-0.38 8.59,-3.15 11.04,-5.31 2.41,-2.2 6.27,-8.42 7.78,-12.2 2.27,-5.8 4.66,-21.87 4.87,-29.69 0.12,-4.49 -0.11,-12.04 -0.53,-14.75 -0.49,-2.86 -3.14,-4.48 -4.33,-4.83 -1.72,0.93 -4.4,2.55 -5.57,3.54 -1.17,1 -4.42,4.85 -5.26,5.73 -0.44,0.46 -1.33,1.3 -2.67,2.51"
       fill="none"
       stroke="#000000"
       stroke-width="14.17"
       stroke-opacity="1"
       stroke-linejoin="round"
       id="path32" />
    <path
       d="m 2082.05,360.31 c 2.02,4.42 8.06,21.43 9.29,25.35 2.92,9.32 4.41,22.93 5.23,26.03 0.2,0.75 1.17,3.54 1.46,4.38 1.99,-1.71 2.99,-3.66 4.79,-9.05 2.69,-8.51 7.98,-25.11 10.57,-33.2 1.66,-4.97 4.52,-11.84 6.48,-14.58 1.99,-2.68 7.5,-8.19 9.96,-9.64 1.82,-1.04 8.45,-2.67 11.29,-2.54 1.69,0.11 4.22,0.96 5.6,1.91 2.47,1.77 5.95,7.32 7.22,10.05 2.4,5.21 4.43,16.18 6.06,28.7 1.4,11.64 1.78,17.12 1.84,18.63"
       fill="none"
       stroke="#000000"
       stroke-width="14.17"
       stroke-opacity="1"
       stroke-linejoin="round"
       id="path34" />
    <path
       d="m 2256.54,342.3 c -0.89,-1.46 -2.94,-3.58 -4.87,-4.84 -1.66,-1.06 -9.31,-3.08 -14.97,-3.5 -4.96,-0.33 -19.68,0.17 -24.04,0.33 -0.64,1.26 -1.38,3.53 -1.37,4.85 0.05,2.26 3.83,8.39 6.49,11.21 6.41,6.66 34.45,28.97 46.75,38.71 4.25,3.54 8.78,7.68 10.07,9.23 1.79,2.18 2.94,4.14 3.96,6.74 0.69,1.89 1.12,4.58 0.76,5.98 -0.38,1.37 -2.24,3.54 -3.35,4.21 -2.59,1.42 -8.96,2.82 -12.73,2.94 -6.78,0.17 -20.68,-1.81 -27.47,-3.64 -3.87,-1.05 -9.51,-2.98 -13.27,-4.63 -3.47,-1.55 -8.19,-4.77 -9.62,-6.92 -1.18,-1.83 -2.68,-6.47 -3.04,-7.63"
       fill="none"
       stroke="#000000"
       stroke-width="14.17"
       stroke-opacity="1"
       stroke-linejoin="round"
       id="path36" />
    <path
       d="m 1155.14,712.91 c 0.18,6.56 0.66,21.51 1.63,27.67 0.43,2.68 11.96,44.54 13.54,52.86 2.36,13.02 7.18,54.46 9.02,72.43 1.5,17.6 4.37,52.07 4.35,52.12 -0.08,0.23 -0.4,0.42 -0.97,0.58 -1.46,-0.69 -3.14,-4.26 -4.6,-9.9 -0.47,-1.89 -1.25,-5.03 -1.56,-6.28"
       fill="none"
       stroke="#000000"
       stroke-width="14.17"
       stroke-opacity="1"
       stroke-linejoin="round"
       id="path38" />
    <path
       d="m 1154.49,684.89 c 9.68,-3.91 31.21,-7.23 38.93,-7.95 3.64,-0.34 8.66,0.13 13.45,0.95 4.3,0.79 10.84,2.5 13.95,3.75 5.75,2.37 18.04,11.31 23.14,16.34 5.62,5.58 13.57,16.11 17.08,22.54 3.46,6.42 7.72,20.37 8.62,26.99 1.02,7.67 0.76,22.03 -1.17,27.95 -1.03,3.07 -4.92,9.73 -7.13,12.18 -2.2,2.38 -8.86,7.37 -12.17,9.17 -4.55,2.45 -18.78,6.99 -26.11,7.83 -4.47,0.5 -19,1 -22.4,1.05 -1.95,0.07 -2.64,-0.2 -3.38,-1.12 0.83,-1.36 3.96,-3.82 8.94,-6.93 0.74,-0.46 1.48,-0.91 2.23,-1.37"
       fill="none"
       stroke="#000000"
       stroke-width="14.17"
       stroke-opacity="1"
       stroke-linejoin="round"
       id="path40" />
    <path
       d="m 1334.17,796.98 c -3.82,-0.18 -8.17,0.79 -12.18,3.59 -2.2,1.58 -7.87,6.97 -10.44,9.98 -3.13,3.73 -7.07,9.4 -8.78,12.82 -1.75,3.55 -4.45,10.64 -5.24,13.87 -0.77,3.26 -1.56,11.1 -1.41,14.59 0.19,3.54 2.01,10.1 3.46,13.09 1.63,3.25 5.31,7.8 8.13,10.04 2.42,1.89 8.41,5.27 11.54,6.32 3.28,1.07 10.2,2.31 13.13,2.35 2.94,0.02 10.21,-1.11 13.48,-2.14 3.27,-1.06 9.42,-4.55 12.3,-6.79 3.15,-2.49 7.55,-7.2 9.88,-10.57 2.04,-3 5.47,-9.64 6.62,-13.12 1.11,-3.45 2.69,-11.22 2.97,-14.33 0.25,-3.08 0.02,-10.68 -0.49,-14.11 -0.57,-3.55 -3.29,-10.55 -5.36,-13.73 -1.99,-2.96 -7.08,-7.06 -9.93,-8.27 -2.84,-1.15 -8.5,-1.27 -11.98,-0.59 -3.2,0.68 -10.15,3.94 -12.78,6.26 -1.92,1.72 -5.47,6.51 -6.17,7.45"
       fill="none"
       stroke="#000000"
       stroke-width="14.17"
       stroke-opacity="1"
       stroke-linejoin="round"
       id="path42" />
    <path
       d="m 1409.41,657.87 c 2.38,6.19 7.85,20.58 10.94,28.77 2.58,7.04 5.59,17.64 7.42,27.49 2.37,14.63 7.79,50.14 9.28,63.65 1.62,17.3 2.61,44.55 2.8,67.97 0.16,10.13 0.54,13.46 1.51,16.28 1.88,-0.14 4.05,-2.88 7.1,-8.9 1.95,-4.13 4.51,-9.55 5.11,-10.84"
       fill="none"
       stroke="#000000"
       stroke-width="14.17"
       stroke-opacity="1"
       stroke-linejoin="round"
       id="path44" />
    <path
       d="m 1487.25,636.19 c 0.26,6.5 0.94,21.61 1.87,28.82 0.43,3.22 3.93,22.63 5,29.68 2.19,15.93 5.6,49.32 6.37,62.51 0.62,15.18 1.43,46.05 1.84,61.46 0.83,18.27 2.26,40.53 2.27,40.53 0.02,0.01 0.08,-0.44 0.16,-1.36"
       fill="none"
       stroke="#000000"
       stroke-width="14.17"
       stroke-opacity="1"
       stroke-linejoin="round"
       id="path46" />
    <path
       d="m 1498.92,790.64 c 11.71,-8.15 37.93,-26.29 52.45,-36.28 15.18,-10.13 27.16,-17.12 27.82,-17.51 0,0 -10.77,4.71 -10.77,4.71"
       fill="none"
       stroke="#000000"
       stroke-width="14.17"
       stroke-opacity="1"
       stroke-linejoin="round"
       id="path48" />
    <path
       d="m 1523.57,786.3 c 4.54,4.47 15.09,14.74 21.58,20.01 8.74,7.07 34.07,23.77 37.29,25.2 0.93,0.41 2.81,0.93 3.86,1.16"
       fill="none"
       stroke="#000000"
       stroke-width="14.17"
       stroke-opacity="1"
       stroke-linejoin="round"
       id="path50" />
    <path
       d="m 1657.19,755.61 c -2.52,0.47 -6.5,1.63 -12.05,3.55 -4.42,1.62 -11.07,5 -14.57,7.45 -3.52,2.49 -8.34,7.17 -10.47,10.2 -2.03,2.94 -5.09,8.55 -6.73,12.35 -1.69,3.98 -3.45,10.33 -4.07,14.67 -0.58,4.23 -0.59,10.51 -0.14,14.28 0.41,3.22 2.08,9.65 3.74,13 1.82,3.61 6.7,9.82 9.78,12.1 3.04,2.18 10.29,5.48 14.15,6.25 4.03,0.76 11.93,0.83 15.81,-0.06 3.97,-0.95 11.15,-4.22 14.23,-6.67 2.83,-2.29 8.3,-8.37 10.2,-11.42 1.85,-3.01 4.59,-9.33 5.28,-12.45 0.51,-2.38 1.32,-9.4 1.49,-13.11 0.26,-6.57 -1.94,-18.59 -2.49,-21.53 -1.25,1.32 4.78,14.95 9.61,23.19 4,6.55 14.05,22.62 16.11,25.63 4.78,6.77 8.72,9.61 9.49,10.19 0,0 0.96,-13.89 0.96,-13.89"
       fill="none"
       stroke="#000000"
       stroke-width="14.17"
       stroke-opacity="1"
       stroke-linejoin="round"
       id="path52" />
    <path
       d="m 1725.95,592.16 c 2.24,5.04 7.93,17.94 11.39,25.78 3.35,8.2 9.48,25 11.43,31.62 2.56,8.78 17.12,75.23 20.75,90.3 1.25,4.84 5.03,16.98 5.08,17.26 0.04,0.25 0.04,0.62 0,1.11"
       fill="none"
       stroke="#000000"
       stroke-width="14.17"
       stroke-opacity="1"
       stroke-linejoin="round"
       id="path54" />
    <path
       d="m 1790.16,831 c -3.24,1.79 -10.6,5.93 -12.89,8.13 -0.99,0.99 -1.95,2.75 -2.42,4.18 -0.31,1.15 0.32,4.09 1.22,5.34 0.92,1.24 7.38,2.22 10.82,1.86 3.07,-0.36 10.05,-2.9 13.33,-4.94 2.41,-1.53 7.66,-6.24 8.9,-8.27 1.47,-2.47 2.46,-7.24 2.72,-8.41 -0.97,-0.73 -3.7,-2.88 -4.59,-3.28 -3.18,-1.39 -11.21,-1.42 -16.3,-0.89 -1.76,0.18 -4.75,0.49 -5.98,0.61"
       fill="none"
       stroke="#000000"
       stroke-width="14.17"
       stroke-opacity="1"
       stroke-linejoin="round"
       id="path56" />
    <path
       d="m 529.63,1234.65 c 2.61,0.14 18.38,6.27 22.72,7.24 4.87,1.05 21.53,1.23 27.99,-0.21 3.89,-0.89 10.72,-3.1 13.83,-4.53 3.08,-1.45 9.25,-5.34 12.28,-7.67 2.95,-2.3 7.69,-7.23 10.36,-10.7 4.74,-6.24 7.54,-14.17 8.39,-17.95 -2.04,1.96 -7.3,6.91 -10.34,9.02 -3.05,2.11 -9.91,5.58 -12.63,6.92"
       fill="none"
       stroke="#000000"
       stroke-width="14.17"
       stroke-opacity="1"
       stroke-linejoin="round"
       id="path58" />
    <path
       d="m 567.47,1210.29 c 11.42,4.4 20.97,8.29 26.55,12.45 2.75,2.07 8.97,9.26 9.8,10.37 2.36,3.2 4.73,8.49 5.78,12.11 1.99,7.08 2.82,20.33 2.32,26.56 -0.33,3.73 -1.72,9.74 -3.11,13.39 -2.59,6.66 -11.62,19.94 -16.79,25.8 -2.84,3.2 -7.42,7.49 -10.3,9.66 -3.02,2.23 -8.19,5.05 -11.81,6.25 -6.33,2.03 -15.3,1.73 -18.17,1 -1.45,-0.41 -3.72,-2.09 -4.68,-3.62 -0.92,-1.54 -1.75,-4.86 -1.82,-6.88 -0.05,-4.17 1.54,-10.11 3.45,-13.88 1.81,-3.5 5.94,-9.06 8.92,-12.25 5.54,-5.83 17.59,-15.13 23.37,-18.64 5.87,-3.53 21.07,-10.05 28.14,-12.2 7.07,-2.12 21.57,-5.24 29.14,-6.16 9.42,-1.03 23.56,-1.83 29.82,-1.35 4.57,0.38 10.53,2.01 13.95,3.81 2.95,1.59 8.02,6.13 9.66,8.38 1.63,2.29 4.19,8.33 4.75,11.63 0.87,5.33 0.93,19.29 0.08,25.67 -0.48,3.57 -1.78,9.22 -2.7,11.83 -1.01,2.78 -4.16,8.87 -6.82,13.22 -3.58,5.69 -4.41,6.54 -6.18,7.78 -2.19,-2.83 -4.27,-8.53 -4.98,-13.46 -0.21,-1.63 -0.56,-4.35 -0.69,-5.42"
       fill="none"
       stroke="#000000"
       stroke-width="14.17"
       stroke-opacity="1"
       stroke-linejoin="round"
       id="path60" />
    <path
       d="m 680.33,1181.94 c 3.38,10.45 8.08,23.07 11.36,25.1 1.35,0.77 2.48,1.13 3.37,1.05 0.58,-0.06 1.22,-0.61 1.94,-1.67 0.18,-0.26 0.68,-1.08 1.5,-2.46"
       fill="none"
       stroke="#000000"
       stroke-width="14.17"
       stroke-opacity="1"
       stroke-linejoin="round"
       id="path62" />
    <path
       d="m 772.44,1190.61 c 3.87,13.73 14.66,49.41 17.43,57.02 2.55,7 9.21,21.24 13.57,27.79 2.79,4.16 14.72,18.49 18.84,22.31 4.69,4.32 16.44,12.71 22.97,16.39 6.51,3.63 15.28,5.13 23.19,6.26 -4.07,0.21 -8.78,0.22 -11.76,-1.1 -2.77,-1.29 -4.56,-5.05 -5.1,-6.57"
       fill="none"
       stroke="#000000"
       stroke-width="14.17"
       stroke-opacity="1"
       stroke-linejoin="round"
       id="path64" />
    <path
       d="m 858.71,1183.27 c 2.4,10.26 3.96,22.26 3.25,29.32 -0.68,6.49 -5.16,21.05 -8.76,28.39 -3.04,6.15 -14.41,24.21 -16.06,26.52 -4.44,6.22 -15.63,16.65 -19.13,18.85 -2.74,1.7 -9.25,4.14 -12.3,4.61 -3.42,0.48 -9.2,0.28 -12.34,-0.44 -2.99,-0.73 -8.53,-4.05 -10.55,-6.09 -1.92,-1.99 -5.19,-7.62 -5.97,-10.54 -0.8,-3.1 -1.17,-8.68 -0.82,-12.09 0.34,-3.06 2.47,-9.6 3.87,-12.14 1.55,-2.74 6.35,-8.59 8.84,-10.86 5.3,-4.75 17.98,-12.1 25.18,-15 7.68,-3.06 19.56,-6.4 27.26,-7.63 6.24,-0.97 23.67,-0.76 28.1,0.69 4.98,1.65 21.61,10.87 26.57,14.28 3.77,2.63 8.55,6.75 11.23,9.5 2.47,2.58 6.5,8.59 7.25,10.94 0.41,1.32 0.75,3.75 0.81,5.08 -3.15,-0.54 -7.89,-2.97 -12.71,-6.65 -0.74,-0.56 -1.47,-1.12 -2.21,-1.69"
       fill="none"
       stroke="#000000"
       stroke-width="14.17"
       stroke-opacity="1"
       stroke-linejoin="round"
       id="path66" />
    <path
       d="m 961.2,1199.29 c 9.46,1.37 18.58,2.23 27.86,2.5 15.29,0.35 36.06,-3.36 40.09,-4.09 -4.89,3.36 -17.3,11.95 -24.83,17.17 -7.27,5.24 -21.14,16.86 -26.15,22.83 -2.13,2.55 -6.67,9.58 -7.69,11.3 -2.06,3.56 -4.79,9.17 -5.32,12.08 -0.5,2.87 -0.77,10.43 -0.8,12.02 0.01,4.1 1.65,9.94 4.02,13.12 2.23,2.92 8.15,6.62 11.51,8.01 3.31,1.33 10.32,2.83 14.4,3.26 6.63,0.67 22.51,-1.05 26.78,-2.87 4.37,-1.91 14.36,-9.34 16.5,-10.94 0,0 -12.81,0.52 -12.81,0.52"
       fill="none"
       stroke="#000000"
       stroke-width="14.17"
       stroke-opacity="1"
       stroke-linejoin="round"
       id="path68" />
    <path
       d="m 1042.93,1163.93 c 4.76,2.88 9.42,6.66 9.88,8.53 0.27,1.22 0.63,4.58 1.36,6.18 0.31,0.66 0.61,1.31 0.92,1.97"
       fill="none"
       stroke="#000000"
       stroke-width="14.17"
       stroke-opacity="1"
       stroke-linejoin="round"
       id="path70" />
    <path
       d="m 1072.76,1151.25 c 3.43,1.67 9.32,6.38 11.15,9.28 0.96,1.58 1.23,3.01 1.18,5.56 -0.02,0.48 -0.02,1.1 0,1.84"
       fill="none"
       stroke="#000000"
       stroke-width="14.17"
       stroke-opacity="1"
       stroke-linejoin="round"
       id="path72" />
    <path
       d="m 1140.87,1169.6 c 10.38,3.61 19.85,7.38 27.36,11.87 3.18,1.92 16.15,10.74 19.99,14.06 -1.51,0.04 -5.58,0.12 -6.97,0.09 -1.39,-0.04 -3.87,-0.25 -5.35,-0.41"
       fill="none"
       stroke="#000000"
       stroke-width="14.17"
       stroke-opacity="1"
       stroke-linejoin="round"
       id="path74" />
    <path
       d="m 1238.82,1154.25 c -2.53,1.39 -17.87,10.51 -24.52,16.59 -5.18,4.78 -17.77,18.85 -19.75,21.36 -4.42,5.6 -10.45,17.21 -13.19,23.98 -2.66,6.68 -5.32,20.72 -5.14,26.72 0.16,3.68 1.97,9.68 4.22,12.79 2.16,2.89 7.76,6.82 10.8,8.3 3.08,1.45 9.59,3.25 13.54,3.92 5.69,0.94 23.57,0.96 28.68,-0.66 9.15,-2.96 12.9,-6.36 14.6,-8.5 0,0 -13.4,2.96 -13.4,2.96"
       fill="none"
       stroke="#000000"
       stroke-width="14.17"
       stroke-opacity="1"
       stroke-linejoin="round"
       id="path76" />
    <path
       d="m 1306.92,1153.92 c 11.93,-2.69 23.21,-5 29.67,-5.24 3.15,-0.1 9.99,0.5 13.18,1.38 2.84,0.81 9.86,4.1 13.08,6.13 7.25,4.64 19.38,15.63 23.67,20.96 2.47,3.1 6.16,8.73 7.42,11.57 1.04,2.38 3.02,8.88 3.34,12.45 0.33,3.8 0.24,10.28 -0.11,12.51 -0.68,4.07 -9.81,20.01 -14.31,26.25 -4.95,6.81 -23.66,26.45 -27.94,31.74 0,0 18.09,-17.27 18.09,-17.27"
       fill="none"
       stroke="#000000"
       stroke-width="14.17"
       stroke-opacity="1"
       stroke-linejoin="round"
       id="path78" />
    <path
       d="m 1344.55,1093.21 c 0,0 45.24,31.02 45.24,31.02"
       fill="none"
       stroke="#000000"
       stroke-width="14.17"
       stroke-opacity="1"
       stroke-linejoin="round"
       id="path80" />
    <path
       d="m 1541.08,1085.87 c 4.03,1.06 17.78,5.91 25.71,8.74 9.42,3.62 22.26,9.39 29.86,13.4 20.43,11.17 24.08,15.57 24.87,17.05 -1.7,3.37 -10.76,10.22 -11.92,11.09"
       fill="none"
       stroke="#000000"
       stroke-width="14.17"
       stroke-opacity="1"
       stroke-linejoin="round"
       id="path82" />
    <path
       d="m 1570.27,1203.29 c 4.03,2.1 21.07,7.74 26.53,8.98 6.64,1.49 22,3.03 27.76,2.47 3.38,-0.34 9.09,-1.47 12.21,-2.49 2.66,-0.88 7.36,-3.4 9.23,-4.46 0,0 -6.32,-0.16 -6.32,-0.16"
       fill="none"
       stroke="#000000"
       stroke-width="14.17"
       stroke-opacity="1"
       stroke-linejoin="round"
       id="path84" />
    <path
       d="m 1646.81,1079.19 c 2.84,2.42 10.75,9.02 11.68,9.18 1.08,0.16 1.86,-1.32 1.94,-2.84"
       fill="none"
       stroke="#000000"
       stroke-width="14.17"
       stroke-opacity="1"
       stroke-linejoin="round"
       id="path86" />
    <path
       d="m 1668.87,1052.84 c 1.06,3.11 3.7,10.87 5.28,15.51 2.02,6.21 2.65,8.86 2.5,11.24 -0.02,0.3 -0.02,0.93 0,1.92"
       fill="none"
       stroke="#000000"
       stroke-width="14.17"
       stroke-opacity="1"
       stroke-linejoin="round"
       id="path88" />
    <path
       d="m 1751.24,1098.54 c 3.54,-0.42 8.55,-2.15 12.68,-4.61 5.23,-3.16 16.82,-11.89 23.31,-17.47 6.91,-6.12 17.56,-16.84 20.72,-21.86 0.49,-0.77 2.4,-4.17 2.97,-5.18 0,0 -21.03,9.85 -21.03,9.85"
       fill="none"
       stroke="#000000"
       stroke-width="14.17"
       stroke-opacity="1"
       stroke-linejoin="round"
       id="path90" />
    <path
       d="m 1756.43,1054.84 c 2.88,5.98 10.12,20.55 13.27,25.52 1.82,2.83 6.06,8.46 8.44,10.95 4.83,4.98 17.44,13.25 23.25,15.88 3.46,1.54 9.35,2.85 13.88,3.34 5.04,0.51 10.14,1.22 12.28,1.75 0,0 -0.41,8.28 -0.41,8.28"
       fill="none"
       stroke="#000000"
       stroke-width="14.17"
       stroke-opacity="1"
       stroke-linejoin="round"
       id="path92" />
    <path
       d="m 1757.08,1186.28 c 9.15,5.29 20.26,10.39 25.08,11.28 6,1.09 21.84,1.71 29.81,1.47 8.2,-0.27 23.43,-2.13 30.77,-4.02 2.98,-0.78 9.1,-2.65 12.71,-3.88 3.75,-1.32 9.21,-4.09 12.5,-6.68 1.35,-1.01 1.71,-1.98 1.83,-4.26 0,0 -6.13,-1.52 -6.13,-1.52"
       fill="none"
       stroke="#000000"
       stroke-width="14.17"
       stroke-opacity="1"
       stroke-linejoin="round"
       id="path94" />
    <path
       d="m 1865.41,1024.49 c 5.53,6.02 15.54,16.76 15.76,16.84 0.3,0.11 0.84,0 1.62,-0.33 0,0 1.87,-6.32 1.87,-6.32"
       fill="none"
       stroke="#000000"
       stroke-width="14.17"
       stroke-opacity="1"
       stroke-linejoin="round"
       id="path96" />
    <path
       d="m 1895.24,1008.81 c 3.12,2.5 6.81,6.1 10.11,10 1.32,1.56 2.03,3.35 2.22,5.51 0.03,0.46 0.03,1.18 0,2.17"
       fill="none"
       stroke="#000000"
       stroke-width="14.17"
       stroke-opacity="1"
       stroke-linejoin="round"
       id="path98" />
    <path
       d="m 1956.86,1064.52 c 0.85,4.62 6.16,20.27 9.66,26.73 1.9,3.48 5.98,9.91 8.24,12.92 2.35,3.11 7.42,8.35 10.74,11.04 5.81,4.64 18.89,12.17 24.51,13.9 2.84,0.85 10.14,2.19 13.53,2.27 3.88,0.05 11.44,-1.26 13.92,-2.81 1.03,-0.67 2.81,-2.46 3.89,-3.67 0,0 -7.81,0.33 -7.81,0.33"
       fill="none"
       stroke="#000000"
       stroke-width="14.17"
       stroke-opacity="1"
       stroke-linejoin="round"
       id="path100" />
    <path
       d="m 2023.03,1036.16 c 3.53,-0.76 7.14,-1.33 11.9,-1.77 4.79,-0.42 12.19,-0.06 16.77,0.7 3.92,0.67 11.71,2.62 14.79,3.78 5,1.92 15.86,8.62 25.79,15.18 8.62,5.85 20.73,14.78 25.65,19.74 1.64,1.67 6.39,7.15 7.59,9.63 0.03,0.07 1.28,4.07 1.29,4.45 -0.05,1.94 -0.95,3.48 -2.48,4.06 -5.26,1.83 -11.84,0.95 -13.09,0.75"
       fill="none"
       stroke="#000000"
       stroke-width="14.17"
       stroke-opacity="1"
       stroke-linejoin="round"
       id="path102" />
    <path
       d="m 2175.46,997.8 c 5.77,-2.65 19.96,-9.14 26.8,-11.59 6.87,-2.44 20.35,-5.35 27.52,-6.84 15.67,-3.04 32.45,-6.29 33.57,-6.51 -7.74,3.03 -15.07,6.35 -25.4,11.61 -3.68,1.94 -9.74,5.13 -12.12,6.39"
       fill="none"
       stroke="#000000"
       stroke-width="14.17"
       stroke-opacity="1"
       stroke-linejoin="round"
       id="path104" />
    <path
       d="m 2187.13,1032.49 c 7.5,-0.03 25.83,-0.24 32.15,-0.77 7.79,-0.67 20.12,-3.11 26.9,-5.92 2.38,-0.99 9.46,-4.18 9.71,-4.98 0,0 -6.52,0 -6.52,0"
       fill="none"
       stroke="#000000"
       stroke-width="14.17"
       stroke-opacity="1"
       stroke-linejoin="round"
       id="path106" />
    <path
       d="m 2185.19,955.43 c 9,10.59 31.67,37.81 39.14,47.83 5.68,8.03 13.57,20.43 16.44,25.43 4.1,7.37 10.39,20.42 13.25,27.52 2.72,6.79 7.35,21.68 8.73,30.43 0.39,2.47 1.44,11.72 1.81,15.13 0.37,3.53 0.12,10.92 -0.73,13.29 -0.87,2.3 -4.72,7.48 -7.79,9.37 -3.32,1.98 -9.33,4.14 -13.32,4.99 -3.74,0.78 -10.51,1.51 -14.84,1.61 -4.36,0.08 -11.34,-0.53 -15.17,-1.3 -3.96,-0.84 -9.52,-2.9 -12.77,-4.92 -1.58,-1.01 -3.05,-2.26 -4.41,-3.73 -0.97,-1.09 -1.9,-3.66 -1.75,-4.86 0.18,-1.08 4.72,-3.36 7.98,-4.03 2.86,-0.57 19.7,-1.27 28.23,-1.35 12.92,0.18 48.12,2.13 65.57,2.81 8.41,0.1 19.3,0.22 21.79,0.24 0,0 -19.3,3.33 -19.3,3.33"
       fill="none"
       stroke="#000000"
       stroke-width="14.17"
       stroke-opacity="1"
       stroke-linejoin="round"
       id="path108" />
    <path
       d="m 2336.97,973.45 c 9.67,-0.12 16.98,-0.38 28.32,-1.8 15.14,-2.2 55.09,-9.35 62.94,-11.52 11.61,-3.25 25.71,-9.62 26.63,-10.03 -3.17,-0.07 -10.53,-0.21 -14.7,-0.29 -0.87,-0.01 -1.74,-0.03 -2.6,-0.05"
       fill="none"
       stroke="#000000"
       stroke-width="14.17"
       stroke-opacity="1"
       stroke-linejoin="round"
       id="path110" />
    <path
       d="m 2366.81,920.07 c 7.89,5.33 14.72,10.99 20.16,18.57 2.45,3.45 14.3,23.24 16.37,27.11 2.86,5.36 9.03,19.98 10.17,23.96 0.96,3.42 2.24,11.39 2.43,14.09 0.26,4.1 -0.32,11.19 -1.38,14.14 -1.18,3.18 -4.29,7.42 -7.32,10.08 -2.44,2.11 -8.12,5.86 -10.27,6.81 -2.02,0.87 -8.09,2.25 -11.57,2.32 -3.76,0.05 -10.44,-1.72 -12.58,-3.62 -1.15,-1.09 -2.35,-3.07 -2.78,-4.59 -0.63,-2.44 0.04,-10.78 0.84,-12.39 1.49,-2.9 7.8,-8.54 9.52,-9.86 3.11,-2.35 9.18,-5.41 13.1,-6.35 4.31,-0.98 10.06,-1.1 12.97,0.57 2.18,1.3 6.6,4.97 8.84,8.03 4.06,5.64 10.17,19.69 11.9,26.94 1.71,7.31 3.04,22.91 2.43,29.94 -0.37,4.02 -1.74,10.23 -3.23,13.99 -0.77,1.85 -2.56,4.94 -3.79,6.48 -2.12,2.58 -5.2,3.51 -6.39,3.75 -1.89,-2.12 -3.02,-5.41 -3.37,-9.84"
       fill="none"
       stroke="#000000"
       stroke-width="14.17"
       stroke-opacity="1"
       stroke-linejoin="round"
       id="path112" />
    <path
       d="m 2491.35,867.37 c 0.62,4.75 2.31,17.47 4.77,27.09 5.23,19.34 22.21,70.05 24.77,75.75 1.16,2.73 1.55,7.05 1.59,8.91"
       fill="none"
       stroke="#000000"
       stroke-width="14.17"
       stroke-opacity="1"
       stroke-linejoin="round"
       id="path114" />
    <path
       d="m 2539.99,1050.17 c -2.64,-3.19 -5.72,-6.62 -8.12,-7.43 -2.06,-0.64 -5.94,1.33 -7.35,3.28 -1.27,1.84 -2.48,6.12 -2.05,8.12 0.52,2.14 4.04,5.48 6.65,6.3 1.46,0.42 3.97,0.57 5.46,0.31 2.72,-0.55 7.23,-4.33 8.8,-6.88 0.84,-1.41 1.71,-3.79 1.92,-5.3 0.19,-1.59 -0.23,-3.74 -0.96,-4.76 -0.73,-0.92 -2.95,-2.13 -4.28,-2.18 -2.97,-0.03 -9,2.32 -14.34,4.54"
       fill="none"
       stroke="#000000"
       stroke-width="14.17"
       stroke-opacity="1"
       stroke-linejoin="round"
       id="path116" />
  </g>
</svg>
