<?xml version="1.0" encoding="UTF-8" standalone="no"?>
<svg
   xmlns:dc="http://purl.org/dc/elements/1.1/"
   xmlns:cc="http://creativecommons.org/ns#"
   xmlns:rdf="http://www.w3.org/1999/02/22-rdf-syntax-ns#"
   xmlns:svg="http://www.w3.org/2000/svg"
   xmlns="http://www.w3.org/2000/svg"
   xmlns:sodipodi="http://sodipodi.sourceforge.net/DTD/sodipodi-0.dtd"
   xmlns:inkscape="http://www.inkscape.org/namespaces/inkscape"
   width="630.00348"
   height="423.32574"
   viewBox="0 0 2625.0145 1763.8869"
   version="1.1"
   id="svg37"
   sodipodi:docname="crowd-of-zains.svg"
   inkscape:version="1.0.1 (3bc2e813f5, 2020-09-07)">
  <metadata
     id="metadata43">
    <rdf:RDF>
      <cc:Work
         rdf:about="">
        <dc:format>image/svg+xml</dc:format>
        <dc:type
           rdf:resource="http://purl.org/dc/dcmitype/StillImage" />
      </cc:Work>
    </rdf:RDF>
  </metadata>
  <defs
     id="defs41" />
  <sodipodi:namedview
     pagecolor="#ffffff"
     bordercolor="#666666"
     borderopacity="1"
     objecttolerance="10"
     gridtolerance="10"
     guidetolerance="10"
     inkscape:pageopacity="0"
     inkscape:pageshadow="2"
     inkscape:window-width="2560"
     inkscape:window-height="1377"
     id="namedview39"
     showgrid="false"
     inkscape:zoom="1.2376473"
     inkscape:cx="272.40667"
     inkscape:cy="243.5924"
     inkscape:window-x="1912"
     inkscape:window-y="-8"
     inkscape:window-maximized="1"
     inkscape:current-layer="svg37"
     inkscape:document-rotation="0" />
  <g
     stroke-linecap="round"
     id="crowd_outline"
     transform="translate(-618.98257,-225.01462)">
    <path
       d="m 739.36,398.67 c -3.11,0.74 -12.15,2.87 -12.91,3.17 -3.49,1.4 -12,9.03 -21.36,16.35 -6.55,4.95 -21.93,16.74 -25.15,19.63 -3.75,3.38 -13.52,16.98 -16.22,22.57 -3.57,7.48 -7.43,21.47 -8.36,28.02 -0.7,5.04 -1.51,20.25 -1.6,30.02 0.01,7.83 1.4,21.44 2.71,27.17 1.44,6.14 7.42,20.13 10.8,26.02 2.31,4 10.68,17.02 15.01,23.22 4.47,6.28 79.29,92.37 84.34,98.74 3.73,4.71 9.75,14.6 14.41,23.63 4.56,9.31 8.41,20.2 9.9,28.06 1.81,9.73 3.68,38.73 4.2,58.03 0.27,17.06 0.65,49.01 0.52,66.02 -0.22,7.31 -0.77,21.14 -1.57,27.88 -0.99,7.69 -3.63,20.83 -5.95,29.76 -2.22,7.86 -7.12,23.02 -10.12,30.4 -4.71,10.93 -18.09,37.57 -25.79,51.05 -7.26,12.17 -56.17,82.67 -73.5,108.32 -5.49,8.49 -22.84,41.84 -26.32,49.4 -3.49,7.83 -19.94,49.09 -22.66,59.01 -2.84,10.47 -3.4,18.74 -3.67,29.93 -0.09,3.3 0.1,21.86 0.34,27.34 0.24,6.73 2.18,18.33 4.39,29.4 5.37,25.28 10.14,44.5 15.25,58.16 3.52,9.36 7.36,18.03 11.6,26.21 3.17,5.95 10.33,19.17 14.52,26.08 14.06,22.02 49.99,69.12 58.6,81.19 6.96,10.26 14.49,22.54 18.06,29.62 2.82,5.77 9.5,19.81 11.3,24.86 1.97,5.6 3.93,14.32 6.2,26.37 1.08,6.19 2.24,21.54 2.22,27.05 -0.03,5.42 -1.45,23.31 -2.7,28.69 -1.21,5.13 -7.72,21.68 -11.04,29.51 -3.41,7.6 -10.06,20.99 -13.3,26.92 -5.12,8.79 -24.96,38.71 -34.03,52.07 -4.38,6.6 -13.64,21.35 -16.35,26.76 -3.08,6.19 -6.43,19.34 -7.15,26.94 -0.41,4.51 -0.8,24.86 0.15,29.63 0.61,2.93 2.38,7.81 4.16,11.51 1.79,3.68 4.98,8.39 7.82,11.62 4.33,4.88 15.27,14.09 20.49,17.6 6.87,4.59 18.19,10.62 25.3,13.6 5.72,2.39 18.96,6.59 26.83,8.54 4.2,1.01 20.47,3.81 27.64,4.75 7.82,0.94 38.95,2.24 57.72,2.22 7.73,-0.17 21.2,-0.79 31.08,-1.62 19.58,-2.03 45.67,-5.85 59.37,-8.68 10.41,-2.33 44.1,-11.32 56.63,-14.79 15.13,-4.24 46.72,-12.62 63.93,-16.55 15.32,-3.19 46.21,-8.73 62.06,-11.41 31.24,-4.77 96.14,-14.57 129.81,-19.59 13.35,-1.85 48.45,-6.24 59.65,-7.13 16.6,-1.11 46.29,-1.97 54.9,-1.77 7.53,0.23 23.24,0.79 30.99,1.23 7.65,0.54 20.8,2.18 29.31,3.62 13.57,2.58 49.56,11.05 60.82,14.09 15.43,4.43 41.85,13.93 59.71,21.34 14.68,6.53 45.69,21.93 56.2,27.72 13.96,7.98 37.32,23.42 53.45,35.13 15.2,11.23 27.17,21.09 45.63,34.55 9.36,6.57 18.39,12.33 24.16,15.11 7.95,3.8 19.58,7.33 27.08,8.26 2.84,0.34 10.75,0.69 13.29,0.5 2.85,-0.24 11.39,-2.07 13.95,-2.92 5.47,-1.86 14.92,-7.51 22.78,-12.84 28.43,-19.54 97.67,-67.05 112.58,-76.66 5.17,-3.24 34.29,-18.48 47.95,-25.47 7.01,-3.37 21.41,-9.5 28.56,-12.32 9.75,-3.61 21.98,-7.42 29.63,-9.55 10.41,-2.65 22.29,-4.94 29.74,-6.17 10.17,-1.46 20.66,-2.44 27.26,-2.91 12.59,-0.55 47.49,-0.1 64.26,0.6 15.28,0.96 46.65,4.89 61.61,7.32 18.34,3.43 98.84,20.83 120.1,24.8 16.62,2.76 49.7,7.16 62.96,8.6 10.52,1.05 23.47,1.06 30.71,0.62 1.88,-0.11 23.4,-2.05 29,-3.26 7.3,-1.61 18.54,-6.47 28.46,-11.37 14.73,-7.63 43.93,-22.6 56.01,-27.69 17.49,-6.88 38.59,-13.58 56.24,-17.99 10.4,-2.42 43.81,-8.46 59.38,-10.25 14.94,-1.5 46.83,-3.84 62,-4.42 14.69,-0.19 44.84,-0.13 60.53,-0.18 17.07,-0.38 55,-1.55 64.3,-2.24 8.27,-0.69 22.34,-3.92 26.17,-5.08 10.73,-3.37 21.62,-7.58 28.24,-11.46 6.33,-3.76 18.3,-12.83 24.56,-18.95 6.1,-5.99 14.99,-16.53 19.73,-23.13 5.78,-8.32 10.17,-15.37 15.08,-24.16 4.7,-8.94 8.37,-16.73 12.6,-26.86 3.89,-9.98 8.31,-23.34 9.97,-29.01 2.01,-7.27 5.37,-23.33 6.2,-29.67 0.93,-7.33 1.65,-28.85 1.6,-31.93 -0.16,-7.72 -3.06,-22.99 -5.19,-29.77 -1.39,-4.37 -7.11,-17.9 -11.68,-26.39 -8.89,-15.83 -17.19,-28.33 -31.95,-48.52 -10.47,-14.09 -32.85,-44.93 -39.19,-54.63 -5.9,-9.19 -13.54,-23.88 -16.55,-32.19 -2.11,-5.99 -5.68,-16.58 -6.66,-24.36 -0.52,-4.36 -0.55,-20.54 0.94,-28.25 0.71,-3.56 3.3,-11.14 4.9,-14.62 2.86,-6.12 11.66,-18.33 17.19,-24.4 4.64,-4.98 13.23,-12.93 21.35,-19.54 14.93,-11.52 32.92,-24.45 49.18,-34.02 13.79,-7.83 42.2,-23.63 56.82,-31.59 14.82,-7.61 42.97,-21.94 56.31,-28.64 13.8,-7.26 44.63,-24.14 55.33,-30.69 14.16,-8.99 47.94,-31.74 53.65,-36.63 4.18,-3.6 11.56,-11.47 19.04,-20.06 7.39,-8.73 11.8,-14.61 16.46,-22.73 4.12,-7.82 7.26,-17.46 9.44,-27.06 2.05,-9.1 3.41,-24.01 3.19,-32.17 -0.22,-7.69 -2.59,-23.03 -4.43,-29.81 -1.89,-6.88 -7.54,-20.4 -10.94,-26.97 -3.83,-7.37 -9.98,-17.24 -16.2,-26.3 -7.28,-10.2 -28.5,-36.97 -37.39,-47.32 -9.72,-10.83 -32.27,-34.27 -42.97,-45.16 -12.01,-11.96 -35.22,-35.45 -45.47,-46.36 -12.69,-14.06 -31.93,-38.37 -39.63,-48.68 -4.97,-6.83 -11.56,-17.04 -15.96,-24.77 -4.37,-8.18 -10.15,-21.34 -11.84,-25.69 -3.11,-8.01 -6.55,-20.9 -7.76,-29.56 -1.17,-8.52 -1.5,-22.57 -0.76,-31.18 0.77,-8.64 3.58,-22.32 6.36,-31.04 3.48,-10.36 7.46,-20.57 10.32,-26.67 3.48,-7.4 25.44,-46.81 30.66,-56.98 4.57,-9.34 9.41,-21.66 12.25,-31.65 0.82,-2.91 2.3,-8.11 3.19,-12.05 0.82,-3.68 0.03,-25.35 -0.45,-28.66 -0.7,-4.6 -3.44,-10.62 -5.32,-13.81 -2.77,-4.66 -5.57,-8.84 -7.42,-11.17 -2.79,-3.45 -16.45,-15.3 -22.84,-20.49 -5.15,-4.08 -13.66,-9.76 -22.92,-15.23 -12.76,-7.14 -40.31,-22.28 -55.18,-29.98 -22.03,-10.93 -69.87,-32.96 -71.11,-33.81 -2.28,-1.61 -6.56,-6.52 -8.96,-10.05 -4.35,-6.9 -11.5,-18 -13.53,-19.84 -1.12,-1 -8.09,-3.07 -11.76,-3.82 -4.24,-0.84 -10.3,-1.08 -15.06,-0.83 -8.36,0.48 -21.86,3.13 -30.55,5.67 -10.27,3.15 -18.28,5.96 -26.31,9.14 -8.99,3.7 -42.58,22.33 -57.59,30.83 -21.12,12.14 -29.23,16.44 -36.4,19.23 -3.6,1.38 -11.18,3.04 -14.61,3.17 -2.39,0.07 -8.92,-0.84 -12,-1.92 -4.81,-1.72 -15.63,-8.16 -23.35,-13.39 -11.58,-7.98 -38.95,-23.87 -50.13,-29.27 -5.95,-2.72 -20.39,-8.31 -26.7,-10.49 -18.64,-6.12 -45.8,-13.87 -61.65,-17.28 -15.07,-2.96 -41.87,-6.74 -59.7,-8.36 -14.9,-1.06 -45.74,-2.28 -61.66,-2.51 -10.93,-0.02 -47.02,1.36 -61.63,2.4 -16.55,1.7 -38.9,5.1 -61.03,9.29 -32.46,6.55 -109.41,21.76 -129.1,24.58 -16.02,1.97 -40.31,3.01 -59.65,2.2 -7.66,-0.48 -23.61,-2.01 -30.29,-3.5 -5.49,-1.25 -20.92,-7.01 -27.89,-10.27 -9.73,-4.74 -19.79,-10.28 -26.7,-14.91 -9.97,-6.84 -36.15,-29.28 -45.51,-36.77 -11.24,-8.76 -16.02,-12.06 -18.44,-12.75 -3.13,-0.86 -8.8,-1.48 -11.54,-1.78 -6.96,-0.64 -20.54,2.29 -30.08,5 -15.75,5.08 -47.43,14.99 -63.31,19.4 -15.7,3.96 -46.2,10.62 -61.99,13.01 -21.01,2.68 -45.62,4.51 -60.5,4.86 -10.59,0.06 -22.49,-0.49 -30.16,-1.02 -17.8,-1.52 -44.14,-5.58 -55.39,-8.51 -13.52,-3.8 -48.1,-14.73 -64.26,-19.94 -15.67,-4.99 -54.37,-16.89 -64.07,-19.11 -4.38,-0.99 -19.47,-3.15 -26,-4.01 -14.6,-1.42 -46.82,-3.57 -61.54,-3.9 -15.06,-0.12 -39.41,0.28 -61.27,1.6 -19.75,1.67 -45.85,5.21 -60.83,7.75 -14.91,2.96 -45.22,10.34 -60.2,14.44 -14.26,4.25 -42.67,12.87 -57.62,17.16 -15.77,4.19 -55.04,13.49 -63.61,15.03 -4.91,0.88 -20.68,2.79 -27.36,3.27 -13.92,0.77 -47.02,0.68 -59.2,-0.63 -11.06,-1.21 -52.33,-10.45 -56.06,-10.32 -2.66,0.12 -7.84,1.81 -9.67,3.48 -2.29,2.18 -10.38,19.07 -13.89,26.53 -2.3,4.64 -5.84,11.19 -7.65,13.56 -1.51,1.94 -6.11,6.77 -8.72,9.1 -3.2,2.82 -7.9,5.92 -12.34,7.99 -3.3,1.51 -9.3,3.59 -13.89,4.22 -2.61,0.35 -23.66,1.83 -26.75,2.59 -2.65,0.68 -9.44,3.52 -11.85,4.75 -3.51,1.85 -8.04,5.47 -11.02,8.7 -3.4,3.72 -7.79,8.89 -9.87,11.9 -2.26,3.32 -5.07,9.16 -6.62,13.93 -2.49,7.71 -9.51,20.77 -12.46,23.4 -4.23,3.7 -15.4,10.15 -17.4,10.62 -2.21,0.47 -4.78,0.14 -6.77,-0.88 -2.9,-1.54 -9.77,-6.13 -11.72,-7.82 -4.51,-3.97 -11.59,-15.91 -13.28,-17.6 -0.64,-0.61 -4.59,0.21 -10.08,1.81 -3.99,1.19 -10.65,3.18 -13.32,3.98"
       fill="none"
       stroke="#000000"
       stroke-width="14.17"
       stroke-opacity="1"
       stroke-linejoin="round"
       id="path2" />
    <path
       d="m 1020.22,669.21 c -0.9,-5.16 -3.19,-18.38 -4.58,-26.44 -1.25,-8.51 -3.15,-25.19 -3.69,-34.32 -0.31,-6.82 -0.38,-23.68 -0.36,-30.26 0.02,-3.02 0.58,-9.23 1.36,-11.65 1,-2.97 10.55,-23.41 12.61,-27.11 2,-3.53 5.1,-6.63 7.31,-7.15 1.09,-0.22 3.22,0.28 4.11,0.94 2.11,1.69 6.65,12.18 10.65,22.81 3.55,9.82 8.37,25.23 9.99,32.14 1.73,7.44 6.21,36.94 7.08,43.7 0.5,3.71 1.21,7.74 2.51,8.28 0.21,-0.98 0.78,-3.65 0.96,-4.62 0.19,-0.98 0.57,-3.21 0.7,-4.01"
       fill="none"
       stroke="#000000"
       stroke-width="14.17"
       stroke-opacity="1"
       stroke-linejoin="round"
       id="path4" />
    <path
       d="m 1096.76,633.52 c 0.19,-6.61 -1.87,-45.48 -2.51,-61.35 -0.3,-12.34 0.55,-24.14 1.65,-30.64 0.66,-3.87 2.34,-11.08 3.41,-14.32 1.14,-3.32 4.34,-6.63 7.36,-8 2.25,-0.97 8.06,-2.34 11.3,-1.93 2.09,0.31 4.9,1.33 6.41,2.39 3.05,2.21 12.74,17.04 14.79,22.01 6.92,16.9 21.15,68.97 22.53,71.79 0,0 -0.72,-13.31 -0.72,-13.31"
       fill="none"
       stroke="#000000"
       stroke-width="14.17"
       stroke-opacity="1"
       stroke-linejoin="round"
       id="path6" />
    <path
       d="m 1046.82,1241.32 c -2.68,-13.52 -8.54,-45.17 -10.29,-62.41 -0.99,-13.16 -1.33,-42.79 -1.23,-43.67 0.43,-3.43 2.96,-9.97 4.44,-11.82 0.89,-1.05 2.17,-1.85 3.24,-1.95 2.11,-0.11 8.55,2.84 10.68,4.44 4.2,3.19 11,13.85 16.24,23.19 4.46,8.22 10.43,21.61 12.59,28.8 1.61,5.37 11.31,45.62 13.19,50.19 0.14,-1.05 0.54,-3.91 0.66,-5.02 0.12,-1.1 0.35,-3.79 0.42,-4.77"
       fill="none"
       stroke="#000000"
       stroke-width="14.17"
       stroke-opacity="1"
       stroke-linejoin="round"
       id="path8" />
    <path
       d="m 1130.49,1217.3 c -3.73,-14.72 -12.43,-50.63 -13.46,-57.54 -1.08,-7.4 -1.77,-22.51 -1.17,-28.8 0.36,-3.72 1.6,-10.43 2.56,-13.68 1.01,-3.29 3.96,-9.23 6.26,-12.65 2.88,-4.12 6.63,-8.11 9.06,-8.92 1.25,-0.39 3.81,-0.16 4.99,0.39 3.13,1.56 9.06,10.09 14.6,19.52 5.63,9.88 11.74,22.07 14.67,29.44 4.56,11.58 17.62,61.93 17.89,63.01 0.02,-1.47 0.05,-5.4 0.02,-6.69 -0.03,-1.3 -0.18,-3.48 -0.28,-4.76"
       fill="none"
       stroke="#000000"
       stroke-width="14.17"
       stroke-opacity="1"
       stroke-linejoin="round"
       id="path10" />
    <path
       d="m 1002.71,1664.97 c -0.12,-3.06 -5.27,-39.65 -7.27,-54.93 -0.81,-7.31 -1.97,-21.87 -2.32,-29.91 -0.15,-8.03 0.06,-26.28 0.18,-28.66 0.39,-7 3.23,-20.9 5.24,-26.23 2.05,-5.34 12.02,-22.63 15.84,-26.24 2.26,-2.09 8.02,-4.29 12.31,-4.91 3.13,-0.41 8.84,0.99 10.68,2.63 2.36,2.18 6.14,8.82 7.4,11.17 3.78,7.14 9.57,20.23 12.26,26.85 2.99,7.75 7.08,20.76 8.75,27.25 1.94,7.57 3.08,16.75 3.75,27.76 0.61,11.88 1.38,18.4 2.79,22.8 0,0 1.09,-4.95 1.09,-4.95"
       fill="none"
       stroke="#000000"
       stroke-width="14.17"
       stroke-opacity="1"
       stroke-linejoin="round"
       id="path12" />
    <path
       d="m 1116.87,1621.27 c -0.04,-5.79 -0.24,-22.85 -0.55,-28.2 -0.65,-8.97 -2.7,-25.08 -3.04,-28.34 -0.68,-6.72 -1.35,-24.08 -1.46,-32.47 0.04,-8.57 0.27,-28.5 0.35,-29.49 0.36,-4.27 2.04,-10.94 2.99,-13.55 1.22,-3.19 3.83,-6.92 6.77,-10.01 3,-3.08 7.5,-6.23 11,-7.34 1.88,-0.57 4.29,-1 6.26,-1.12 2.15,-0.09 4.98,0.42 6.71,1.24 2.26,1.14 8.44,7.25 10.54,10.6 2.39,3.89 7.79,19.89 9.24,26.2 3.21,15.42 9.83,47.96 12.7,63.86 2.59,16.44 4.86,40.2 5.5,42.34 0,0 1.1,-18.4 1.1,-18.4"
       fill="none"
       stroke="#000000"
       stroke-width="14.17"
       stroke-opacity="1"
       stroke-linejoin="round"
       id="path14" />
    <path
       d="m 1670.81,1585.58 c 0.39,-6.28 1.36,-21.85 2.08,-30.66 1.01,-10.17 3.55,-24.37 5.74,-31.4 2.22,-7.02 7.66,-18.9 12.49,-27.55 10.9,-18.89 21.97,-32.26 22.67,-32.73 2.28,-1.49 4.92,-1.87 7.61,-1.14 3.46,1.05 6.99,4.06 9.63,7.02 0.68,0.78 5.86,6.94 8.41,12.24 2.34,4.93 8.25,22.39 10.7,30.16 3.01,10.02 5.79,21.83 6.79,26.11 0.32,-1.6 1.17,-5.88 1.41,-7.25 0.24,-1.37 0.54,-3.58 0.69,-4.84"
       fill="none"
       stroke="#000000"
       stroke-width="14.17"
       stroke-opacity="1"
       stroke-linejoin="round"
       id="path16" />
    <path
       d="m 1819.35,1517.2 c -0.65,-8.25 -0.34,-18.65 1.05,-26.43 0.71,-3.83 2.96,-11.99 4.21,-15.34 1.5,-3.95 5.08,-10.34 7.53,-13.43 2,-2.49 7.5,-8.06 10.36,-10.19 2.63,-1.93 9.22,-5.42 12.78,-6.38 4.17,-1.07 9.31,-1.24 11.54,-0.09 3.08,1.68 6.15,4.69 8.63,8.42 3.25,4.99 6.24,13.41 9.13,23.83 2.9,11.17 5.2,21.97 6.89,32.21 2.05,15.12 4.64,57.56 5.56,63.11 0.07,0.4 0.64,3.47 0.79,4.33 0.93,-3.01 1.46,-7.56 1.37,-12.46 -0.04,-3.35 -0.06,-7.79 -0.05,-8.89"
       fill="none"
       stroke="#000000"
       stroke-width="14.17"
       stroke-opacity="1"
       stroke-linejoin="round"
       id="path18" />
    <path
       d="m 2394.05,1525.87 c 1.44,-5.68 5.54,-21.92 7.62,-28.24 2.77,-8.31 9.02,-22.08 13.85,-30.63 5.16,-8.86 11.17,-17.88 16.15,-21.86 1.93,-1.51 8.56,-5.9 11.86,-6.62 1.97,-0.39 4.79,-0.02 6.72,0.84 2.95,1.4 7.04,5.38 9.15,8.7 3.96,6.32 9.99,20.5 11.57,27.71 1.43,6.57 2.91,16.66 4.16,26.73 -0.09,-2.97 -0.32,-10.33 -0.46,-14.73 -0.06,-1.72 -0.15,-4.69 -0.19,-5.93"
       fill="none"
       stroke="#000000"
       stroke-width="14.17"
       stroke-opacity="1"
       stroke-linejoin="round"
       id="path20" />
    <path
       d="m 2508.86,1492.51 c 13.22,-19.82 21.7,-31.41 26.6,-36.7 4.31,-4.61 18.72,-14.96 22.58,-16.82 1.62,-0.75 3.72,-1.46 5.89,-1.97 2.35,-0.51 4.74,-0.41 6.65,0.31 1.82,0.73 3.7,1.97 4.85,3.17 2,2.19 4.38,6.28 6.31,10.16 3.66,7.74 7.43,19.57 10.3,30.59 3.57,15.48 7.38,32.07 7.63,33.17 0,0 -5.84,-12.9 -5.84,-12.9"
       fill="none"
       stroke="#000000"
       stroke-width="14.17"
       stroke-opacity="1"
       stroke-linejoin="round"
       id="path22" />
    <path
       d="m 1872.54,1066.18 c 2.42,-5.88 8.46,-20.41 12.81,-27.35 4.04,-6.37 12.97,-16.33 19.66,-22.91 5.51,-5.34 16.52,-14.47 22.08,-18.3 2.95,-2.01 9.39,-5.47 13.51,-7.12 4.8,-1.88 9.19,-3.03 11.4,-2.71 0.85,0.15 3.73,1.32 4.38,1.84 1.46,1.23 3.64,6.61 5.24,11.5 2.82,8.95 5.69,22.17 6.72,30.97 1.02,9.35 0.84,20.05 0.85,20.93 -0.43,-3.41 -1.41,-10.92 -1.95,-15.03 -0.5,-3.57 -1.16,-7.37 -1.29,-8.18"
       fill="none"
       stroke="#000000"
       stroke-width="14.17"
       stroke-opacity="1"
       stroke-linejoin="round"
       id="path24" />
    <path
       d="m 2008.76,1041.17 c 6.78,-9.41 31.22,-41.27 35.02,-45.71 4.41,-5.1 9.05,-9.34 11.03,-9.84 1.53,-0.33 4.15,0.1 6.15,0.97 2.85,1.29 7.5,5.69 9.42,8.12 0.63,0.82 5.4,7.98 6.65,10.18 3.36,6.03 6.3,17.21 8.22,27.7 2.05,11.58 2.78,16.91 3.29,21.39 0,0 -4.54,-12.15 -4.54,-12.15"
       fill="none"
       stroke="#000000"
       stroke-width="14.17"
       stroke-opacity="1"
       stroke-linejoin="round"
       id="path26" />
    <path
       d="m 2477.08,669.55 c 2.06,-2.82 10.45,-16.98 14.87,-24.11 3.42,-5.29 13.65,-19.81 18.39,-26.1 6.37,-8.05 13.16,-15.87 20,-23.06 6.27,-6.35 12.23,-11.34 15.57,-13.76 2.34,-1.63 6.11,-1.94 7.54,-1.79 3.98,14.99 13.58,52.64 14.67,62.59 0.97,8.46 1.92,13.24 2.36,15.05 -2.57,-0.56 -4.17,-1.33 -5.86,-2.97 -0.64,-0.62 -1.28,-1.24 -1.92,-1.86"
       fill="none"
       stroke="#000000"
       stroke-width="14.17"
       stroke-opacity="1"
       stroke-linejoin="round"
       id="path28" />
    <path
       d="m 2604.86,670.55 c 7.75,-12.77 29.45,-48.47 31.85,-51.9 1.53,-2.15 13.84,-15.86 17.07,-18.36 1.54,-1.15 4.66,-2.69 6.44,-3.09 1.58,-0.33 3.91,-0.23 6.99,0.18 1.94,0.32 4.14,1.49 5.22,2.87 2.7,3.61 4.97,14.61 6.25,24.75 1.48,12.89 1.48,40.64 1.42,47.4 0,0 -5.84,-5.19 -5.84,-5.19"
       fill="none"
       stroke="#000000"
       stroke-width="14.17"
       stroke-opacity="1"
       stroke-linejoin="round"
       id="path30" />
    <path
       d="m 1634.49,723.26 c 1.17,-5.39 4.1,-18.85 6.09,-27.29 2.64,-10.08 7.08,-24.32 9.83,-32.1 2.63,-6.85 9.14,-23.31 11.16,-27.06 2.05,-3.78 11.82,-17.04 15.46,-20.39 3.33,-3 9.45,-6.99 12.43,-7.67 1.62,-0.33 4.72,0.16 6.16,0.92 1.71,0.96 6.3,6.6 8.21,9.93 3.89,6.94 9.24,20.25 11.25,26.43 2.29,7.08 3.94,16.3 5.13,26.64 0.72,7.47 2.04,21.88 2.33,28.57 -0.44,-3.31 -1.54,-11.51 -2.19,-16.41 -0.26,-1.91 -0.7,-5.22 -0.89,-6.61"
       fill="none"
       stroke="#000000"
       stroke-width="14.17"
       stroke-opacity="1"
       stroke-linejoin="round"
       id="path32" />
    <path
       d="m 1779.78,699.9 c -1.28,-6.92 -4.05,-22.93 -5.02,-30 -1.21,-10.14 -2.08,-22.42 -2.06,-30.53 0.04,-6.95 1.31,-26.22 2.69,-30.13 0.82,-2.26 3.73,-8.13 5.8,-11.58 1.9,-3.12 6.77,-8.01 8.49,-9.01 3.28,-1.85 9.47,-2.72 12.4,-2.27 2.76,0.49 9.12,4.24 12.41,7.28 3.53,3.31 12.37,15.4 16.12,22.5 3.64,6.96 8.33,22.06 9.9,29.08 1.75,8.05 2.61,42.12 2.84,53.41"
       fill="none"
       stroke="#000000"
       stroke-width="14.17"
       stroke-opacity="1"
       stroke-linejoin="round"
       id="path34" />
  </g>
  <path
     style="fill:#f8ed9e;fill-opacity:1;stroke:#f8ed9e;stroke-width:3.36666;stroke-opacity:1"
     d="m 1127.8878,1744.2691 c -16.1674,-5.7774 -27.6634,-13.1629 -73.6702,-47.329 -91.02526,-67.5983 -192.16167,-105.3317 -291.58825,-108.7901 -52.66226,-1.8317 -80.67607,0.7595 -193.95105,17.9404 -99.24796,15.0533 -115.5179,18.2624 -185.77875,36.6433 -70.85094,18.5352 -113.52083,25.3373 -159.10893,25.3637 -62.45921,0.037 -107.64368,-13.2051 -135.506566,-39.7105 l -14.470451,-13.7653 1.216562,-27.9604 c 1.332855,-30.6346 -1.864448,-23.7763 45.037635,-96.6074 31.89999,-49.5353 41.95504,-85.9534 35.54539,-128.7411 -5.04767,-33.6959 -22.82435,-68.4707 -62.592848,-122.4445 -54.383247,-73.8089 -76.100487,-130.6998 -76.423618,-200.201 -0.134169,-28.8728 1.040143,-35.1664 11.68678,-62.62809 17.708923,-45.67793 26.254691,-60.92019 72.357256,-129.05688 43.99637,-65.0238 67.62005,-109.16021 76.76067,-143.41282 7.04874,-26.41391 9.76849,-100.45757 5.58251,-151.98139 -4.49004,-55.26576 -10.9626,-67.71481 -72.75439,-139.9319 -60.687272,-70.92623 -67.40576,-84.13649 -65.357434,-128.50949 0.947474,-20.52505 3.486559,-35.00592 7.65617,-43.66452 6.757906,-14.03328 53.612614,-55.71178 62.877054,-55.93072 3.04455,-0.072 10.40101,4.41417 16.34765,9.96915 20.03205,18.71273 41.80987,10.38522 57.2283,-21.88327 14.44428,-30.22978 24.92779,-38.7025 52.04929,-42.06602 31.29898,-3.88161 46.11315,-14.32592 59.85959,-42.202251 12.39417,-25.134031 12.48842,-25.161832 55.22722,-16.291537 51.62141,10.713847 102.64931,4.1861 210.38504,-26.913506 78.85911,-22.76392 108.10227,-27.031913 184.71585,-26.959028 36.30398,0.03458 74.67938,1.831047 85.84982,4.01898 11.10998,2.176086 48.9849,12.880758 84.1665,23.788154 38.70777,12.000635 76.59587,21.46549 95.9498,23.969303 55.8521,7.225588 126.0328,-1.063247 198.6329,-23.459932 45.9726,-14.18228 62.4118,-17.396034 71.38,-13.954343 4.2551,1.63294 21.3714,13.947122 38.0364,27.364843 33.5448,27.008429 60.7444,41.494157 88.8806,47.335217 30.6412,6.36108 89.0072,2.07567 156.8855,-11.519002 97.3612,-19.499507 120.4568,-22.399223 178.5213,-22.413794 65.1576,-0.01667 99.1388,3.832211 148.0473,16.767178 46.9396,12.414268 55.1772,15.931968 99.1677,42.347448 44.1999,26.54125 52.7496,27.47137 86.5929,9.4204 71.4164,-38.09126 92.4726,-47.677983 113.3876,-51.624358 28.7484,-5.42442 35.5459,-3.425133 47.9319,14.097708 8.7847,12.42781 17.1706,17.85197 60.4907,39.12637 68.4913,33.63596 100.3084,53.08639 118.2967,72.31742 l 15.1907,16.24007 -1.2467,24.68866 c -1.159,22.9511 -3.0709,28.32473 -27.1676,76.35508 -30.4329,60.65998 -34.1908,73.82761 -32.3081,113.20673 2.5662,53.67324 22.4438,85.49548 113.8005,182.18444 65.3348,69.14829 95.0926,106.4835 107.7832,135.22865 11.2117,25.39543 11.7274,68.38657 1.0967,91.42695 -9.7289,21.0859 -34.4196,47.02813 -63.3536,66.56487 -21.9584,14.82671 -39.0862,24.40037 -157.3913,87.97503 -52.8714,28.4119 -82.1072,48.4507 -105.6869,72.4398 -21.9653,22.3469 -29.3943,40.9996 -27.5806,69.2504 1.8429,28.7072 14.5515,54.3685 54.6768,110.4043 41.0882,57.3804 52.6987,80.3611 54.9839,108.8294 4.021,50.0938 -23.9745,122.4381 -61.714,159.4771 -32.4127,31.8112 -42.3509,34.0892 -166.1403,38.082 -135.7345,4.378 -163.8208,10.0027 -246.5348,49.372 -41.2938,19.6547 -48.7324,22.0909 -72.4067,23.7136 -33.2331,2.2778 -67.4095,-2.2741 -160.8165,-21.419 -67.5068,-13.8364 -79.9137,-15.3849 -136.5373,-17.0418 -70.4192,-2.0605 -95.754,1.4286 -140.7542,19.3839 -38.572,15.3906 -70.4467,33.7016 -130.2619,74.8311 -80.3938,55.2796 -86.4214,57.8513 -113.1794,48.2893 z M 389.81008,1444.1255 c 1.08881,-2.8374 0.12,-19.8811 -2.15304,-37.8749 -2.27299,-17.9938 -3.9979,-46.7228 -3.83314,-63.8422 0.25292,-26.2777 1.62948,-33.7508 8.83739,-47.9749 11.16498,-22.033 18.60232,-22.2552 28.68395,-0.8571 12.72583,27.0107 17.04587,41.8545 20.25871,69.6102 3.27881,28.326 6.20969,34.3991 14.97704,31.0348 16.03715,-6.1541 -15.10658,-119.2986 -35.90097,-130.4274 -3.76015,-2.0123 -11.88045,-2.7126 -18.0451,-1.5561 -8.88515,1.6669 -13.48477,5.7434 -22.18991,19.6664 -10.19768,16.3102 -11.08352,20.0764 -12.41121,52.7664 -1.52178,37.4685 4.61449,103.4011 10.2753,110.4054 4.58599,5.6744 9.10198,5.3011 11.50098,-0.9506 z m 112.69927,-108.3594 c -1.21623,-65.1287 -1.01385,-67.6912 5.89164,-74.5967 9.81267,-9.8127 16.13844,-8.9685 22.31625,2.978 5.67243,10.9693 17.02833,62.8791 23.19327,106.0205 3.33105,23.3107 4.74607,26.9333 10.52013,26.9333 10.36155,0 10.02025,-15.424 -1.6524,-74.6718 -11.37857,-57.755 -19.82621,-78.0923 -34.59529,-83.2863 -13.46681,-4.736 -30.22289,4.2628 -37.8446,20.3244 -5.46176,11.5099 -5.83922,19.0537 -3.7546,75.0402 2.23537,60.0357 4.72591,72.9609 13.48206,69.9692 2.58454,-0.8831 3.3226,-21.6371 2.44354,-68.7108 z m 559.16435,4.4463 c 1.3234,-14.5793 4.7356,-33.5211 7.5828,-42.093 6.664,-20.0635 25.6857,-49.1512 32.1422,-49.1512 6.2513,0 18.5001,24.6155 23.8924,48.0147 5.0019,21.7053 11.6903,28.7125 18.5073,19.3896 5.2647,-7.1999 6.3356,-21.9544 1.5935,-21.9544 -1.7007,0 -6.4299,-10.0297 -10.5092,-22.2881 -9.0086,-27.0708 -21.7058,-42.5201 -34.9459,-42.5201 -5.1985,0 -10.4248,1.3257 -11.6142,2.9459 -29.1773,39.7465 -39.4523,64.2887 -43.0295,102.7778 -2.3971,25.7923 -0.3279,34.1275 8.0727,32.5176 4.7716,-0.9144 6.3626,-6.2075 8.3079,-27.6388 z m 226.9104,5.528 c 1.3366,-7.1249 0.6904,-14.4914 -1.5918,-18.1458 -2.113,-3.3836 -3.8418,-11.3416 -3.8418,-17.6847 0,-17.9999 -9.0847,-61.042 -16.3509,-77.4684 -11.6236,-26.277 -31.3756,-28.33 -54.0841,-5.6215 -14.3075,14.3076 -21.4581,35.0529 -19.853,57.5979 0.8863,12.4486 2.2354,15.0502 7.8048,15.0502 5.8355,0 7.0282,-2.9816 8.9449,-22.3606 2.962,-29.9488 10.4953,-42.5533 28.755,-48.1123 5.8799,-1.7902 8.4147,-0.2905 12.3406,7.3014 6.5324,12.6322 14.3927,52.8974 17.2611,88.4215 1.2709,15.7391 3.8024,30.4202 5.6256,32.6248 5.4911,6.6394 12.5996,1.1372 14.9896,-11.6025 z m 499.4701,-59.739 c 6.8717,-24.752 18.0678,-46.8953 29.4833,-58.3107 l 8.5901,-8.5901 6.2236,7.6859 c 6.4135,7.9203 11.2612,22.7279 14.7701,45.1157 1.6949,10.8145 3.1732,12.6687 9.3946,11.7833 10.8609,-1.5456 11.1071,-15.7678 0.7427,-42.8912 -9.8259,-25.7141 -17.6871,-34.751 -30.2298,-34.751 -18.8021,0 -35.7713,21.1013 -51.24,63.7171 -10.2081,28.123 -10.379,38.9696 -0.591,37.5168 5.7091,-0.8473 8.4394,-5.3655 12.8564,-21.2758 z m 199.8182,7.0651 c 3.918,-10.2101 -14.8162,-69.9797 -25.6937,-81.9732 -8.8595,-9.7685 -16.8716,-9.5576 -34.7406,0.9142 -14.9477,8.76 -45.0223,46.6663 -45.0223,56.7465 0,12.3196 13.2855,5.1093 27.2393,-14.7833 16.1255,-22.9885 34.3006,-36.4574 41.3271,-30.626 4.4492,3.6925 13.6855,32.7525 17.1374,53.9192 2.9259,17.9414 15.1724,27.7389 19.7528,15.8026 z M 433.59261,1019.8848 c 1.0976,-2.8602 -0.46493,-19.97004 -3.47231,-38.0218 -6.53844,-39.24699 -7.31016,-75.78586 -1.56015,-73.86924 7.42987,2.47666 22.6993,34.73579 32.31717,68.27506 7.95146,27.72848 10.80405,33.66658 16.17293,33.66658 7.69143,0 10.5846,-12.45264 5.39651,-23.2274 -1.87299,-3.8899 -6.52873,-17.67751 -10.34613,-30.63914 -12.51671,-42.49976 -36.16982,-73.13315 -51.82895,-67.12413 -7.91618,3.03768 -12.45263,17.37667 -12.45263,39.36062 0,24.51416 9.61633,86.54995 14.34978,92.57165 4.47362,5.6913 9.01032,5.2972 11.42378,-0.9922 z m 84.05612,-23.27893 c 1.03689,-2.70213 -1.4539,-19.57062 -5.53505,-37.4855 -8.22389,-36.10019 -7.86747,-65.5716 0.89905,-74.33809 4.81542,-4.81545 6.23953,-3.65672 15.72669,12.79584 5.73751,9.94996 13.52631,28.69582 17.30845,41.65745 3.78215,12.96164 8.69411,29.61354 10.91539,37.00429 4.8923,16.27749 14.50696,19.90775 17.81522,6.72657 1.22852,-4.89483 0.53718,-12.19174 -1.53627,-16.21531 -2.0735,-4.02357 -6.98266,-17.92059 -10.90935,-30.88223 -12.76076,-42.12233 -31.44066,-72.38317 -44.68188,-72.38317 -16.01806,0 -29.03211,22.92597 -29.03211,51.14398 0,18.60682 12.23687,75.93028 17.64988,82.68073 4.49336,5.60357 9.06798,5.32037 11.37998,-0.70456 z m 749.96967,-166.6243 c 10.6142,-19.5672 29.8581,-40.44609 46.7999,-50.77602 18.8603,-11.49965 21.0793,-8.91598 24.6764,28.73032 1.9972,20.90327 7.7273,31.27694 14.8461,26.87728 6.169,-3.8126 2.4149,-48.10735 -5.4411,-64.20003 -7.8621,-16.10519 -18.3326,-18.37294 -38.1504,-8.26264 -29.5992,15.10033 -69.0603,66.86375 -63.0041,82.64593 3.4336,8.94786 9.8542,4.19257 20.2732,-15.01484 z m 209.0759,3.26747 c 3.1943,-5.16846 -4.8409,-43.76482 -12.0551,-57.9058 -8.0444,-15.76835 -20.4424,-24.39333 -31.1875,-21.69649 -8.7085,2.1857 -49.8543,52.74205 -50.561,62.12496 -0.2483,3.30076 2.3602,5.95043 6.3095,6.40856 4.9167,0.57031 12.1274,-6.46873 26.7264,-26.08998 10.9962,-14.77904 21.2446,-26.87103 22.7744,-26.87103 5.3736,0 15.9769,21.82441 17.9393,36.92362 1.0908,8.39277 3.3742,18.66836 5.0743,22.83459 3.1796,7.79184 11.362,10.12513 14.9797,4.27157 z M 1029.545,474.91677 c 9.8243,-37.024 22.6835,-66.25436 33.7001,-76.60383 8.2294,-7.731 8.4174,-7.74859 13.1813,-1.23369 6.559,8.9699 13.9937,35.92394 17.2138,62.40739 2.3888,19.64678 3.4879,22.00016 10.7552,23.02718 8.0759,1.14126 8.0897,1.08693 5.9838,-23.56665 -2.5586,-29.95409 -9.7,-55.05263 -20.0476,-70.45794 -22.9735,-34.2024 -57.6162,4.47062 -78.2968,87.40597 -5.8168,23.32719 -4.6968,31.82729 3.9702,30.1318 3.9113,-0.76514 7.9507,-10.04621 13.54,-31.11023 z m 137.0556,-3.73102 c -0.2204,-5.50868 -1.5638,-23.75677 -2.9861,-40.55131 -5.3467,-63.13414 17.0011,-81.59778 40.5372,-33.49173 7.2584,14.83563 9.5094,25.13401 10.8815,49.7828 1.7062,30.64956 4.2379,37.17483 13.1038,33.77273 5.7134,-2.19245 6.0656,-35.92702 0.6564,-62.86147 -5.0861,-25.32551 -21.5677,-52.55555 -36.7392,-60.69852 -10.6269,-5.7038 -12.9815,-5.8866 -21.6843,-1.68332 -21.6161,10.44013 -29.4107,43.85761 -22.0198,94.40434 4.6925,32.09233 5.4507,33.97444 13.0729,32.4545 3.8119,-0.76014 5.451,-4.28307 5.1776,-11.12802 z m 900.7659,-19.85608 c 4.9979,-6.02215 1.3952,-59.22392 -5.0902,-75.16785 -3.878,-9.53387 -6.0322,-10.94164 -16.7424,-10.94164 -9.4067,0 -14.8279,2.56812 -23.0971,10.94164 -13.8837,14.05886 -46.8286,68.76332 -44.085,73.20252 5.6073,9.07278 14.6516,1.20681 33.6804,-29.29228 19.8684,-31.84475 29.1978,-41.92625 34.1842,-36.93983 4.6323,4.63228 7.3921,46.9575 3.4712,53.23577 -2.8804,4.61241 -2.3157,7.42716 2.574,12.8303 7.4119,8.19005 9.7973,8.52664 15.1049,2.13137 z M 406.53949,449.31955 c 2.33391,-2.33392 2.06753,-11.76953 -0.8316,-29.45829 -6.19515,-37.7988 -5.77718,-72.19046 1.05139,-86.51012 3.12043,-6.54365 6.63128,-11.89753 7.8018,-11.89753 3.64964,0 14.45153,37.33821 19.96638,69.01649 4.61903,26.53282 6.18068,30.42897 12.56067,31.3379 8.90181,1.26811 13.58497,-10.19133 8.49943,-20.79743 -1.89195,-3.94557 -5.20746,-16.89612 -7.36787,-28.77903 -2.16041,-11.88286 -7.78368,-32.00728 -12.49613,-44.72087 -13.45681,-36.30453 -25.27909,-37.93526 -41.53653,-5.72943 -11.25257,22.29121 -12.83572,45.66014 -6.28427,92.76327 4.81291,34.60337 9.69628,43.71548 18.63673,34.77504 z M 1880.5816,424.97839 c 24.5709,-36.68928 45.4719,-59.20583 48.9667,-52.75164 5.1245,9.46387 10.1882,41.28632 8.2304,51.72266 -1.689,9.00324 -0.7351,11.23665 6.1369,14.36775 14.2503,6.4929 17.2506,1.16718 12.9864,-23.0511 -2.0753,-11.78611 -6.4421,-31.27678 -9.7042,-43.31256 -5.2337,-19.31095 -6.9717,-22.00429 -14.7853,-22.91276 -6.9156,-0.80406 -12.734,2.88159 -26.5741,16.83328 -21.8277,22.0037 -57.473,75.22847 -54.8898,81.9603 3.8688,10.08171 11.5339,4.16961 29.633,-22.85593 z M 485.29819,366.06182 c 0.0517,-55.64856 1.47327,-64.80818 10.05946,-64.80818 8.91385,0 15.02629,11.73616 28.66273,55.03347 10.08883,32.03333 13.53468,39.23299 18.77736,39.23299 3.53155,0 6.59548,-1.89374 6.80869,-4.20832 0.74477,-8.08422 -0.69905,-17.72696 -3.65464,-24.40828 -1.63824,-3.70332 -6.98629,-19.19003 -11.88454,-34.41491 -10.10921,-31.42174 -22.89513,-48.06823 -36.92045,-48.06823 -13.20676,0 -20.82122,5.25692 -25.00713,17.26458 -3.97636,11.40665 -5.25217,108.01482 -1.47631,111.79067 1.23443,1.23444 5.02191,2.24446 8.41668,2.24446 5.70409,0 6.17569,-3.76594 6.21815,-49.65825 z"
     id="path868" />
</svg>
