<?xml version="1.0" encoding="UTF-8" standalone="no"?>
<svg
   xmlns:dc="http://purl.org/dc/elements/1.1/"
   xmlns:cc="http://creativecommons.org/ns#"
   xmlns:rdf="http://www.w3.org/1999/02/22-rdf-syntax-ns#"
   xmlns:svg="http://www.w3.org/2000/svg"
   xmlns="http://www.w3.org/2000/svg"
   xmlns:sodipodi="http://sodipodi.sourceforge.net/DTD/sodipodi-0.dtd"
   xmlns:inkscape="http://www.inkscape.org/namespaces/inkscape"
   width="94.787071"
   height="92.489449"
   viewBox="0 0 394.94614 385.37918"
   version="1.1"
   id="svg986"
   sodipodi:docname="navigation-menu-zain-flag.svg"
   inkscape:version="1.0.1 (3bc2e813f5, 2020-09-07)">
  <metadata
     id="metadata992">
    <rdf:RDF>
      <cc:Work
         rdf:about="">
        <dc:format>image/svg+xml</dc:format>
        <dc:type
           rdf:resource="http://purl.org/dc/dcmitype/StillImage" />
      </cc:Work>
    </rdf:RDF>
  </metadata>
  <defs
     id="defs990" />
  <sodipodi:namedview
     pagecolor="#ffffff"
     bordercolor="#666666"
     borderopacity="1"
     objecttolerance="10"
     gridtolerance="10"
     guidetolerance="10"
     inkscape:pageopacity="0"
     inkscape:pageshadow="2"
     inkscape:window-width="2560"
     inkscape:window-height="1377"
     id="namedview988"
     showgrid="false"
     inkscape:zoom="4.9505892"
     inkscape:cx="-17.655113"
     inkscape:cy="71.723253"
     inkscape:window-x="1912"
     inkscape:window-y="-8"
     inkscape:window-maximized="1"
     inkscape:current-layer="svg986"
     inkscape:document-rotation="0" />
  <g
     stroke-linecap="round"
     id="Layer_2"
     transform="translate(-1300.7745,-635.715)">
    <path
       d="m 1550.63,727.94 c -7.55,-0.96 -25.64,-3.13 -31.01,-3.23 -6.16,-0.09 -21.38,1.97 -27.62,4.3 -4.79,1.82 -21.78,11.29 -25.43,14.04 -3.42,2.62 -14.41,12.81 -19.79,19.09 -5.03,6 -13.22,18.03 -16.19,23.11 -3.31,5.7 -10.22,20.63 -12.56,27.16 -2.73,7.71 -6.25,21.28 -7.22,28.89 -0.95,7.61 -0.98,20.65 -0.29,27.46 0.7,6.76 4.68,22.22 7.63,29.4 3.16,7.61 11,21.55 15.2,27.52 4.17,5.9 14.7,18.15 20.92,24.01 5.76,5.39 18.74,15.13 24.77,18.61 7.12,4.07 19.94,9.6 27.67,11.92 6.57,1.94 22.25,4.55 29.9,5.01 8.17,0.46 23.58,-0.15 30.35,-1 6.97,-0.89 20.44,-3.95 27.01,-6.32 6.55,-2.4 19.81,-9.42 24.77,-13.44 2.77,-2.28 6.86,-6.98 8.63,-9.45 3.64,-5.12 10.02,-18.84 12.59,-27.17 1.89,-6.17 5,-21.66 6.18,-28.96 0.69,-4.67 2.68,-26.46 2.86,-31.3 0.17,-4.86 -0.26,-26.93 -0.66,-31.78 -0.98,-10.36 -2.79,-22.95 -4.5,-30.03 -1.95,-7.92 -6.53,-21.02 -10.29,-28.93 -1.66,-3.47 -5.71,-10.33 -7.95,-13.5 -3.71,-5.19 -15.54,-15.91 -19.46,-18.58 -4.96,-3.35 -32.55,-17.14 -36.41,-19.05"
       fill="none"
       stroke="#000000"
       stroke-width="14.17"
       stroke-opacity="1"
       stroke-linejoin="round"
       id="path945" />
    <path
       d="m 1407.16,866.72 c -2.09,0.59 -8.75,3.76 -12.61,5.61 -4.24,2.11 -8.71,5.48 -11.73,9.19 -0.88,1.12 -3.27,4.43 -3.64,5.4 -1.4,3.81 -2.11,23.11 -1.18,26.49 0.7,2.4 3.83,8.2 5.49,10 1.87,1.97 7.39,5.22 10.5,5.98 3.11,0.72 9.47,1.17 12.96,0.94 3.13,-0.24 9.12,-1.89 11.05,-2.88 3.31,-1.73 8.4,-6.23 9.33,-7.83 0.81,-1.41 1.13,-2.44 0.99,-3.09 -0.12,-0.47 -0.76,-1.19 -1.92,-2.14"
       fill="none"
       stroke="#000000"
       stroke-width="14.17"
       stroke-opacity="1"
       stroke-linejoin="round"
       id="path947" />
    <path
       d="m 1650.35,833.28 c 3.33,1.02 10.63,4.37 12.53,5.37 4.34,2.33 9,6.08 11.71,9.39 5.26,6.56 11.56,17.99 13.34,24.21 0.2,0.77 0.72,3.41 0.61,4.04 -0.45,2.3 -1.61,4.42 -3.25,5.78 -2.63,2.22 -6.44,5.02 -10.01,6.6 -1.45,0.64 -11,4.2 -14.82,5.33 -4.7,1.36 -9.86,1.86 -15.49,1.86"
       fill="none"
       stroke="#000000"
       stroke-width="14.17"
       stroke-opacity="1"
       stroke-linejoin="round"
       id="path949" />
    <path
       d="m 1476.95,971.73 c -0.1,0.26 -9.38,19.06 -10.7,24.44 -0.5,2.11 -0.72,9.11 -0.36,10.99 0.35,1.71 3.47,5.58 5.7,6.34 2.52,0.8 8.59,0.51 11.05,-0.16 3.2,-0.89 9.96,-4.23 12.78,-6.25 11.18,-8.17 17.6,-19.25 19.7,-23.23"
       fill="none"
       stroke="#000000"
       stroke-width="14.17"
       stroke-opacity="1"
       stroke-linejoin="round"
       id="path951" />
    <path
       d="m 1512.54,980.36 c 0,0 -0.94,0.58 -0.94,0.58"
       fill="none"
       stroke="#000000"
       stroke-width="14.17"
       stroke-opacity="1"
       stroke-linejoin="round"
       id="path953" />
    <path
       d="m 1606.14,979.31 c 0,-0.06 0.06,1.71 0.16,2.53 0.46,3.45 3.62,9.96 5.91,11.86 2.3,1.87 11.36,5.39 14.54,5.69 2.39,0.19 10.08,-0.86 12.59,-1.88 3.15,-1.32 7.4,-4.24 9.7,-6.71 2.21,-2.43 5.35,-8.87 6.35,-12.56 0.61,-2.37 1.39,-9.33 1.32,-12.1 -0.1,-2.88 -1.34,-9.76 -2.25,-12.08 -1.49,-3.67 -5.87,-9.22 -8.72,-10.85 -3.08,-1.68 -7.79,-2.76 -10.43,-2.66"
       fill="none"
       stroke="#000000"
       stroke-width="14.17"
       stroke-opacity="1"
       stroke-linejoin="round"
       id="path955" />
    <path
       d="m 1629.86,940.72 c -0.39,0.76 -0.78,1.52 -1.17,2.28 -0.58,1.12 -1.16,2.25 -1.73,3.37 -0.39,0.76 -0.78,1.52 -1.17,2.28"
       fill="none"
       stroke="#000000"
       stroke-width="14.17"
       stroke-opacity="1"
       stroke-linejoin="round"
       id="path957" />
    <path
       d="m 1448.95,758 c 0.18,-3.06 -1.3,-8.42 -3.5,-13.6 -1.94,-4.38 -9.87,-20.13 -13.9,-26.92 -3.76,-6.09 -14.44,-22.05 -17.27,-25.9 -2.8,-3.79 -14.33,-17.87 -18.05,-21.6 -2.71,-2.68 -7.66,-6.75 -9.79,-7.47 -0.91,-0.3 -2.99,-0.61 -4.42,-0.76"
       fill="none"
       stroke="#000000"
       stroke-width="14.17"
       stroke-opacity="1"
       stroke-linejoin="round"
       id="path959" />
    <path
       d="m 1380.18,663.01 c -0.47,6.78 -1.51,25.2 -1.51,30.37 0.01,6.2 1.15,23.01 1.92,28.55 0.5,3.58 3.6,20.03 5.12,27.05 2.01,8.3 7.79,25.7 8.84,28.36 0.69,1.74 2.66,5.29 5.61,10.28 2.49,4.11 6.42,9.34 9.12,11.88 2.46,2.25 8.5,5.46 10.75,5.95"
       fill="none"
       stroke="#000000"
       stroke-width="14.17"
       stroke-opacity="1"
       stroke-linejoin="round"
       id="path961" />
    <path
       d="m 1421.2,810.88 c 0,0 5.71,-18.25 5.71,-18.25 0,0 -0.25,-1.72 -0.25,-1.72"
       fill="none"
       stroke="#000000"
       stroke-width="14.17"
       stroke-opacity="1"
       stroke-linejoin="round"
       id="path963" />
    <path
       d="m 1577.88,733.61 c 0,0 2.03,-0.81 2.03,-0.81 3.3,-4.5 11.58,-15.71 16.91,-22.59 5.59,-6.83 16.56,-19.23 22.37,-25.37 5.5,-5.63 17.14,-16.97 22.02,-20.76 4.11,-3.18 16.59,-11.48 23.14,-15.63 4.55,-2.76 8.68,-4.79 11.67,-5.65"
       fill="none"
       stroke="#000000"
       stroke-width="14.17"
       stroke-opacity="1"
       stroke-linejoin="round"
       id="path965" />
    <path
       d="m 1676.88,653.16 c 0.22,7.15 0.57,26.5 0.35,31.8 -0.22,5.14 -2.26,24.35 -3.03,28.94 -1.15,6.72 -6.1,25.33 -7.81,30.89 -1.43,4.55 -4.04,9.94 -6.58,13.65 -2.18,3.1 -20.64,24.64 -21.49,25.64 0,0 4.41,-3.38 4.41,-3.38"
       fill="none"
       stroke="#000000"
       stroke-width="14.17"
       stroke-opacity="1"
       stroke-linejoin="round"
       id="path967" />
    <path
       d="m 1675.67,645.05 c -0.14,1.67 -0.09,2.77 0.28,4.87 0.63,3.55 1.47,8.26 1.68,9.41"
       fill="none"
       stroke="#000000"
       stroke-width="14.17"
       stroke-opacity="1"
       stroke-linejoin="round"
       id="path969" />
    <path
       d="m 1543.1,728.07 c 5.43,-0.98 10.02,-1.59 12.87,-1.37 1.91,0.16 8.4,0.75 9.01,0.44 0.24,-0.13 0.62,-0.49 1.15,-1.1"
       fill="none"
       stroke="#000000"
       stroke-width="14.17"
       stroke-opacity="1"
       stroke-linejoin="round"
       id="path971" />
    <path
       d="m 1491.5,811.89 c -2.55,-0.34 -4.19,-0.13 -5.92,0.98 -2.82,1.82 -5.59,4.76 -7.17,7.15 -1.55,2.41 -2.94,7.3 -3.02,9.8 -0.03,2.56 1.45,6.58 3.3,8.03 1.86,1.4 7.08,2.83 9.82,2.83 2.8,-0.04 7.39,-1.81 9.11,-3.53 1.54,-1.62 3.49,-5.6 3.89,-7.91 0.37,-2.22 0.33,-6.48 -0.21,-8.81 -0.33,-1.17 -2.09,-3.42 -3.54,-4.24 -2.14,-1.15 -10.5,-0.85 -11.24,-0.51"
       fill="none"
       stroke="#000000"
       stroke-width="14.17"
       stroke-opacity="1"
       stroke-linejoin="round"
       id="path973" />
    <path
       d="m 1576.53,810.41 c -2.29,0.07 -7.08,1.02 -9.09,2.16 -2.09,1.22 -4.62,4.81 -5.64,7.36 -0.97,2.49 -1.6,7.82 -1.12,10.12 0.58,2.5 3.99,6.17 6.63,7.24 2.59,1 8.17,1.29 10.47,0.37 2.36,-1.01 5.41,-5.11 6.16,-8.11 0.62,-2.59 0.97,-8.63 0.88,-12.21 -0.08,-1.71 -1.09,-4.63 -2.25,-5.45 -1.12,-0.75 -4.53,-0.95 -5.88,-0.65 -1.74,0.46 -3.27,1.04 -4.37,1.68 -1.81,1.07 -4.45,3.54 -5.53,4.58"
       fill="none"
       stroke="#000000"
       stroke-width="14.17"
       stroke-opacity="1"
       stroke-linejoin="round"
       id="path975" />
    <path
       d="m 1398.5,702.67 c 4.32,9.36 7.87,16 14.29,25.98 4.53,6.88 12.43,18.86 15.16,24.22 0,0 -1.29,-4.68 -1.29,-4.68"
       fill="none"
       stroke="#000000"
       stroke-width="14.17"
       stroke-opacity="1"
       stroke-linejoin="round"
       id="path977" />
    <path
       d="m 1658.91,681.72 c -1.93,0.43 -7.07,2.44 -9.91,4.16 -4.33,2.65 -14.38,11.63 -17.84,15.44 -2.26,2.51 -6.05,7.49 -7.02,9.33 -1.2,2.3 -1.64,4.06 -1.32,4.75"
       fill="none"
       stroke="#000000"
       stroke-width="14.17"
       stroke-opacity="1"
       stroke-linejoin="round"
       id="path979" />
    <path
       d="m 1381.07,874.53 c -2.3,-2.72 -31.06,-40.53 -34.69,-46.29 -3.81,-6.28 -9.08,-15.25 -10.01,-18.37 0.68,0.68 1.11,1.21 1.28,1.61 0.17,0.4 0.32,1.22 0.44,2.46"
       fill="none"
       stroke="#000000"
       stroke-width="14.17"
       stroke-opacity="1"
       stroke-linejoin="round"
       id="path981" />
    <path
       d="m 1330.23,811.84 c -0.24,2.85 -6.4,16.89 -9.62,24.11 -3.07,6.84 -8.72,19.66 -10.88,26.47 -1.34,4.44 -1.58,5.83 -1.9,8.53 1.29,0.48 3.53,-0.45 8.46,-2.81 18.23,-8.94 34.87,-20.46 37.27,-21.44 0,0 -1.69,0.91 -1.69,0.91"
       fill="none"
       stroke="#000000"
       stroke-width="14.17"
       stroke-opacity="1"
       stroke-linejoin="round"
       id="path983" />
  </g>
  <path
     style="fill:#e7d18b;stroke:#e7d18b;stroke-width:0.595147"
     d="m 233.08187,342.33681 c -0.81835,-0.12291 -4.43387,-0.64222 -8.03447,-1.15439 -3.60065,-0.51218 -7.55921,-1.44657 -8.79677,-2.07637 -1.31648,-0.67001 -3.46494,-1.14518 -5.17801,-1.14518 -3.97673,0 -12.50158,-3.12635 -23.51948,-8.62548 -14.91362,-7.44342 -28.99169,-18.90786 -41.66228,-33.92753 -5.87389,-6.96287 -11.60336,-14.91671 -11.60336,-16.10815 0,-0.39584 -0.93018,-2.0722 -2.06708,-3.72489 -3.0378,-4.4162 -8.36551,-15.28347 -10.14204,-20.68735 -0.85177,-2.59092 -2.37479,-7.92455 -3.38456,-11.85253 -1.69011,-6.5747 -1.85757,-8.12639 -2.10924,-19.54246 -0.30834,-13.99132 0.11958,-18.12972 3.11946,-30.15688 2.52571,-10.12613 2.83951,-10.92727 5.06509,-12.93263 1.50673,-1.35761 2.33233,-3.27852 4.74087,-11.03023 3.6276,-11.67499 4.88221,-14.42366 10.20751,-22.36258 7.742,-11.54174 12.20278,-16.97708 20.84105,-25.39422 9.19228,-8.95699 12.79534,-11.45686 26.99458,-18.72965 5.58781,-2.86205 8.37194,-3.9024 12.79564,-4.781373 10.75259,-2.136494 16.61836,-2.435707 27.37675,-1.396482 5.40096,0.521676 10.48946,1.290189 11.30781,1.707821 1.04114,0.5313 3.27472,0.671886 7.43934,0.468174 3.2733,-0.160002 8.6296,-0.363756 11.90295,-0.452174 3.2733,-0.08875 6.88882,-0.335422 8.03446,-0.548509 2.52705,-0.47005 3.09047,-0.117502 4.45587,2.788503 1.43136,3.04639 3.83952,4.23166 7.67463,3.77744 2.85692,-0.33834 3.37726,-0.15209 11.64778,4.17349 11.11373,5.81239 14.53528,8.27176 22.43096,16.1231 7.64817,7.6053 12.21229,14.76783 16.83912,26.42586 7.85446,19.79071 10.9058,36.53628 11.69632,64.18846 0.48963,17.12753 -0.89927,37.42329 -2.82093,41.22123 -0.90793,1.79445 -1.06118,2.97643 -0.77168,5.95148 0.28918,2.97075 -0.0721,5.77043 -1.80853,14.0149 -1.19335,5.66634 -3.02263,12.72742 -4.06506,15.69122 -1.79966,5.11675 -2.00829,5.42688 -4.13278,6.14465 -3.24589,1.09656 -3.83611,1.75694 -6.74228,7.54341 -2.65496,5.28638 -3.16318,7.89651 -1.9712,10.12372 1.46481,2.73708 -10.28172,11.65427 -22.97243,17.43908 -9.10149,4.14874 -24.03553,7.65738 -36.70691,8.62402 -7.51704,0.57343 -22.86801,0.70439 -26.0811,0.2225 z M 195.69132,210.07755 c 6.01927,-2.3445 10.45859,-8.31997 11.87553,-15.98494 0.77389,-4.18636 0.16959,-10.44434 -1.27935,-13.24926 -1.3464,-2.60638 -5.16046,-6.27611 -7.12899,-6.85924 -0.81835,-0.2425 -2.345,-1.31581 -3.39256,-2.38537 -2.49875,-2.55109 -6.41548,-3.18006 -11.1794,-1.79512 -2.67958,0.77897 -4.19028,1.78674 -7.75609,5.17388 -4.82199,4.58041 -6.78386,7.90176 -8.37435,14.17728 -1.72273,6.79724 0.15126,13.64561 4.87079,17.79988 5.28497,4.652 14.96734,6.00402 22.36442,3.12289 z m 82.37793,-1.33919 c 3.3228,-0.83668 7.74909,-4.70441 9.89416,-8.6456 2.06579,-3.79553 3.00839,-9.51337 2.75551,-16.71462 -0.34876,-9.93287 -3.05493,-13.38201 -11.79257,-15.03071 -4.90313,-0.92514 -9.83163,-0.20042 -14.78192,2.1735 -3.50093,1.6789 -7.05137,5.66172 -9.02557,10.12475 -2.58987,5.85489 -2.99209,14.02307 -0.89064,18.08689 1.34653,2.60392 5.49897,7.00307 7.68738,8.14413 4.72916,2.46584 10.92052,3.17939 16.15365,1.86166 z"
     id="path1555" />
  <path
     style="fill:#e7d18b;stroke:#e7d18b;stroke-width:0.595147"
     d="m 334.55441,130.17233 c -4.55171,-7.64321 -8.8219,-12.70038 -16.49266,-19.53208 -7.34874,-6.5449 -9.78062,-8.20205 -19.66466,-13.399847 -4.91917,-2.586919 -7.44675,-4.234613 -7.18241,-4.682204 0.73759,-1.248813 7.48775,-10.125587 11.16048,-14.676497 7.56129,-9.369324 22.67379,-25.797267 30.82781,-33.511105 10.9666,-10.374632 10.63255,-10.109086 23.92748,-19.021069 10.70502,-7.175913 11.36923,-7.529835 11.73437,-6.25298 0.21292,0.744387 0.41375,8.482934 0.44634,17.196705 0.0867,23.100555 -1.27698,35.528847 -5.96323,54.355164 -3.45772,13.890983 -5.27996,19.562783 -7.81192,24.315073 -1.69711,3.18535 -16.22052,21.26657 -17.04766,21.22382 -0.19959,-0.008 -1.96995,-2.71709 -3.93394,-6.01498 z m -8.62569,-44.694333 c 1.35748,-0.847723 2.9718,-3.594644 2.9718,-5.056752 0,-4.614411 19.09657,-23.347767 26.5542,-26.049146 5.99951,-2.173203 7.83354,-3.282264 8.80169,-5.322506 1.1656,-2.456292 1.18143,-3.38064 0.10208,-5.963601 -1.10127,-2.635585 -3.91757,-4.11211 -7.13849,-3.742479 -4.00991,0.460174 -11.52445,3.976067 -16.48166,7.711463 -10.84518,8.172054 -22.41608,20.970602 -24.62862,27.241583 -1.78945,5.071793 -0.61443,9.819415 2.86417,11.572778 1.97945,0.997725 5.00288,0.827597 6.95466,-0.391257 z"
     id="path1557" />
  <path
     style="fill:#e7d18b;stroke:#e7d18b;stroke-width:0.595147"
     d="M 114.46329,159.49107 C 109.75479,156.40236 101.66241,143.26372 98.263434,133.18934 90.980479,111.60298 86.98812,92.235027 85.451886,71.037504 84.737374,61.178547 85.154797,37.896572 86.075771,36.251128 c 1.279855,-2.286956 18.422389,18.34935 30.998229,37.315877 11.26702,16.99266 22.89939,39.572335 23.87561,46.345275 0.12,0.83356 -1.49653,3.5091 -4.75433,7.86818 -2.715,3.63285 -6.92403,9.75987 -9.35341,13.61564 -2.42941,3.85578 -5.10412,7.93484 -5.94381,9.06461 -0.83972,1.12977 -1.67165,2.73667 -1.84873,3.5709 -0.39834,1.87749 -2.09383,5.95506 -2.60797,6.27277 -0.20917,0.12917 -1.09918,-0.23667 -1.97807,-0.81331 z m 16.71828,-36.73074 c 0.78093,-0.51172 1.81874,-1.88499 2.30625,-3.05176 1.29648,-3.10288 -0.32376,-9.5782 -3.06814,-12.26245 -3.73077,-3.64894 -19.26445,-28.601568 -24.48145,-39.325915 -2.04512,-4.204029 -3.38264,-6.207646 -4.66679,-6.990743 -4.653992,-2.838131 -10.429672,0.48405 -10.429672,5.999143 0,2.778755 8.007968,18.004011 16.142192,30.690516 3.9876,6.219269 9.04231,14.253739 11.23264,17.854379 2.92626,4.81042 4.52004,6.82904 6.00944,7.61147 2.23358,1.17343 4.64108,0.9918 6.95553,-0.52464 z"
     id="path1559" />
  <path
     style="fill:#e7d18b;stroke:#e7d18b;stroke-width:0.595147"
     d="m 98.578648,287.39281 c -6.4649,-0.67976 -10.559303,-3.33356 -13.197514,-8.55402 l -1.852614,-3.6659 0.375423,-9.22478 c 0.20667,-5.07362 0.661678,-10.2375 1.0116,-11.47527 1.018851,-3.60381 6.466109,-8.63119 12.966218,-11.9667 3.053589,-1.56695 5.626679,-2.75855 5.717929,-2.64797 0.0913,0.11042 0.77226,2.7453 1.51336,5.85494 2.42992,10.19596 5.96522,20.11954 9.89396,27.77205 2.12491,4.13902 3.7361,7.8575 3.58039,8.2633 -0.67759,1.76582 -4.80716,4.06832 -9.16861,5.11209 -4.86396,1.16402 -4.84175,1.16293 -10.840059,0.53226 z"
     id="path1561" />
  <path
     style="fill:#e7d18b;stroke:#e7d18b;stroke-width:0.595147"
     d="m 353.63898,250.32548 c 0.91522,-6.74141 1.44419,-17.40996 1.44598,-29.1622 10e-4,-7.44675 0.145,-13.53956 0.31917,-13.53956 0.17459,0 1.59724,0.64855 3.16151,1.44123 4.84683,2.45608 9.35274,6.61073 12.80301,11.80495 3.57202,5.3775 9.30945,16.68432 9.30945,18.34622 0,1.4684 -4.38933,5.06684 -8.62965,7.07466 -4.42086,2.09333 -15.73347,5.96894 -17.42287,5.96894 -1.06669,0 -1.21102,-0.28292 -0.98681,-1.93424 z"
     id="path1563" />
  <path
     style="fill:#e7d18b;stroke:#e7d18b;stroke-width:0.595147"
     d="m 323.54418,355.85633 c -6.06989,-1.9597 -7.74588,-3.07409 -9.33278,-6.20568 -0.81127,-1.60095 -1.68045,-4.21033 -1.93154,-5.79869 l -0.4565,-2.88788 4.22378,-2.47591 c 6.54673,-3.83765 15.32371,-13.0746 19.31399,-20.32626 1.75303,-3.18581 3.30626,-5.79235 3.45164,-5.79235 1.07623,0 3.96248,2.14699 5.5058,4.09561 3.80369,4.80254 5.29796,11.79674 4.22507,19.77596 -1.52698,11.35631 -7.58825,18.69902 -16.38377,19.84754 -1.62899,0.21292 -3.4974,0.48522 -4.15207,0.60559 -0.65468,0.12042 -2.6633,-0.25667 -4.46362,-0.83793 z"
     id="path1565" />
  <path
     style="fill:#e7d18b;stroke:#e7d18b;stroke-width:0.595147"
     d="m 172.41568,370.44312 c -1.53732,-1.85236 -0.43551,-8.28943 2.65913,-15.53539 2.40108,-5.62192 5.42976,-12.08607 5.93139,-12.65933 0.0846,-0.0967 3.8689,1.40589 8.40922,3.33943 4.54037,1.93353 9.66125,3.97594 11.37974,4.53874 1.71848,0.56276 3.12451,1.17781 3.12451,1.36673 0,0.18917 -1.11756,1.79211 -2.48342,3.56256 -6.87261,8.90819 -17.12949,15.65018 -24.52583,16.12111 -2.88717,0.18375 -3.86573,0.025 -4.49474,-0.73385 z"
     id="path1567" />
  <path
     style="fill:#ffffff;fill-opacity:1;stroke:#ffffff;stroke-width:0.420832;stroke-opacity:1"
     d="m 184.83522,197.46855 c -3.35605,-0.92589 -3.88744,-2.46996 -2.35275,-6.83645 1.28778,-3.66394 1.3879,-3.72148 6.7247,-3.86703 l 4.64845,-0.12666 v 2.98375 c 0,3.87815 -1.18393,6.59641 -3.24884,7.45917 -2.20425,0.92097 -3.51764,1.00914 -5.77156,0.38751 z"
     id="path1569" />
  <path
     style="fill:#ffffff;fill-opacity:1;stroke:#ffffff;stroke-width:0.148787;stroke-opacity:1"
     d="m 271.00709,195.35114 c -1.72086,-0.21543 -1.92195,-0.29834 -2.83992,-1.17332 -1.47953,-1.41019 -1.45649,-1.35081 -1.28578,-3.30922 0.0813,-0.9316 0.18167,-1.80274 0.22334,-1.93582 0.0446,-0.14251 0.30667,-0.27876 0.63689,-0.33168 1.05831,-0.16916 2.29362,-0.94143 3.9684,-2.4807 2.51308,-2.30971 3.55251,-3.0391 4.9712,-3.48819 l 0.35876,-0.11375 -0.0942,2.65859 c -0.10042,2.83096 -0.31125,5.30288 -0.5578,6.53965 -0.16208,0.81251 -0.89264,2.15958 -1.67874,3.09522 -0.47571,0.56622 -0.50934,0.57934 -1.59381,0.62138 -0.60935,0.025 -1.55807,-0.0125 -2.10833,-0.0821 z"
     id="path1571" />
  <path
     style="fill:#bb2830;fill-opacity:1;stroke:#bb2830;stroke-width:0.210416;stroke-opacity:1"
     d="m 17.691913,223.35631 c 0,-0.46163 3.94165,-9.7982 8.275515,-19.60199 3.292097,-7.44729 6.490359,-14.90638 7.192287,-16.77416 l 0.380423,-1.01252 0.357506,0.59168 c 0.19667,0.32542 1.615361,2.72213 3.152636,5.32605 2.946175,4.99029 3.74223,6.19277 7.431209,11.22544 1.259604,1.71844 2.20962,3.19455 2.111119,3.2803 -0.872348,0.75906 -17.485336,10.75439 -22.483212,13.52719 -6.14177,3.40739 -6.417691,3.55522 -6.417691,3.43801 z"
     id="path1573" />
</svg>
