<?xml version="1.0" encoding="UTF-8" standalone="no"?>
<svg
   xmlns:dc="http://purl.org/dc/elements/1.1/"
   xmlns:cc="http://creativecommons.org/ns#"
   xmlns:rdf="http://www.w3.org/1999/02/22-rdf-syntax-ns#"
   xmlns:svg="http://www.w3.org/2000/svg"
   xmlns="http://www.w3.org/2000/svg"
   xmlns:sodipodi="http://sodipodi.sourceforge.net/DTD/sodipodi-0.dtd"
   xmlns:inkscape="http://www.inkscape.org/namespaces/inkscape"
   width="78.047523"
   height="92.489449"
   viewBox="0 0 325.19802 385.37918"
   version="1.1"
   id="svg39"
   sodipodi:docname="navigation-menu-zain.svg"
   inkscape:version="1.0.1 (3bc2e813f5, 2020-09-07)">
  <metadata
     id="metadata45">
    <rdf:RDF>
      <cc:Work
         rdf:about="">
        <dc:format>image/svg+xml</dc:format>
        <dc:type
           rdf:resource="http://purl.org/dc/dcmitype/StillImage" />
      </cc:Work>
    </rdf:RDF>
  </metadata>
  <defs
     id="defs43" />
  <sodipodi:namedview
     pagecolor="#ffffff"
     bordercolor="#666666"
     borderopacity="1"
     objecttolerance="10"
     gridtolerance="10"
     guidetolerance="10"
     inkscape:pageopacity="0"
     inkscape:pageshadow="2"
     inkscape:window-width="2560"
     inkscape:window-height="1377"
     id="namedview41"
     showgrid="false"
     inkscape:zoom="9.9011784"
     inkscape:cx="-11.48559"
     inkscape:cy="57.206883"
     inkscape:window-x="1912"
     inkscape:window-y="-8"
     inkscape:window-maximized="1"
     inkscape:current-layer="svg39"
     inkscape:document-rotation="0" />
  <g
     stroke-linecap="round"
     id="Layer_2"
     transform="translate(-1370.5238,-635.715)">
    <path
       d="m 1550.63,727.94 c -7.55,-0.96 -25.64,-3.13 -31.01,-3.23 -6.16,-0.09 -21.38,1.97 -27.62,4.3 -4.79,1.82 -21.78,11.29 -25.43,14.04 -3.42,2.62 -14.41,12.81 -19.79,19.09 -5.03,6 -13.22,18.03 -16.19,23.11 -3.31,5.7 -10.22,20.63 -12.56,27.16 -2.73,7.71 -6.25,21.28 -7.22,28.89 -0.95,7.61 -0.98,20.65 -0.29,27.46 0.7,6.76 4.68,22.22 7.63,29.4 3.16,7.61 11,21.55 15.2,27.52 4.17,5.9 14.7,18.15 20.92,24.01 5.76,5.39 18.74,15.13 24.77,18.61 7.12,4.07 19.94,9.6 27.67,11.92 6.57,1.94 22.25,4.55 29.9,5.01 8.17,0.46 23.58,-0.15 30.35,-1 6.97,-0.89 20.44,-3.95 27.01,-6.32 6.55,-2.4 19.81,-9.42 24.77,-13.44 2.77,-2.28 6.86,-6.98 8.63,-9.45 3.64,-5.12 10.02,-18.84 12.59,-27.17 1.89,-6.17 5,-21.66 6.18,-28.96 0.69,-4.67 2.68,-26.46 2.86,-31.3 0.17,-4.86 -0.26,-26.93 -0.66,-31.78 -0.98,-10.36 -2.79,-22.95 -4.5,-30.03 -1.95,-7.92 -6.53,-21.02 -10.29,-28.93 -1.66,-3.47 -5.71,-10.33 -7.95,-13.5 -3.71,-5.19 -15.54,-15.91 -19.46,-18.58 -4.96,-3.35 -32.55,-17.14 -36.41,-19.05"
       fill="none"
       stroke="#000000"
       stroke-width="14.17"
       stroke-opacity="1"
       stroke-linejoin="round"
       id="path2" />
    <path
       d="m 1407.16,866.72 c -2.09,0.59 -8.75,3.76 -12.61,5.61 -4.24,2.11 -8.71,5.48 -11.73,9.19 -0.88,1.12 -3.27,4.43 -3.64,5.4 -1.4,3.81 -2.11,23.11 -1.18,26.49 0.7,2.4 3.83,8.2 5.49,10 1.87,1.97 7.39,5.22 10.5,5.98 3.11,0.72 9.47,1.17 12.96,0.94 3.13,-0.24 9.12,-1.89 11.05,-2.88 3.31,-1.73 8.4,-6.23 9.33,-7.83 0.81,-1.41 1.13,-2.44 0.99,-3.09 -0.12,-0.47 -0.76,-1.19 -1.92,-2.14"
       fill="none"
       stroke="#000000"
       stroke-width="14.17"
       stroke-opacity="1"
       stroke-linejoin="round"
       id="path4" />
    <path
       d="m 1650.35,833.28 c 3.33,1.02 10.63,4.37 12.53,5.37 4.34,2.33 9,6.08 11.71,9.39 5.26,6.56 11.56,17.99 13.34,24.21 0.2,0.77 0.72,3.41 0.61,4.04 -0.45,2.3 -1.61,4.42 -3.25,5.78 -2.63,2.22 -6.44,5.02 -10.01,6.6 -1.45,0.64 -11,4.2 -14.82,5.33 -4.7,1.36 -9.86,1.86 -15.49,1.86"
       fill="none"
       stroke="#000000"
       stroke-width="14.17"
       stroke-opacity="1"
       stroke-linejoin="round"
       id="path6" />
    <path
       d="m 1476.95,971.73 c -0.1,0.26 -9.38,19.06 -10.7,24.44 -0.5,2.11 -0.72,9.11 -0.36,10.99 0.35,1.71 3.47,5.58 5.7,6.34 2.52,0.8 8.59,0.51 11.05,-0.16 3.2,-0.89 9.96,-4.23 12.78,-6.25 11.18,-8.17 17.6,-19.25 19.7,-23.23"
       fill="none"
       stroke="#000000"
       stroke-width="14.17"
       stroke-opacity="1"
       stroke-linejoin="round"
       id="path8" />
    <path
       d="m 1512.54,980.36 c 0,0 -0.94,0.58 -0.94,0.58"
       fill="none"
       stroke="#000000"
       stroke-width="14.17"
       stroke-opacity="1"
       stroke-linejoin="round"
       id="path10" />
    <path
       d="m 1606.14,979.31 c 0,-0.06 0.06,1.71 0.16,2.53 0.46,3.45 3.62,9.96 5.91,11.86 2.3,1.87 11.36,5.39 14.54,5.69 2.39,0.19 10.08,-0.86 12.59,-1.88 3.15,-1.32 7.4,-4.24 9.7,-6.71 2.21,-2.43 5.35,-8.87 6.35,-12.56 0.61,-2.37 1.39,-9.33 1.32,-12.1 -0.1,-2.88 -1.34,-9.76 -2.25,-12.08 -1.49,-3.67 -5.87,-9.22 -8.72,-10.85 -3.08,-1.68 -7.79,-2.76 -10.43,-2.66"
       fill="none"
       stroke="#000000"
       stroke-width="14.17"
       stroke-opacity="1"
       stroke-linejoin="round"
       id="path12" />
    <path
       d="m 1629.86,940.72 c -0.39,0.76 -0.78,1.52 -1.17,2.28 -0.58,1.12 -1.16,2.25 -1.73,3.37 -0.39,0.76 -0.78,1.52 -1.17,2.28"
       fill="none"
       stroke="#000000"
       stroke-width="14.17"
       stroke-opacity="1"
       stroke-linejoin="round"
       id="path14" />
    <path
       d="m 1448.95,758 c 0.18,-3.06 -1.3,-8.42 -3.5,-13.6 -1.94,-4.38 -9.87,-20.13 -13.9,-26.92 -3.76,-6.09 -14.44,-22.05 -17.27,-25.9 -2.8,-3.79 -14.33,-17.87 -18.05,-21.6 -2.71,-2.68 -7.66,-6.75 -9.79,-7.47 -0.91,-0.3 -2.99,-0.61 -4.42,-0.76"
       fill="none"
       stroke="#000000"
       stroke-width="14.17"
       stroke-opacity="1"
       stroke-linejoin="round"
       id="path16" />
    <path
       d="m 1380.18,663.01 c -0.47,6.78 -1.51,25.2 -1.51,30.37 0.01,6.2 1.15,23.01 1.92,28.55 0.5,3.58 3.6,20.03 5.12,27.05 2.01,8.3 7.79,25.7 8.84,28.36 0.69,1.74 2.66,5.29 5.61,10.28 2.49,4.11 6.42,9.34 9.12,11.88 2.46,2.25 8.5,5.46 10.75,5.95"
       fill="none"
       stroke="#000000"
       stroke-width="14.17"
       stroke-opacity="1"
       stroke-linejoin="round"
       id="path18" />
    <path
       d="m 1421.2,810.88 c 0,0 5.71,-18.25 5.71,-18.25 0,0 -0.25,-1.72 -0.25,-1.72"
       fill="none"
       stroke="#000000"
       stroke-width="14.17"
       stroke-opacity="1"
       stroke-linejoin="round"
       id="path20" />
    <path
       d="m 1577.88,733.61 c 0,0 2.03,-0.81 2.03,-0.81 3.3,-4.5 11.58,-15.71 16.91,-22.59 5.59,-6.83 16.56,-19.23 22.37,-25.37 5.5,-5.63 17.14,-16.97 22.02,-20.76 4.11,-3.18 16.59,-11.48 23.14,-15.63 4.55,-2.76 8.68,-4.79 11.67,-5.65"
       fill="none"
       stroke="#000000"
       stroke-width="14.17"
       stroke-opacity="1"
       stroke-linejoin="round"
       id="path22" />
    <path
       d="m 1676.88,653.16 c 0.22,7.15 0.57,26.5 0.35,31.8 -0.22,5.14 -2.26,24.35 -3.03,28.94 -1.15,6.72 -6.1,25.33 -7.81,30.89 -1.43,4.55 -4.04,9.94 -6.58,13.65 -2.18,3.1 -20.64,24.64 -21.49,25.64 0,0 4.41,-3.38 4.41,-3.38"
       fill="none"
       stroke="#000000"
       stroke-width="14.17"
       stroke-opacity="1"
       stroke-linejoin="round"
       id="path24" />
    <path
       d="m 1675.67,645.05 c -0.14,1.67 -0.09,2.77 0.28,4.87 0.63,3.55 1.47,8.26 1.68,9.41"
       fill="none"
       stroke="#000000"
       stroke-width="14.17"
       stroke-opacity="1"
       stroke-linejoin="round"
       id="path26" />
    <path
       d="m 1543.1,728.07 c 5.43,-0.98 10.02,-1.59 12.87,-1.37 1.91,0.16 8.4,0.75 9.01,0.44 0.24,-0.13 0.62,-0.49 1.15,-1.1"
       fill="none"
       stroke="#000000"
       stroke-width="14.17"
       stroke-opacity="1"
       stroke-linejoin="round"
       id="path28" />
    <path
       d="m 1491.5,811.89 c -2.55,-0.34 -4.19,-0.13 -5.92,0.98 -2.82,1.82 -5.59,4.76 -7.17,7.15 -1.55,2.41 -2.94,7.3 -3.02,9.8 -0.03,2.56 1.45,6.58 3.3,8.03 1.86,1.4 7.08,2.83 9.82,2.83 2.8,-0.04 7.39,-1.81 9.11,-3.53 1.54,-1.62 3.49,-5.6 3.89,-7.91 0.37,-2.22 0.33,-6.48 -0.21,-8.81 -0.33,-1.17 -2.09,-3.42 -3.54,-4.24 -2.14,-1.15 -10.5,-0.85 -11.24,-0.51"
       fill="none"
       stroke="#000000"
       stroke-width="14.17"
       stroke-opacity="1"
       stroke-linejoin="round"
       id="path30" />
    <path
       d="m 1576.53,810.41 c -2.29,0.07 -7.08,1.02 -9.09,2.16 -2.09,1.22 -4.62,4.81 -5.64,7.36 -0.97,2.49 -1.6,7.82 -1.12,10.12 0.58,2.5 3.99,6.17 6.63,7.24 2.59,1 8.17,1.29 10.47,0.37 2.36,-1.01 5.41,-5.11 6.16,-8.11 0.62,-2.59 0.97,-8.63 0.88,-12.21 -0.08,-1.71 -1.09,-4.63 -2.25,-5.45 -1.12,-0.75 -4.53,-0.95 -5.88,-0.65 -1.74,0.46 -3.27,1.04 -4.37,1.68 -1.81,1.07 -4.45,3.54 -5.53,4.58"
       fill="none"
       stroke="#000000"
       stroke-width="14.17"
       stroke-opacity="1"
       stroke-linejoin="round"
       id="path32" />
    <path
       d="m 1398.5,702.67 c 4.32,9.36 7.87,16 14.29,25.98 4.53,6.88 12.43,18.86 15.16,24.22 0,0 -1.29,-4.68 -1.29,-4.68"
       fill="none"
       stroke="#000000"
       stroke-width="14.17"
       stroke-opacity="1"
       stroke-linejoin="round"
       id="path34" />
    <path
       d="m 1658.91,681.72 c -1.93,0.43 -7.07,2.44 -9.91,4.16 -4.33,2.65 -14.38,11.63 -17.84,15.44 -2.26,2.51 -6.05,7.49 -7.02,9.33 -1.2,2.3 -1.64,4.06 -1.32,4.75"
       fill="none"
       stroke="#000000"
       stroke-width="14.17"
       stroke-opacity="1"
       stroke-linejoin="round"
       id="path36" />
  </g>
  <path
     style="fill:#e7d18b;fill-opacity:1;stroke:#e7d18b;stroke-width:0.841664;stroke-opacity:1"
     d="m 155.68383,341.42692 c -4.05707,-0.66555 -8.48856,-1.78519 -9.84775,-2.48804 -1.35919,-0.70284 -3.75639,-1.27794 -5.32713,-1.27794 -7.28708,0 -27.44734,-9.62432 -40.15263,-19.16853 -13.195349,-9.91233 -33.76407,-32.37692 -35.809729,-39.11045 -0.317506,-1.04501 -1.511942,-3.14738 -2.654378,-4.67195 -3.757813,-5.01471 -9.399783,-18.1563 -12.192788,-28.40002 -2.633711,-9.65958 -2.74613,-10.70376 -2.760172,-25.64043 -0.0125,-12.10037 0.321672,-16.97774 1.494025,-21.88328 2.849923,-11.92479 4.710163,-17.23413 6.407233,-18.28698 1.129561,-0.7008 2.75663,-4.50666 5.061002,-11.83836 3.765938,-11.98162 7.709171,-19.24654 17.561337,-32.35451 6.164186,-8.20122 19.126946,-21.16023 24.7165,-24.70933 9.09048,-5.77201 20.79081,-11.55415 26.57861,-13.134802 8.53515,-2.330956 31.59828,-2.658461 38.93153,-0.552801 2.83692,0.814556 6.58436,1.195979 9.67916,0.985142 2.77751,-0.18917 8.94449,-0.473383 13.7044,-0.631469 l 8.6544,-0.287505 1.24385,2.405375 c 1.60424,3.10226 3.83236,4.2517 7.78913,4.01823 2.49304,-0.14708 5.42134,0.98264 13.54131,5.22417 22.66851,11.84099 34.95776,28.55103 43.29019,58.86274 3.81723,13.8864 4.97521,24.01066 5.39446,47.16317 0.38751,21.38986 -0.59563,38.74065 -2.31187,40.8086 -0.4738,0.57093 -0.79322,3.07297 -0.7098,5.56014 0.17167,5.12117 -2.67446,19.9075 -5.65576,29.38187 -1.81016,5.75259 -2.24896,6.41869 -4.71283,7.15412 -4.03953,1.20581 -8.65765,9.33761 -8.68482,15.29267 -0.0167,3.84882 -0.37709,4.752 -2.95638,7.42646 -3.91923,4.06378 -17.80134,11.84999 -26.34444,14.77608 -12.92568,4.4272 -22.24333,5.8776 -40.13768,6.24794 -11.72994,0.24292 -18.51702,-0.004 -23.78898,-0.87043 z M 127.07064,209.34154 c 8.5854,-3.99711 13.15556,-15.54181 10.26834,-25.93865 -0.95027,-3.42193 -5.34271,-9.0249 -7.07503,-9.0249 -0.58276,0 -2.48934,-1.13627 -4.23687,-2.525 -6.04102,-4.80083 -14.18561,-2.71392 -21.35731,5.47247 -5.458305,6.23052 -7.680467,14.76691 -5.656475,21.72915 1.767775,6.08098 3.918645,8.56777 9.149405,10.57843 6.25548,2.40458 13.35206,2.29517 18.90794,-0.29167 z m 79.98789,-0.4553 c 2.56475,0 3.7126,-0.69468 7.34525,-4.44516 5.11454,-5.28051 6.35281,-8.91082 6.52198,-19.12145 0.0962,-5.81243 -0.215,-7.78559 -1.65974,-10.5208 -2.13407,-4.04023 -3.52255,-4.95571 -9.56803,-6.30865 -3.89023,-0.87055 -5.44643,-0.82214 -9.85254,0.30668 -2.87797,0.73726 -6.19869,1.97353 -7.37946,2.74717 -2.20274,1.44331 -6.33281,6.98874 -7.43883,9.98808 -1.36353,3.69769 -2.14954,10.042 -1.63941,13.23227 0.64668,4.04415 4.69721,9.61682 8.68119,11.94361 2.93593,1.7147 8.78636,3.06039 10.82893,2.49079 0.61647,-0.17208 2.4888,-0.3125 4.16066,-0.3125 z"
     id="path878" />
  <path
     style="fill:#e7d18b;fill-opacity:1;stroke:#e7d18b;stroke-width:0.841664;stroke-opacity:1"
     d="m 264.08894,129.24432 c -3.1418,-5.40185 -6.32914,-9.25645 -12.83767,-15.52531 -9.2912,-8.94898 -11.19115,-10.32713 -22.88422,-16.598776 l -7.59683,-4.07461 6.82907,-8.781606 c 19.97288,-25.683348 40.78814,-46.289695 59.14308,-58.549443 11.21798,-7.49275 11.85415,-7.801172 12.37337,-5.998809 1.08494,3.766147 0.69956,31.993955 -0.59813,43.809237 -1.95783,17.826424 -7.59701,41.218817 -12.07437,50.086927 -2.00462,3.9704 -16.68833,22.85022 -17.75397,22.82734 -0.23167,-0.004 -2.30158,-3.24268 -4.60033,-7.19495 z M 257.0687,84.587815 c 0.78385,-0.706304 1.68686,-2.475833 2.00666,-3.932316 0.86693,-3.947983 6.91966,-11.286898 14.88883,-18.052595 6.26082,-5.315381 14.46533,-10.234506 17.10917,-10.258089 1.86407,-0.01667 3.87585,-3.324306 3.87585,-6.372441 0,-10.751139 -14.11032,-7.789214 -30.28046,6.35619 -14.75413,12.906676 -21.65624,24.211491 -18.4944,30.291343 2.14433,4.123319 7.44054,5.080002 10.89435,1.967908 z"
     id="path880" />
  <path
     style="fill:#e7d18b;fill-opacity:1;stroke:#e7d18b;stroke-width:0.841664;stroke-opacity:1"
     d="m 284.41758,244.47588 c 0.37625,-4.52954 0.68418,-14.76921 0.68418,-22.75484 0,-7.98564 0.24958,-14.51904 0.55488,-14.51871 1.80349,0.002 11.69832,7.81126 14.39758,11.36307 4.19586,5.52109 10.86059,18.78794 10.54538,20.99169 -0.46613,3.25888 -13.4536,9.93075 -24.4987,12.58533 l -2.3675,0.56901 z"
     id="path882" />
  <path
     style="fill:#e7d18b;fill-opacity:1;stroke:#e7d18b;stroke-width:0.841664;stroke-opacity:1"
     d="m 251.44777,355.01328 c -4.23419,-1.62999 -5.37488,-2.5305 -7.15416,-5.64785 -1.16423,-2.03978 -2.10253,-4.8285 -2.08512,-6.19714 0.025,-2.11658 0.72802,-2.89539 4.69117,-5.21113 6.00118,-3.50669 14.88754,-12.94501 18.83673,-20.00684 1.70378,-3.04663 3.50256,-5.5393 3.99732,-5.5393 1.82415,0 7.33591,6.83478 8.31609,10.31226 0.55426,1.96636 0.96385,6.52115 0.91019,10.12175 -0.15751,10.55905 -4.74813,18.97778 -11.95404,21.92178 -5.57559,2.27792 -10.09508,2.34954 -15.55818,0.24668 z"
     id="path884" />
  <path
     style="fill:#e7d18b;fill-opacity:1;stroke:#e7d18b;stroke-width:0.841664;stroke-opacity:1"
     d="m 102.60077,370.76642 c -0.97022,-0.97019 -0.61063,-7.5048 0.6001,-10.90594 0.63867,-1.79415 2.69583,-6.5729 4.57145,-10.61943 l 3.41022,-7.35733 7.00145,3.03001 c 3.85078,1.66649 8.87319,3.68036 11.16086,4.4752 2.2877,0.79489 4.29919,1.86453 4.47003,2.37704 0.17084,0.51255 -2.40804,3.7939 -5.73085,7.29196 -7.06312,7.43566 -15.48955,12.26962 -21.38802,12.26962 -1.94379,0 -3.78665,-0.2525 -4.09524,-0.56113 z"
     id="path886" />
  <path
     style="fill:#e7d18b;fill-opacity:1;stroke:#e7d18b;stroke-width:0.841664;stroke-opacity:1"
     d="m 27.131504,287.21472 c -4.777206,-0.96393 -8.270723,-3.23468 -10.734848,-6.97757 -2.252621,-3.42165 -2.305997,-3.78457 -2.113493,-14.37495 0.217503,-11.96016 0.981099,-14.23116 6.287105,-18.69586 3.563102,-2.99818 12.517294,-7.42563 13.290807,-6.57178 0.346673,0.38251 1.301189,3.53639 2.121077,7.00824 2.227371,9.43154 6.029768,19.8188 9.955001,27.19475 l 3.498434,6.57395 -2.328331,2.02461 c -4.287947,3.72853 -12.573086,5.31234 -19.975752,3.81861 z"
     id="path888" />
  <path
     style="fill:#e7d18b;fill-opacity:1;stroke:#e7d18b;stroke-width:0.841664;stroke-opacity:1"
     d="M 42.07263,156.91345 C 36.385617,151.07706 30.717981,140.34863 26.641579,127.70366 22.220963,113.99093 17.462424,91.306511 16.216778,78.007371 15.233304,67.507695 15.136302,43.516125 16.056776,38.449123 l 0.611635,-3.366682 4.48395,4.629161 c 7.618337,7.865008 17.680423,20.880185 26.67849,34.508247 9.126362,13.822399 20.457094,34.973671 22.598755,42.185501 l 1.284314,4.32474 -5.639012,7.67604 c -5.9416,8.08802 -14.890833,21.66316 -16.157521,24.50938 -0.412091,0.92584 -1.208354,2.91429 -1.769655,4.41874 -0.56126,1.50448 -1.465817,2.73542 -2.010076,2.73542 -0.544259,0 -2.37354,-1.42032 -4.065026,-3.15622 z m 20.026211,-35.10126 c 3.333181,-3.33322 2.362165,-10.23542 -2.136786,-15.18821 C 56.1722,102.45174 43.941328,82.904203 38.301941,72.00652 32.353091,60.510702 30.31839,58.735922 25.415975,60.76654 c -2.9373,1.216687 -4.176154,3.108635 -4.176154,6.377899 0,3.152344 8.140637,18.373183 18.678231,34.923461 4.837623,7.59792 9.650329,15.23234 10.69493,16.96541 1.044642,1.73307 2.532667,3.5206 3.306805,3.97232 2.523626,1.47256 6.023768,0.96185 8.179054,-1.19344 z"
     id="path890" />
  <path
     style="fill:#ffffff;fill-opacity:1;stroke:#ffffff;stroke-width:0.297573;stroke-opacity:1"
     d="m 114.38643,197.25717 c -1.82366,-0.5718 -2.37312,-1.27948 -2.38033,-3.06568 -0.004,-1.43948 1.06243,-4.89996 1.92199,-6.22585 l 0.68805,-1.06136 4.71862,0.0208 4.71866,0.0208 0.0863,2.6285 c 0.08,2.43175 0.0125,2.78584 -0.88235,4.73017 -0.88235,1.91428 -1.10227,2.16378 -2.46696,2.79929 -1.80941,0.84256 -4.03953,0.89664 -6.40402,0.15542 z"
     id="path892" />
  <path
     style="fill:#ffffff;fill-opacity:1;stroke:#ffffff;stroke-width:0.297573;stroke-opacity:1"
     d="m 199.93466,195.21367 c -0.32751,-0.0783 -1.09731,-0.62546 -1.71107,-1.21618 -1.03402,-0.99523 -1.1159,-1.19877 -1.1159,-2.77472 0,-1.98482 0.19667,-2.64212 0.79056,-2.64212 0.81368,0 2.32362,-0.98194 4.61537,-3.00139 2.23454,-1.96903 3.71289,-2.95009 4.44553,-2.95009 0.27167,0 0.31209,0.99156 0.16667,4.09165 -0.22125,4.71571 -0.46122,5.77585 -1.69044,7.4728 l -0.89189,1.23122 -2.00679,-0.0333 c -1.10368,-0.0208 -2.27454,-0.0983 -2.60188,-0.17667 z"
     id="path894" />
</svg>
