<?xml version="1.0" encoding="UTF-8" standalone="no"?>
<svg
   xmlns:dc="http://purl.org/dc/elements/1.1/"
   xmlns:cc="http://creativecommons.org/ns#"
   xmlns:rdf="http://www.w3.org/1999/02/22-rdf-syntax-ns#"
   xmlns:svg="http://www.w3.org/2000/svg"
   xmlns="http://www.w3.org/2000/svg"
   xmlns:sodipodi="http://sodipodi.sourceforge.net/DTD/sodipodi-0.dtd"
   xmlns:inkscape="http://www.inkscape.org/namespaces/inkscape"
   width="209.19809"
   height="209.19661"
   viewBox="0 0 871.65872 871.66718"
   version="1.1"
   id="svg37"
   sodipodi:docname="zain-profile-pic-cream.svg"
   inkscape:version="1.0.1 (3bc2e813f5, 2020-09-07)">
  <metadata
     id="metadata43">
    <rdf:RDF>
      <cc:Work
         rdf:about="">
        <dc:format>image/svg+xml</dc:format>
        <dc:type
           rdf:resource="http://purl.org/dc/dcmitype/StillImage" />
        <dc:title />
      </cc:Work>
    </rdf:RDF>
  </metadata>
  <defs
     id="defs41" />
  <sodipodi:namedview
     pagecolor="#ffffff"
     bordercolor="#666666"
     borderopacity="1"
     objecttolerance="10"
     gridtolerance="10"
     guidetolerance="10"
     inkscape:pageopacity="0"
     inkscape:pageshadow="2"
     inkscape:window-width="2560"
     inkscape:window-height="1377"
     id="namedview39"
     showgrid="false"
     inkscape:zoom="4.9505892"
     inkscape:cx="86.824626"
     inkscape:cy="121.10763"
     inkscape:window-x="1912"
     inkscape:window-y="-8"
     inkscape:window-maximized="1"
     inkscape:current-layer="svg37"
     inkscape:document-rotation="0" />
  <g
     stroke-linecap="round"
     id="Layer_1"
     transform="translate(-1084.9137,-904.42239)">
    <path
       d="m 1496.54,1770.93 c -11.25,-0.64 -45.94,-5.16 -61.13,-8.02 -7.53,-1.54 -22.43,-4.94 -29.78,-7.01 -14.68,-4.33 -43.95,-14.77 -58.12,-20.74 -13.99,-6.16 -41.03,-20.61 -54.33,-28.71 -6.56,-4.14 -19.38,-12.67 -25.66,-17.06 -10.03,-7.21 -35.75,-29 -47.03,-39.7 -13.88,-13.6 -28.9,-30.41 -40.86,-45.72 -9.37,-12.41 -28.15,-40.41 -34.19,-51.19 -7.33,-13.44 -20.64,-41.52 -26.44,-55.76 -5.54,-14.25 -14.43,-43.59 -18.11,-58.72 -1.71,-7.56 -4.75,-22.66 -6.08,-30.2 -1.99,-12.19 -4.77,-45.8 -5.18,-61.34 -0.2,-19.43 1.06,-41.94 3.44,-61.22 2.14,-15.4 8.66,-48.48 12.01,-60.37 4.33,-14.69 14.77,-43.95 20.74,-58.12 6.16,-14 20.61,-41.03 28.71,-54.33 4.14,-6.56 12.67,-19.39 17.06,-25.66 7.21,-10.03 29,-35.75 39.71,-47.03 13.59,-13.88 30.4,-28.9 45.71,-40.86 12.41,-9.37 40.41,-28.15 51.19,-34.19 13.45,-7.33 41.52,-20.64 55.76,-26.44 14.25,-5.54 43.59,-14.43 58.72,-18.11 7.56,-1.71 22.66,-4.75 30.21,-6.08 12.18,-2 45.79,-4.78 61.33,-5.18 19.43,-0.21 41.94,1.06 61.22,3.43 15.4,2.15 48.48,8.67 60.37,12.02 14.69,4.33 43.95,14.77 58.12,20.74 14,6.15 41.03,20.61 54.33,28.71 6.56,4.14 19.39,12.67 25.66,17.06 10.03,7.21 35.75,29 47.03,39.7 13.88,13.6 28.91,30.41 40.86,45.72 9.37,12.41 28.15,40.41 34.19,51.19 7.33,13.44 20.64,41.52 26.44,55.76 5.54,14.25 14.43,43.59 18.11,58.72 1.71,7.56 4.75,22.66 6.08,30.2 2,12.19 4.78,45.79 5.18,61.34 0.21,19.43 -1.06,41.93 -3.43,61.22 -2.15,15.4 -8.67,48.48 -12.02,60.37 -4.33,14.69 -14.77,43.95 -20.73,58.12 -6.16,13.99 -20.62,41.03 -28.72,54.33 -4.14,6.56 -12.66,19.39 -17.06,25.66 -7.21,10.03 -29,35.75 -39.7,47.03 -13.6,13.88 -30.41,28.9 -45.72,40.86 -12.41,9.37 -40.41,28.15 -51.19,34.19 -13.44,7.33 -41.52,20.64 -55.76,26.44 -14.25,5.54 -43.59,14.43 -58.72,18.11 -7.56,1.71 -22.66,4.75 -30.2,6.08 -12.19,1.99 -45.79,4.77 -61.34,5.18 -7.72,0.08 -26.97,-0.22 -30.68,-0.42 z"
       fill="none"
       stroke="#000000"
       stroke-width="9.45"
       stroke-opacity="1"
       stroke-linejoin="round"
       id="path2" />
    <path
       d="m 1308.36,1131.04 c -5.45,4.27 -17.37,13.62 -23.82,18.7 -9.19,7.34 -17.32,14.77 -22.59,21.18 -4.85,5.94 -13.61,19.07 -17.81,25.45 -4.86,7.51 -10.18,16.78 -13.34,23.84 -0.74,1.66 -8.61,20.42 -10.52,26.95 -2.3,7.96 -3.35,24.64 -2.92,30.28 0.37,4.53 2.22,10.52 3.33,12.86 1.03,2.11 4.99,8.18 7.18,10.13 1.6,1.38 7.89,4.95 11.12,6.16 5.26,1.93 20.85,4.29 28.18,4.65 6.22,0.28 22.7,-0.27 30.33,-1.21 9.46,-1.18 39.01,-7.74 55.16,-12.16 11.48,-3.44 44.7,-14.81 59.95,-20.16 14.26,-5.2 41.87,-15.53 55.24,-20.95 14.41,-6.16 43.92,-18.98 59.01,-25.63 6.61,-3.03 22.73,-10.71 25.58,-12.32 6.57,-3.74 38.87,-24.82 52.91,-34.08 13.96,-9.38 40.93,-27.71 53.94,-36.67 12.15,-8.69 39.86,-29.93 47.59,-36.51 7.67,-6.82 36.34,-34.34 44.3,-42.74 5.97,-6.46 13.16,-15.65 19.71,-24.95 4.64,-6.82 13.94,-20.74 18.6,-27.86 2.84,-4.43 3,-4.87 2.84,-5.58 -0.99,-0.14 -3.7,-0.51 -4.75,-0.62 -1.05,-0.1 -3.62,-0.27 -4.55,-0.33"
       fill="none"
       stroke="#000000"
       stroke-width="14.17"
       stroke-opacity="1"
       stroke-linejoin="round"
       id="path4" />
    <path
       d="m 1237.52,1020.82 c -0.18,-0.04 9.9,14.19 14.33,20.74 18.08,28.12 43.47,68.3 49.71,77.15 8.4,11.31 30.2,36.56 40,47.34 5.41,5.81 11.14,10.41 12.05,11.15 -0.97,-1.49 -3.57,-5.42 -4.38,-6.59 -0.8,-1.16 -2.04,-2.8 -2.74,-3.68"
       fill="none"
       stroke="#000000"
       stroke-width="14.17"
       stroke-opacity="1"
       stroke-linejoin="round"
       id="path6" />
    <path
       d="m 1354.77,1178.19 c 7.06,-2.63 36.02,-12.09 49.99,-17 16.2,-5.92 48.63,-18.63 64.54,-25.32 13.66,-5.91 42.44,-18.65 52.29,-23.83 19.43,-10.54 34.74,-20 51.61,-31.65 26.02,-18.37 76.91,-54.85 101.77,-72.94 9.38,-7.17 17.08,-13.67 22.38,-19.39 5.98,-6.5 21.78,-27.77 23.27,-29.77"
       fill="none"
       stroke="#000000"
       stroke-width="14.17"
       stroke-opacity="1"
       stroke-linejoin="round"
       id="path8" />
    <path
       d="m 1818,1128.97 c -1.93,-2.09 -7.22,-7.83 -7.66,-8.08 -1.57,-0.86 -10.64,-0.86 -14.69,-0.66 -4.52,0.24 -11.05,1.45 -14.46,2.6 -2.92,1.02 -9.44,4.11 -12.24,6.07 -3.31,2.37 -7.74,7.12 -9.83,10.61 -1.86,3.16 -4.35,10.01 -5.13,13.25 -0.84,3.57 -1.6,10.19 -1.95,15.72 -0.24,3.99 0.48,11.31 1.23,13.88 1.04,3.41 5.71,11.13 7.21,13.09 2.35,3.04 7.99,7.42 11.56,9.23 3.34,1.66 11.05,3.96 14.79,4.44 3.82,0.46 11.07,0.16 15.17,-0.35 4.98,-0.67 9.56,-1.59 12.16,-2.61 6,-2.42 15.89,-8.8 18.96,-12.52 2.04,-2.52 6,-11.34 6.81,-13.92 1.13,-3.69 1.95,-10.42 2.03,-14.47 0.06,-5.01 -0.2,-9.83 -0.95,-13.63 -0.79,-3.88 -2.96,-8.74 -5.41,-12.68 -2.32,-3.65 -6.73,-8.36 -10.16,-10.44 -3.1,-1.83 -8.93,-3.81 -11.42,-4.25 -4.07,-0.66 -9.82,-0.19 -11.39,1.48 -0.13,0.15 -0.31,0.39 -0.55,0.74"
       fill="none"
       stroke="#000000"
       stroke-width="14.17"
       stroke-opacity="1"
       stroke-linejoin="round"
       id="path10" />
    <path
       d="m 1570.86,1249.48 c -3.21,0.09 -11.75,0.37 -14.48,0.74 -4.2,0.58 -11.5,3.1 -14.48,4.65 -3.25,1.7 -9.53,5.88 -12.45,8.3 -2.88,2.41 -7.46,7.9 -9,10.33 -1.71,2.77 -4.4,9.57 -5.13,12.95 -0.76,3.69 -0.87,11.05 -0.49,16.11 0.33,4.05 1.43,8.52 2.59,11.03 2.61,5.5 9.58,14.07 14.11,17.89 4.6,3.84 15.43,9.49 21.58,11.23 6.21,1.73 19.37,2.91 25.79,2.16 2.91,-0.35 9.57,-1.87 12.56,-2.95 3.36,-1.24 8.27,-3.76 11.11,-5.71 2.51,-1.75 7.14,-6.07 8.8,-8.08 1.62,-1.99 4.77,-7.16 5.88,-9.78 2.14,-5.15 3.77,-16.31 3.46,-22.59 -0.35,-6.51 -3.54,-18.69 -5.15,-21.76 -1.27,-2.4 -6.32,-9.1 -7.61,-10.64 -2.54,-3 -7.63,-7.56 -10.94,-9.56 -3.2,-1.91 -9.24,-4.43 -12.74,-5.31 -3.55,-0.86 -9.86,-1.61 -13.39,-1.48 -3.31,0.15 -9.08,1.94 -10.74,2.98 -1.09,0.69 -3.28,2.57 -3.87,3.29 -0.18,0.23 -0.47,0.66 -0.88,1.29"
       fill="none"
       stroke="#000000"
       stroke-width="14.17"
       stroke-opacity="1"
       stroke-linejoin="round"
       id="path12" />
    <path
       d="m 1422.76,1275.62 c -1.28,1.35 -2.06,3.2 -2.21,5.62 -0.39,6.22 1.8,18.17 4.56,27.73 4.31,14.08 16.3,49.96 20.27,60.37 4.7,11.74 9.59,21.72 14.68,30.73 4.63,7.93 11.94,19.12 15.61,23.4 2.96,3.36 4.34,3.74 5.86,3.56 0,0 0.91,-5.6 0.91,-5.6"
       fill="none"
       stroke="#000000"
       stroke-width="14.17"
       stroke-opacity="1"
       stroke-linejoin="round"
       id="path14" />
    <path
       d="m 1460.78,1414.32 c -4.8,1.94 -18.14,10.9 -24.88,15.5 -9.1,6.47 -18.82,14.03 -23.38,18.86 -5.27,5.6 -12.12,14.71 -15.3,21.12 -1.34,2.74 -4,9.86 -4.84,13.27 -0.93,3.85 -1.74,10.01 -1.81,13.79 -0.05,3.41 0.9,10.41 1.68,13.12 0.85,2.84 3.81,8.94 5.81,11.53 2.29,2.91 7.1,7.17 10.47,9.26 4.96,3.04 18.67,7.64 26.61,9.1 5.27,0.96 20.47,2.24 27.09,2.48 5.94,0.17 24.61,-0.48 29.22,-1.09 6.43,-0.88 19.24,-5.32 26.16,-8.85 3.84,-1.99 9.14,-5.74 11.91,-8.88 1.44,-1.67 2.89,-3.62 3.99,-5.32 0.25,-0.39 0.62,-0.99 1.1,-1.8"
       fill="none"
       stroke="#000000"
       stroke-width="14.17"
       stroke-opacity="1"
       stroke-linejoin="round"
       id="path16" />
    <path
       d="m 1522.23,1493.22 c 3.58,6.78 8.42,14.04 15.39,23.31 9.24,11.92 27.52,31.39 37.6,40.58 7.84,6.82 16.89,13.96 22.54,18.2 5.72,4.12 17.83,11.87 24.1,15.61 13.32,7.68 33.6,17.15 55.16,26.08 12.59,4.95 41.93,13.72 57.13,18.07 19.63,5.02 42.86,9.77 61.87,12.93 7.95,1.2 19.39,2.88 22.87,3.35"
       fill="none"
       stroke="#000000"
       stroke-width="14.17"
       stroke-opacity="1"
       stroke-linejoin="round"
       id="path18" />
    <path
       d="m 1731.01,1335.51 c 0,0 0.68,-1.02 0.68,-1.02 -0.5,-0.76 -6.32,1.79 -10.46,4.38 -3.68,2.34 -8.38,6.54 -9.94,9.1 -1.46,2.49 -2.82,7.79 -3.26,11.85 -0.28,2.88 0.09,7.94 0.71,13.03 0.61,5.08 0.76,8.86 -0.12,10.7 -1.74,3.46 -4.7,7.19 -7.89,10.03 -2.5,2.18 -8.73,6.43 -11.83,7.97 -2.36,1.15 -9.72,3.94 -10.37,4.06 -0.47,0.09 -1.4,0.16 -2.79,0.22"
       fill="none"
       stroke="#000000"
       stroke-width="14.17"
       stroke-opacity="1"
       stroke-linejoin="round"
       id="path20" />
    <path
       d="m 1682.84,1410.16 c 2.73,1.25 9.7,4.37 12.97,5.14 3.37,0.78 10.43,0.81 13.33,0.64 4.59,-0.3 10.53,-1.77 14.38,-3.16 4.14,-1.52 16.59,-10.87 19.83,-13.96 2.73,-2.65 7.18,-8.26 8.65,-10.67 1.93,-3.26 5.05,-10.83 5.96,-14.27 0.95,-3.73 1.64,-9.47 1.63,-13.31 -0.03,-3.1 -1.25,-9.25 -2.01,-10.36 0,0 -3.97,5.28 -3.97,5.28"
       fill="none"
       stroke="#000000"
       stroke-width="14.17"
       stroke-opacity="1"
       stroke-linejoin="round"
       id="path22" />
    <path
       d="m 1728.46,1335.68 c 1.72,-0.81 5.02,-2.32 5.95,-2.59 1.66,-0.45 4.48,-0.28 6.28,0.48 3.27,1.45 8.81,6.93 10.22,8.69 1.55,1.97 3.93,6.81 4.23,8.72 0.17,1.09 0.45,5.96 0.42,6.91 -0.01,0.41 -0.06,0.99 -0.17,1.72"
       fill="none"
       stroke="#000000"
       stroke-width="14.17"
       stroke-opacity="1"
       stroke-linejoin="round"
       id="path24" />
    <path
       d="m 1793.53,1313.44 c -3.25,-0.47 -10.71,-1.48 -13.94,-1.01 -1.93,0.29 -8.91,2.56 -11.26,3.84 -2.43,1.34 -10.21,6.84 -11.86,8.81 -1.14,1.4 -3.34,7.01 -3.72,9.64 -0.33,2.4 -0.33,7.08 0.06,9.23 0.5,2.5 1.75,5.25 3.61,7.79 2.73,3.64 5.19,6.71 8.07,10.06 2.02,2.28 4.95,4.18 6.87,4.69 2.1,0.52 9.79,0.76 11.56,0.47 3.09,-0.51 9.5,-3.22 11.2,-3.98"
       fill="none"
       stroke="#000000"
       stroke-width="14.17"
       stroke-opacity="1"
       stroke-linejoin="round"
       id="path26" />
    <path
       d="m 1779.06,1366.34 c 5.04,0.71 10.55,1.18 14.63,0.64 2.45,-0.35 11.46,-2.46 14.19,-3.75 5.01,-2.43 15.29,-11.86 18.05,-15.24 2.02,-2.5 13.75,-18.88 13.97,-19.3 0.09,-0.17 0.14,-0.38 0.15,-0.62"
       fill="none"
       stroke="#000000"
       stroke-width="14.17"
       stroke-opacity="1"
       stroke-linejoin="round"
       id="path28" />
    <path
       d="m 1784.98,1310.52 c 0.75,-0.9 4.78,0.04 9.19,1.94 6.02,2.81 13.57,10.07 15.52,11.99 0,0 1.31,-0.74 1.31,-0.74"
       fill="none"
       stroke="#000000"
       stroke-width="14.17"
       stroke-opacity="1"
       stroke-linejoin="round"
       id="path30" />
    <path
       d="m 1800.46,1315.73 c 1.8,2.21 3.85,4.2 5.53,5.07 2.15,1.1 9.61,3.29 11.96,3.41 3.17,0.1 6.97,-0.37 9.68,-1.25 2.85,-0.98 11.2,-7.27 11.5,-7.73 0.18,-0.29 0.44,-0.95 0.79,-2"
       fill="none"
       stroke="#000000"
       stroke-width="14.17"
       stroke-opacity="1"
       stroke-linejoin="round"
       id="path32" />
    <path
       d="m 1845.31,1312.33 c -0.59,3.07 -2.17,10.71 -2.47,11.71 -0.89,2.85 -4.79,8.72 -6.26,10.21 -0.4,0.4 -1.37,1.3 -2.93,2.7"
       fill="none"
       stroke="#000000"
       stroke-width="14.17"
       stroke-opacity="1"
       stroke-linejoin="round"
       id="path34" />
  </g>
  <path
     style="fill:#4f4f4f;fill-opacity:1;stroke:#4f4f4f;stroke-width:0.841664;stroke-opacity:1"
     d="m 269.58364,261.72483 c -2.40491,-3.64689 -5.79326,-6.23398 -8.16472,-6.23398 -1.38744,0 -26.9642,-29.40366 -37.6633,-43.29864 -1.80219,-2.3405 -13.95281,-20.92039 -27.00137,-41.28865 -21.92503,-34.22404 -35.6296,-54.94043 -37.02654,-55.97074 -3.71835,-2.74246 8.63615,-13.01667 43.78524,-36.412483 15.36817,-10.229297 22.74467,-14.479077 39.13741,-22.547879 27.38375,-13.478768 40.59193,-18.963069 61.44153,-25.511637 20.66168,-6.489568 32.35492,-9.59062 49.43346,-13.10972 39.21349,-8.0801779 92.7693,-10.1103787 133.20782,-5.049752 9.983,1.249313 33.5401,5.54951 48.5849,8.868857 13.82556,3.050302 38.48398,10.966476 59.98984,19.258699 14.0529,5.418508 30.98202,13.572603 30.56843,14.723623 -0.66776,1.858447 -16.73486,21.920368 -20.89777,26.093646 -9.18953,9.212489 -23.46277,19.838626 -95.65719,71.214866 -53.21052,37.86659 -66.52891,45.66406 -113.06719,66.19724 -32.98576,14.55362 -66.10228,27.40987 -100.49052,39.01161 -12.91301,4.35649 -23.51798,7.91263 -23.56661,7.90242 -0.0488,-0.008 -1.22469,-1.74153 -2.61342,-3.84748 z"
     id="path868" />
  <path
     style="fill:#4f4f4f;fill-opacity:1;stroke:#4f4f4f;stroke-width:0.841664;stroke-opacity:1"
     d="m 179.10466,399.68657 c -30.5503,-3.12372 -39.55824,-10.54126 -39.55824,-32.57392 0,-12.72534 1.8669,-21.83458 7.26558,-35.45114 6.11031,-15.41151 12.09491,-26.71087 22.05799,-41.64724 10.7026,-16.04498 16.11461,-22.75084 24.18503,-29.96692 8.27056,-7.395 30.24326,-24.7795 31.20857,-24.69175 0.39167,0.0375 4.68866,4.8365 9.54929,10.66868 11.82774,14.19194 31.02973,33.60348 33.97102,34.34166 5.45055,1.36802 89.47347,-29.32045 132.67861,-48.4594 56.1619,-24.87854 64.66996,-30.20188 171.2788,-107.16643 37.88347,-27.349372 43.38864,-32.25958 58.38743,-52.077455 l 8.72928,-11.533944 2.63321,1.344856 c 11.5714,5.909808 44.46562,26.97962 52.25029,33.468021 l 2.48384,2.070243 -2.27342,1.78828 c -3.11022,2.446499 -3.20801,7.613589 -0.19708,10.404179 l 2.07645,1.9244 -10.43064,15.49997 c -5.73688,8.52498 -12.98009,18.66557 -16.09602,22.53467 -5.03087,6.2469 -30.05863,31.45236 -46.22198,46.5502 -17.73501,16.56591 -61.39745,48.18552 -116.99139,84.7233 -39.6567,26.06344 -46.16865,29.74904 -75.32901,42.63463 -52.99623,23.41836 -85.27368,36.04765 -135.08719,52.8561 -52.54388,17.72967 -91.45649,25.32693 -116.57058,22.75901 z"
     id="path870" />
  <path
     style="fill:#ffffff;fill-opacity:1;stroke:#ffffff;stroke-width:0.841664;stroke-opacity:1"
     d="m 703.04101,297.81519 c -12.01378,-1.66015 -20.80201,-7.71338 -26.27252,-18.09626 -2.20104,-4.17745 -2.34033,-5.0653 -2.28258,-14.54891 0.12042,-19.80492 5.8608,-31.41541 18.69806,-37.81976 5.54484,-2.76622 16.3684,-5.35022 16.81378,-4.01403 0.17042,0.51072 1.06927,1.89441 1.99787,3.07493 1.97078,2.50541 5.60472,2.83484 10.18071,0.92284 2.85409,-1.19252 2.99026,-1.15851 5.36318,1.33907 2.19145,2.30658 2.83488,2.52525 6.43881,2.1882 3.82353,-0.3575 4.15324,-0.2125 7.31192,3.21414 1.81932,1.97374 4.37311,5.61122 5.67509,8.0833 2.29025,4.34845 2.36725,4.90533 2.36725,17.11962 v 12.62497 l -3.02209,6.35102 c -3.39756,7.14024 -6.47432,10.12525 -15.04342,14.59504 -7.2007,3.75602 -20.30163,6.06085 -28.22606,4.96583 z"
     id="path872" />
  <path
     style="fill:#ffffff;fill-opacity:1;stroke:#ffffff;stroke-width:0.841664;stroke-opacity:1"
     d="m 477.12484,432.92542 c -9.82833,-1.22998 -22.73209,-7.45263 -28.77228,-13.87498 -9.11827,-9.69517 -11.69844,-15.64323 -11.69844,-26.96837 0,-15.60252 8.37764,-28.03489 23.98169,-35.58869 3.69502,-1.78869 3.94724,-1.80482 6.83124,-0.43625 2.50184,1.18718 3.40373,1.25152 5.48126,0.39084 1.36769,-0.56651 2.8643,-1.73562 3.32581,-2.59792 0.66768,-1.24756 1.8219,-1.56899 5.64909,-1.57311 2.69142,-0.003 5.90873,-0.57814 7.30467,-1.30602 3.28076,-1.71074 7.54575,-0.9871 15.39088,2.61125 9.25599,4.24549 19.08211,15.05071 21.35173,23.47927 2.89951,10.7676 3.35977,15.03492 2.4503,22.71863 -2.02804,17.13404 -11.82045,28.05039 -29.13458,32.47863 -6.92191,1.77032 -12.09791,1.92599 -22.16137,0.66655 z"
     id="path874" />
  <path
     style="fill:#4f4f4f;fill-opacity:1;stroke:#4f4f4f;stroke-width:0.841664;stroke-opacity:1"
     d="m 610.67438,503.6474 -2.3085,-0.84331 5.25434,-3.49951 c 6.65611,-4.43316 11.50765,-9.25991 14.60599,-14.53129 l 2.43163,-4.13711 v -15.14996 c 0,-12.82684 0.22542,-15.56189 1.46919,-17.83639 1.79265,-3.27789 10.28113,-9.5177 12.94755,-9.5177 1.06623,0 3.27405,-0.63684 4.90621,-1.41519 2.94963,-1.40656 2.98646,-1.3999 6.07618,1.10081 5.18292,4.1949 6.45128,6.45453 6.28348,11.19452 -0.14917,4.21553 2.54367,11.84478 4.18082,11.84478 1.97483,0 0.0471,7.88655 -4.03473,16.50782 -4.77325,10.08126 -21.07623,23.50861 -31.53753,25.97477 -6.01481,1.4179 -16.78808,1.58145 -20.27463,0.30793 z"
     id="path876" />
  <path
     style="fill:#4f4f4f;fill-opacity:1;stroke:#4f4f4f;stroke-width:0.841664;stroke-opacity:1"
     d="m 685.37559,453.17755 c -1.58832,-1.39456 -3.87819,-4.55966 -5.0885,-7.03349 -1.21036,-2.47384 -2.92988,-5.15788 -3.82123,-5.96456 -1.88237,-1.70349 -2.23067,-8.23664 -0.66935,-12.55438 1.2794,-3.5381 9.06261,-9.20965 15.69693,-11.43819 4.68071,-1.57228 6.0111,-1.67861 11.62282,-0.92872 6.06306,0.81018 6.61386,1.07568 12.73718,6.14072 l 6.40006,5.29397 9.09982,-0.22501 c 5.00488,-0.12375 10.24551,-0.55334 11.64578,-0.95493 2.38912,-0.68522 3.54481,0.11917 1.75799,1.22331 -0.43343,0.26792 -2.53734,3.11839 -4.67541,6.33448 -4.532,6.81712 -15.12163,16.9075 -20.45214,19.48796 -3.52981,1.70873 -3.85194,1.72915 -6.60119,0.41813 -3.64956,-1.74036 -4.40304,-1.72553 -8.86549,0.17417 -2.00578,0.85393 -6.40365,1.7797 -9.77308,2.0572 -5.93376,0.48876 -6.21702,0.42492 -9.01419,-2.03103 z"
     id="path878" />
  <path
     style="fill:#e9d394;fill-opacity:1;stroke:#e9d394;stroke-width:0.841664;stroke-opacity:1"
     d="m 720.72064,738.11922 c -29.12078,-4.50225 -61.29811,-11.55757 -84.592,-18.54798 -33.68757,-10.10955 -43.28981,-13.68007 -69.85818,-25.9764 -16.38806,-7.58467 -24.30874,-11.93899 -38.29572,-21.05273 -16.66674,-10.85976 -30.84411,-22.58463 -45.44989,-37.58755 -17.9766,-18.46531 -28.10114,-30.91477 -36.1744,-44.48112 -1.79062,-3.00897 -3.98928,-6.13364 -4.88592,-6.94374 -2.1857,-1.97474 -5.7748,-1.85986 -8.48443,0.27167 -4.2282,3.32593 -2.54446,8.81211 6.76965,22.05737 3.29873,4.691 3.15972,5.23851 -2.70146,10.64118 -4.33824,3.99882 -12.23179,7.92301 -23.11914,11.49336 -7.04587,2.31058 -7.47904,2.34692 -28.6166,2.40275 -23.26389,0.0612 -31.54024,-0.7441 -43.05356,-4.1902 -20.39893,-6.10564 -28.38298,-14.56607 -29.17853,-30.91943 -0.81039,-16.65891 5.26021,-30.90798 19.55066,-45.88977 7.8173,-8.19552 28.40169,-23.36194 41.74503,-30.75748 l 5.28676,-2.93013 3.57056,4.85029 c 1.96382,2.66763 4.88937,5.66534 6.50123,6.66153 2.85147,1.76228 7.51096,2.34687 10.26926,1.28839 2.17445,-0.83439 3.82736,-4.94025 4.04482,-10.04733 0.17667,-4.14836 -0.055,-4.93429 -1.89303,-6.42344 -1.58236,-1.28202 -2.93447,-1.60203 -5.53176,-1.30928 l -3.43752,0.38751 -5.51663,-8.50681 c -6.82095,-10.51813 -12.03404,-20.1488 -17.13371,-31.65261 -4.70874,-10.6221 -22.36387,-62.6956 -25.22351,-74.39638 -2.68904,-11.00285 -3.52651,-20.02425 -1.9722,-21.24548 0.63327,-0.49755 9.48387,-4.04586 19.668,-7.88513 22.02837,-8.30435 76.67225,-31.8315 96.79146,-41.67395 15.63685,-7.64963 41.01532,-23.73353 90.89978,-57.60872 47.44721,-32.22009 69.74559,-49.68575 98.07127,-76.81638 26.70216,-25.57559 33.14089,-33.23976 53.22302,-63.3524 5.55693,-8.33247 10.39893,-15.26483 10.76002,-15.4053 1.1796,-0.45875 21.23327,17.85385 31.24719,28.53436 21.04006,22.44063 29.85842,33.62294 48.05522,60.93744 10.9339,16.41253 15.31014,23.93399 23.34006,40.11497 15.92127,32.08266 22.70822,49.56587 31.96712,82.34725 3.30468,11.70037 8.2856,34.26279 10.05776,45.55906 1.32277,8.4321 3.28559,29.93063 4.38049,47.97918 1.69952,28.01552 -0.70335,62.46439 -6.5087,93.31136 -6.18043,32.84043 -11.05314,49.89147 -23.69156,82.90398 -12.36646,32.30209 -37.16896,75.78327 -58.33236,102.2623 -14.48907,18.12831 -37.93564,44.04774 -39.49162,43.65686 -0.24,-0.0604 -6.11577,-0.98772 -13.05693,-2.06087 z M 634.39157,516.71974 c 7.02866,-1.74365 10.60905,-3.55656 19.12407,-9.68337 12.90721,-9.28711 20.4003,-19.08236 25.02425,-32.71267 1.71349,-5.05088 2.44138,-6.24973 3.64215,-5.99848 0.82539,0.1725 7.66583,0.48951 15.201,0.70406 12.87105,0.36625 14.16186,0.2575 21.32594,-1.79737 4.24962,-1.21898 9.33404,-3.36276 11.4844,-4.84229 5.44635,-3.74719 15.67052,-13.63089 19.34908,-18.70481 1.71074,-2.35963 4.92592,-6.4949 7.14487,-9.18957 5.44088,-6.6072 7.17854,-10.2738 9.15015,-19.30733 2.55355,-11.70003 0.7011,-14.64333 -8.55701,-13.59589 -4.55183,0.51501 -5.46205,0.96585 -9.05774,4.4867 -4.58279,4.48732 -8.92078,6.80345 -12.74255,6.80345 -4.7905,0 -9.98,-1.80995 -13.27422,-4.62971 -7.78847,-6.66661 -18.95103,-10.49655 -24.59887,-8.44001 -1.64053,0.59738 -6.13406,2.0782 -9.98575,3.29076 -10.81627,3.40514 -20.79148,10.73822 -23.65178,17.38712 -1.78648,4.15287 -1.82344,4.18024 -4.09061,3.03293 -6.25573,-3.1658 -13.23464,-2.18949 -23.7684,3.3251 -15.92951,8.33931 -21.53644,19.6162 -19.42116,39.06045 0.50747,4.66449 0.92264,8.99323 0.92264,9.61937 0,1.8444 -7.23824,9.35465 -12.00466,12.45587 -5.23271,3.40456 -12.66325,6.53961 -15.49992,6.53961 -2.89797,0 -6.16202,3.56665 -6.16202,6.73332 0,3.03726 3.22755,6.73333 5.8798,6.73333 0.96144,0 1.98558,0.61909 2.276,1.37581 0.5348,1.39377 8.82619,5.56097 14.99,7.53392 4.91921,1.57457 20.64506,1.47073 27.30034,-0.18042 z M 500.43581,446.16681 c 34.03429,-7.15933 49.7688,-37.45242 38.36048,-73.85404 -2.36375,-7.54225 -9.07448,-17.25141 -16.35515,-23.66277 -11.77394,-10.36821 -31.11402,-15.25442 -44.96629,-11.36065 -2.77751,0.78077 -7.70126,2.00929 -10.94165,2.73009 -17.13558,3.81177 -33.58777,17.02354 -40.03646,32.151 -2.62921,6.16764 -2.84609,7.38479 -3.14626,17.65538 -0.53251,18.22306 2.22328,25.24163 14.98696,38.16968 5.72314,5.79685 8.66931,8.02068 14.72912,11.1179 8.75973,4.4772 14.03753,6.31573 21.07169,7.34045 8.02047,1.1684 20.00017,1.03765 26.29756,-0.28708 z m 226.21206,-136.5828 c 7.97421,-2.05045 18.20255,-7.96101 24.42474,-14.11407 8.92728,-8.8281 13.58127,-23.74477 12.64784,-40.53776 -0.76651,-13.78969 -5.0708,-23.33981 -14.61254,-32.42159 -3.60664,-3.43281 -6.41957,-5.20092 -11.13781,-7.00083 -3.47185,-1.32448 -7.19404,-3.19147 -8.27143,-4.1489 -1.7202,-1.52857 -3.2591,-1.77357 -12.62501,-2.01016 -13.19351,-0.33334 -20.43417,1.05031 -30.17734,5.76627 -12.3967,6.00035 -20.27092,16.06077 -24.35391,31.11556 -1.11339,4.10528 -1.49635,8.83219 -1.53419,18.93749 -0.0463,12.33224 0.1125,13.8211 1.88562,17.67492 3.66806,7.97305 8.65448,14.63824 13.94781,18.64339 6.05782,4.58371 10.07292,6.49478 18.40669,8.76124 7.48133,2.03457 22.10408,1.72465 31.39953,-0.66556 z"
     id="path880" />
</svg>
